SplineFontDB: 3.0
FontName: Manjari-Regular
FullName: Manjari Regular
FamilyName: Manjari
Weight: Regular
Copyright: Digitized data copyright (c) 2017, Santhosh Thottingal, Kavya Manohar, Swathanthra Malayalam Computing(http://smc.org.in)
Version: 1.1
ItalicAngle: 0
UnderlinePosition: -600
UnderlineWidth: 100
Ascent: 1434
Descent: 614
InvalidEm: 0
sfntRevision: 0x00010000
LayerCount: 2
Layer: 0 0 "Back" 1
Layer: 1 0 "Fore" 0
XUID: [1021 348 -393509193 7773663]
FSType: 0
OS2Version: 1
OS2_WeightWidthSlopeOnly: 0
OS2_UseTypoMetrics: 1
CreationTime: 1201144287
ModificationTime: 1504772396
PfmFamily: 17
TTFWeight: 400
TTFWidth: 5
LineGap: 0
VLineGap: 0
Panose: 2 0 5 3 0 0 0 0 0 0
OS2TypoAscent: 1500
OS2TypoAOffset: 0
OS2TypoDescent: -750
OS2TypoDOffset: 0
OS2TypoLinegap: 0
OS2WinAscent: 1500
OS2WinAOffset: 0
OS2WinDescent: 750
OS2WinDOffset: 0
HheadAscent: 1500
HheadAOffset: 0
HheadDescent: -750
HheadDOffset: 0
OS2SubXSize: 1331
OS2SubYSize: 1433
OS2SubXOff: 274
OS2SubYOff: 286
OS2SupXSize: 1331
OS2SupYSize: 1433
OS2SupXOff: -944
OS2SupYOff: 983
OS2StrikeYSize: 102
OS2StrikeYPos: 530
OS2CapHeight: 1400
OS2XHeight: 1000
OS2Vendor: 'SMC '
OS2CodePages: 00000001.00000000
OS2UnicodeRanges: 80800003.00002000.00000000.00000000
MarkAttachClasses: 1
DEI: 91125
LangName: 1100 "" "" "" "" "" "" "" "" "" "" "" "" "" "" "" "" "" "" "+DS4NHg1NDRwNMA0/"

StartChar: .notdef
Encoding: 65536 -1 0
Width: 692
GlyphClass: 2
Flags: HMW
LayerCount: 2
Fore
SplineSet
102 55 m 1
 552 55 l 1
 552 1063 l 1
 102 1063 l 1
 102 55 l 1
45 1 m 1
 45 1119 l 1
 606 1119 l 1
 606 1 l 1
 45 1 l 1
EndSplineSet
EndChar

StartChar: exclam
Encoding: 33 33 4
Width: 352
GlyphClass: 2
Flags: HMW
LayerCount: 2
Fore
SplineSet
176 171 m 0
 229 171 272 128 272 75 c 0
 272 22 229 -21 176 -21 c 0
 123 -21 80 22 80 75 c 0
 80 128 123 171 176 171 c 0
171 1383 m 4
 210 1383 251 1352 251 1313 c 5
 225 397 l 5
 225 358 210 327 171 327 c 4
 132 327 116 358 116 397 c 5
 90 1313 l 5
 90 1351 132 1383 171 1383 c 4
EndSplineSet
EndChar

StartChar: numbersign
Encoding: 35 35 6
Width: 942
GlyphClass: 2
Flags: HMW
LayerCount: 2
Fore
SplineSet
446 781 m 1
 384 450 l 1
 633 450 l 1
 692 781 l 1
 446 781 l 1
807 781 m 1
 746 450 l 1
 938 450 l 1
 938 349 l 1
 728 349 l 1
 659 -28 l 1
 544 -28 l 1
 612 349 l 1
 366 349 l 1
 296 -28 l 1
 183 -28 l 1
 251 349 l 1
 68 349 l 1
 68 450 l 1
 272 450 l 1
 330 781 l 1
 134 781 l 1
 134 882 l 1
 350 882 l 1
 413 1231 l 1
 530 1231 l 1
 462 882 l 1
 711 882 l 1
 774 1231 l 1
 891 1231 l 1
 824 882 l 1
 996 882 l 1
 996 781 l 1
 807 781 l 1
EndSplineSet
EndChar

StartChar: dollar
Encoding: 36 36 7
Width: 1401
GlyphClass: 2
Flags: HMW
LayerCount: 2
Fore
SplineSet
271 960 m 4
 271 883 334 837 393 813 c 4
 467 783 549 770 634 762 c 5
 634 1210 l 5
 466 1192 271 1117 271 960 c 4
784 -84 m 6
 784 -119 752 -159 720 -159 c 4
 663 -159 634 -134 634 -83 c 6
 634 -5 l 5
 400 15 202 120 109 300 c 4
 104 309 100 326 100 336 c 4
 100 377 134 411 175 411 c 4
 201 411 231 392 242 369 c 4
 312 235 453 162 634 145 c 5
 634 616 l 5
 531 624 428 636 336 674 c 4
 229 718 121 810 121 960 c 4
 121 1217 386 1340 634 1361 c 5
 634 1422 l 6
 634 1463 667 1497 708 1497 c 6
 709 1497 l 6
 751 1497 784 1463 784 1421 c 6
 784 1361 l 5
 986 1341 1159 1238 1242 1084 c 4
 1247 1075 1252 1059 1252 1048 c 4
 1252 1007 1218 973 1177 973 c 4
 1152 973 1122 991 1110 1013 c 4
 1051 1123 933 1193 784 1210 c 5
 784 751 l 5
 880 744 975 734 1062 703 c 4
 1182 661 1301 567 1301 404 c 4
 1301 137 1046 12 784 -6 c 5
 784 -84 l 6
784 144 m 5
 964 158 1151 233 1151 404 c 4
 1151 492 1081 537 1013 561 c 4
 941 586 863 598 784 605 c 5
 784 144 l 5
EndSplineSet
EndChar

StartChar: percent
Encoding: 37 37 8
Width: 1584
GlyphClass: 2
Flags: HMW
LayerCount: 2
Fore
SplineSet
1333 1443 m 0
 1377 1443 1405 1399 1405 1367 c 0
 1405 1351 1400 1336 1392 1324 c 2
 437 15 l 2
 422 -4 403 -19 375 -19 c 0
 329 -19 300 22 300 57 c 0
 300 71 304 86 313 99 c 2
 1268 1408 l 2
 1283 1429 1308 1443 1333 1443 c 0
1485 305 m 0
 1485 120 1339 -28 1153 -28 c 0
 974 -28 818 115 818 292 c 4
 818 487 951 641 1155 641 c 0
 1341 641 1485 486 1485 305 c 0
1150 112 m 0
 1262 112 1345 197 1345 308 c 0
 1345 411 1257 500 1152 500 c 0
 1045 500 957 409 957 306 c 0
 957 204 1044 112 1150 112 c 0
841 1015 m 0
 841 830 695 682 509 682 c 0
 330 682 174 823 174 1001 c 0
 174 1196 307 1350 511 1350 c 0
 697 1350 841 1196 841 1015 c 0
506 821 m 0
 618 821 701 906 701 1017 c 0
 701 1120 614 1210 508 1210 c 0
 401 1210 313 1118 313 1015 c 0
 313 913 400 821 506 821 c 0
EndSplineSet
EndChar

StartChar: ampersand
Encoding: 38 38 9
Width: 1216
GlyphClass: 2
Flags: HMW
LayerCount: 2
Fore
SplineSet
493 659 m 5
 373 595 239 507 239 378 c 4
 239 239 350 135 495 135 c 4
 617 135 722 218 776 293 c 5
 685 411 591 533 493 659 c 5
530 840 m 5
 653 913 718 992 718 1080 c 4
 718 1169 648 1239 560 1239 c 4
 471 1239 395 1175 395 1078 c 4
 395 1003 440 956 530 840 c 5
858 1075 m 4
 858 937 776 825 616 728 c 5
 707 611 784 512 846 431 c 5
 870 498 883 569 886 643 c 4
 887 680 918 712 956 712 c 4
 986 712 1026 682 1026 655 c 4
 1026 531 999 414 945 304 c 5
 1048 170 1103 99 1108 92 c 4
 1113 85 1116 73 1116 55 c 4
 1116 17 1083 -13 1043 -13 c 4
 1022 -13 1003 -3 988 17 c 4
 937 85 896 139 864 179 c 5
 780 78 656 -6 494 -6 c 4
 276 -6 101 154 101 369 c 4
 101 575 215 669 406 772 c 5
 347 854 256 959 256 1083 c 4
 256 1248 398 1381 551 1381 c 4
 725 1381 858 1249 858 1075 c 4
EndSplineSet
EndChar

StartChar: quotesingle
Encoding: 39 39 10
Width: 382
GlyphClass: 2
Flags: HMW
LayerCount: 2
Fore
SplineSet
100 1346 m 5
 100 1387 147 1426 189 1426 c 0
 230 1426 285 1388 282 1345 c 5
 242 1033 l 1
 239 992 226 957 185 957 c 0
 144 957 130 992 130 1033 c 1
 100 1346 l 5
EndSplineSet
EndChar

StartChar: parenleft
Encoding: 40 40 11
Width: 705
GlyphClass: 2
Flags: HMW
LayerCount: 2
Fore
SplineSet
606 -276 m 0
 606 -319 574 -355 533 -355 c 0
 514 -355 497 -349 484 -338 c 0
 278 -179 100 99 100 440 c 0
 100 780 273 1059 478 1218 c 0
 491 1229 508 1235 527 1235 c 0
 568 1235 600 1199 600 1157 c 0
 600 1134 590 1115 570 1100 c 0
 399 966 250 726 250 441 c 0
 250 155 403 -87 575 -220 c 0
 596 -235 606 -253 606 -276 c 0
EndSplineSet
EndChar

StartChar: asterisk
Encoding: 42 42 13
Width: 955
GlyphClass: 2
Flags: HMW
LayerCount: 2
Fore
SplineSet
1 1236 m 0
 1 1276 30 1312 67 1312 c 0
 84 1312 98 1308 109 1301 c 2
 415 1114 l 1
 411 1362 l 1
 411 1378 l 2
 411 1404 451 1434 481 1434 c 0
 519 1434 551 1402 551 1364 c 2
 555 1115 l 1
 847 1302 l 2
 859 1310 873 1314 890 1314 c 0
 920 1314 956 1282 956 1253 c 0
 956 1221 945 1198 923 1184 c 2
 619 990 l 1
 922 805 l 2
 945 791 956 773 956 750 c 0
 956 710 928 675 890 675 c 0
 874 675 860 679 849 686 c 2
 558 863 l 1
 563 549 l 1
 563 533 l 2
 563 506 523 477 493 477 c 0
 455 477 423 509 423 547 c 2
 418 862 l 1
 109 664 l 2
 97 656 83 653 66 653 c 0
 28 653 0 688 0 728 c 0
 0 751 11 768 33 782 c 2
 354 987 l 1
 36 1182 l 2
 13 1196 1 1213 1 1236 c 0
EndSplineSet
EndChar

StartChar: plus
Encoding: 43 43 14
Width: 1103
GlyphClass: 2
Flags: HMW
LayerCount: 2
Fore
SplineSet
547 915 m 0
 587.609286708 915 619 882.691686978 619 842 c 2
 623 531 l 1
 933 531 l 2
 972 531 1003 499 1003 460 c 0
 1003 421 972 389 933 389 c 2
 624 389 l 1
 628 75 l 0
 628 35 595 2 555 2 c 0
 515 2 483 35 483 75 c 2
 479 389 l 1
 171 389 l 2
 132 389 100 421 100 460 c 0
 100 499 132 531 171 531 c 2
 478 531 l 1
 474 841 l 2
 474 881.405189633 505.766265749 915 547 915 c 0
EndSplineSet
EndChar

StartChar: comma
Encoding: 44 44 15
Width: 506
GlyphClass: 2
Flags: HMW
LayerCount: 2
Fore
SplineSet
100 139 m 0
 100 211 162 283 231 283 c 0
 262 283 288 278 309 267 c 0
 404 216 430 118 385 -28 c 0
 352 -137 294 -219 211 -274 c 0
 159 -309 102 -267 102 -212 c 0
 102 -190 114 -171 137 -155 c 0
 190 -120 227 -70 246 -5 c 1
 244 -5 l 2
 165 -5 100 60 100 139 c 0
EndSplineSet
EndChar

StartChar: hyphen
Encoding: 45 45 16
Width: 1102
GlyphClass: 2
Flags: HMW
LayerCount: 2
Fore
SplineSet
170 603 m 2
 932 603 l 2
 971 603 1002 572 1002 533 c 0
 1002 494 971 463 932 463 c 2
 170 463 l 2
 131 463 100 494 100 533 c 0
 100 572 131 603 170 603 c 2
EndSplineSet
EndChar

StartChar: period
Encoding: 46 46 17
Width: 489
GlyphClass: 2
Flags: HMW
LayerCount: 2
Fore
SplineSet
244 -4 m 0
 166 -4 100 59 100 136 c 0
 100 213 166 275 244 275 c 0
 322 275 389 213 389 136 c 0
 389 59 322 -4 244 -4 c 0
EndSplineSet
EndChar

StartChar: slash
Encoding: 47 47 18
Width: 912
GlyphClass: 2
Flags: HMW
LayerCount: 2
Fore
SplineSet
814 1424 m 4
 861 1403 870 1355 855 1322 c 5
 633 875 412 428 189 -18 c 0
 174 -50 126 -60 100 -48 c 0
 57 -29 38 14 57 54 c 2
 719 1384 l 6
 737 1419 777 1441 814 1424 c 4
EndSplineSet
EndChar

StartChar: zero
Encoding: 48 48 19
Width: 1100
GlyphClass: 2
Flags: HMW
LayerCount: 2
Fore
SplineSet
550 125 m 0
 812 125 910 404 910 696 c 0
 910 971 809 1235 554 1235 c 0
 294 1235 190 968 190 682 c 0
 190 394 290 125 550 125 c 0
40 680 m 0
 40 1054 221 1385 568 1385 c 0
 898 1385 1060 1042 1060 688 c 0
 1060 312 903 -25 546 -25 c 0
 194 -25 40 319 40 680 c 0
EndSplineSet
EndChar

StartChar: one
Encoding: 49 49 20
Width: 1100
GlyphClass: 2
Flags: HMW
LayerCount: 2
Fore
SplineSet
330 1033 m 0
 302 1033 267 1072 267 1101 c 0
 267 1136 288 1174 319 1180 c 0
 382 1192 440 1247 493 1344 c 0
 508 1373 528 1387 554 1387 c 0
 601 1387 636 1357 636 1312 c 2
 636 136 l 1
 780 136 l 2
 807 136 836 96 836 66 c 0
 836 28 804 0 766 0 c 2
 334 0 l 2
 296 0 264 28 264 66 c 0
 264 96 293 136 320 136 c 2
 486 136 l 1
 486 1098 l 1
 448 1067 395 1033 330 1033 c 0
EndSplineSet
EndChar

StartChar: two
Encoding: 50 50 21
Width: 1100
GlyphClass: 2
Flags: HMW
LayerCount: 2
Fore
SplineSet
164 -3 m 2
 123 -3 89 31 89 72 c 0
 89 83 93 99 98 108 c 0
 166 232 255 343 361 437 c 0
 519 578 792 678 792 951 c 0
 792 1111 674 1237 519 1237 c 0
 390 1237 289 1141 267 1035 c 0
 260 1002 227 974 193 974 c 0
 152 974 118 1008 118 1049 c 0
 118 1054 119 1061 120 1066 c 0
 156 1238 309 1387 521 1387 c 0
 765 1387 942 1198 942 951 c 0
 942 610 641 484 461 325 c 0
 401 272 347 212 300 147 c 1
 936 147 l 2
 977 147 1011 113 1011 72 c 0
 1011 31 977 -3 936 -3 c 2
 164 -3 l 2
EndSplineSet
EndChar

StartChar: three
Encoding: 51 51 22
Width: 1100
GlyphClass: 2
Flags: HMW
LayerCount: 2
Fore
SplineSet
788 1003 m 0
 788 1125 678 1227 553 1227 c 0
 454 1227 361 1159 335 1088 c 0
 318 1040 298 1019 248 1019 c 0
 219 1019 182 1057 182 1086 c 0
 182 1101 184 1112 187 1121 c 0
 238 1260 371 1376 553 1376 c 0
 762 1376 939 1213 939 992 c 0
 939 866 873 769 802 709 c 1
 902 650 970 547 970 409 c 0
 970 160 764 -17 529 -17 c 0
 360 -17 220 79 144 186 c 0
 135 199 130 216 130 234 c 0
 130 274 167 305 210 305 c 0
 234 305 252 294 267 273 c 0
 316 204 413 134 523 134 c 0
 682 134 820 251 820 405 c 0
 820 568 704 618 534 619 c 0
 495 619 463 649 463 693 c 0
 463 748 507 772 551 772 c 0
 683 772 788 846 788 1003 c 0
EndSplineSet
EndChar

StartChar: four
Encoding: 52 52 23
Width: 1100
GlyphClass: 2
Flags: HMW
LayerCount: 2
Fore
SplineSet
652 555 m 1
 650 1096 l 1
 228 557 l 1
 652 555 l 1
728 -23 m 0
 686 -23 652 11 652 53 c 2
 652 405 l 1
 74 407 l 2
 34 407 -2 441 -2 480 c 0
 -2 499 3 515 14 529 c 2
 666 1357 l 2
 681 1376 700 1385 722 1385 c 0
 765 1385 798 1352 798 1310 c 2
 802 555 l 1
 1026 554 l 2
 1067 554 1102 520 1102 479 c 0
 1102 437 1066 404 1024 404 c 2
 802 405 l 1
 802 53 l 2
 802 11 770 -23 728 -23 c 0
EndSplineSet
EndChar

StartChar: five
Encoding: 53 53 24
Width: 1100
GlyphClass: 2
Flags: HMW
LayerCount: 2
Fore
SplineSet
212 615 m 0
 175 615 134 645 134 678 c 0
 134 690 135 698 136 702 c 2
 238 1320 l 2
 244 1357 274 1383 310 1383 c 2
 924 1383 l 2
 961 1383 1000 1350 1000 1316 c 0
 1000 1268 969 1233 924 1233 c 2
 374 1233 l 1
 318 884 l 1
 389 921 462 940 540 940 c 0
 808 940 1018 734 1018 461 c 0
 1018 185 804 -22 532 -22 c 0
 324 -22 162 101 90 249 c 0
 85 260 82 274 82 290 c 0
 82 322 119 358 152 358 c 0
 187 358 212 344 226 315 c 0
 277 211 384 128 532 128 c 0
 720 128 868 271 868 460 c 0
 868 650 726 790 528 790 c 0
 423 790 317 716 270 648 c 0
 255 626 236 615 212 615 c 0
EndSplineSet
EndChar

StartChar: six
Encoding: 54 54 25
Width: 1100
GlyphClass: 2
Flags: HMW
LayerCount: 2
Fore
SplineSet
596 131 m 0
 774 131 898 265 898 442 c 0
 898 609 757 754 586 754 c 0
 412 754 274 608 274 439 c 0
 274 267 433 131 596 131 c 0
592 -18 m 0
 230 -18 52 339 52 701 c 0
 52 1055 241 1386 596 1386 c 0
 777 1386 913 1284 984 1163 c 0
 991 1151 996 1137 996 1120 c 0
 996 1088 961 1050 930 1050 c 0
 895 1050 869 1063 854 1088 c 0
 807 1168 715 1237 596 1237 c 0
 323 1237 202 969 202 696 c 1
 203 697 203 698 204 699 c 0
 268 801 419 902 574 902 c 0
 845 902 1048 700 1048 432 c 0
 1048 193 861 -18 592 -18 c 0
EndSplineSet
EndChar

StartChar: seven
Encoding: 55 55 26
Width: 1100
GlyphClass: 2
Flags: HMW
LayerCount: 2
Fore
SplineSet
962 1380 m 2
 1001 1380 1038 1350 1038 1306 c 0
 1038 1293 1035 1282 1030 1271 c 0
 829 870 659 455 522 28 c 0
 512 -7 485 -25 442 -25 c 0
 413 -25 376 11 376 40 c 0
 376 54 377 66 380 73 c 0
 507 469 660 855 842 1230 c 1
 138 1230 l 2
 97 1230 62 1264 62 1305 c 0
 62 1346 97 1380 138 1380 c 2
 962 1380 l 2
EndSplineSet
EndChar

StartChar: eight
Encoding: 56 56 27
Width: 1100
GlyphClass: 2
Flags: HMW
LayerCount: 2
Fore
SplineSet
834 375 m 0
 834 517 694 618 548 618 c 0
 405 618 264 526 264 376 c 0
 264 231 402 131 550 131 c 0
 698 131 834 230 834 375 c 0
308 1009 m 0
 308 881 421 783 550 783 c 0
 675 783 790 871 790 1008 c 0
 790 1133 672 1231 554 1231 c 0
 425 1231 308 1137 308 1009 c 0
940 995 m 0
 940 875 889 781 784 707 c 1
 891 646 986 528 986 372 c 0
 986 138 776 -19 550 -19 c 0
 322 -19 114 136 114 374 c 0
 114 533 208 647 314 708 c 1
 224 772 160 874 160 1011 c 0
 160 1218 344 1380 548 1380 c 0
 760 1380 940 1216 940 995 c 0
EndSplineSet
EndChar

StartChar: semicolon
Encoding: 59 59 30
Width: 506
GlyphClass: 2
Flags: HMW
LayerCount: 2
Fore
SplineSet
231 283 m 0
 346 283 406 197 406 97 c 0
 406 60 399 18 385 -28 c 0
 352 -137 294 -219 211 -274 c 0
 198 -283 184 -287 171 -287 c 0
 133 -287 102 -253 102 -212 c 0
 102 -190 114 -171 137 -155 c 0
 190 -120 227 -70 246 -5 c 1
 244 -5 l 2
 165 -5 100 60 100 139 c 0
 100 211 162 283 231 283 c 0
254 601 m 0
 176 601 110 663 110 740 c 0
 110 817 176 880 254 880 c 0
 332 880 399 817 399 740 c 0
 399 663 332 601 254 601 c 0
EndSplineSet
EndChar

StartChar: less
Encoding: 60 60 31
Width: 1003
GlyphClass: 2
Flags: HMW
LayerCount: 2
Fore
SplineSet
800 1018 m 2
 809 1023 823 1026 834 1026 c 0
 873 1026 904 995 904 956 c 0
 904 932 887 905 866 894 c 2
 317 603 l 1
 866 299 l 2
 886 288 903 260 903 237 c 0
 903 198 872 167 833 167 c 0
 823 167 808 171 799 176 c 2
 136 543 l 2
 116 554 100 581 100 604 c 0
 100 627 116 655 137 666 c 2
 800 1018 l 2
EndSplineSet
EndChar

StartChar: equal
Encoding: 61 61 32
Width: 1109
GlyphClass: 2
Flags: HMW
LayerCount: 2
Fore
SplineSet
100 702 m 0
 100 732 130 772 156 772 c 0
 166 772 171 772 171 771 c 1
 939 771 l 1
 939 769 947 771 956 771 c 0
 982 771 1010 730 1010 702 c 0
 1010 672 980 631 954 631 c 2
 156 631 l 2
 130 631 100 672 100 702 c 0
100 380 m 0
 100 405 127 451 148 451 c 2
 171 450 l 1
 939 450 l 1
 954 451 l 1
 980 451 1010 410 1010 380 c 0
 1010 350 980 310 954 310 c 2
 156 310 l 2
 130 310 100 350 100 380 c 0
EndSplineSet
EndChar

StartChar: question
Encoding: 63 63 34
Width: 949
GlyphClass: 2
Flags: HMW
LayerCount: 2
Fore
SplineSet
100 952 m 0
 100 1154 264 1287 458 1287 c 0
 641 1287 783 1190 832 1048 c 0
 844 1014 849 979 849 944 c 0
 849 759 715 654 621 571 c 0
 566 522 515 481 515 393 c 0
 515 374 521 356 521 338 c 0
 521 302 492 273 456 273 c 0
 398 273 385 335 385 394 c 0
 385 618 602 688 683 823 c 0
 705 859 719 895 719 944 c 0
 719 1080 596 1157 460 1157 c 0
 334 1157 230 1081 230 952 c 0
 230 944 231 936 231 928 c 0
 231 892 202 863 166 863 c 0
 118 863 100 902 100 952 c 0
474 171 m 0
 527 171 570 128 570 75 c 0
 570 22 527 -21 474 -21 c 0
 421 -21 378 22 378 75 c 0
 378 128 421 171 474 171 c 0
EndSplineSet
EndChar

StartChar: at
Encoding: 64 64 35
Width: 1784
GlyphClass: 2
Flags: HMW
LayerCount: 2
Fore
SplineSet
859 734 m 0
 725 734 616 618 616 484 c 0
 616 352 714 232 859 232 c 0
 999 232 1103 341 1105 480 c 0
 1104 619 997 734 859 734 c 0
867 83 m 0
 638 83 466 263 466 492 c 0
 466 695 646 884 846 884 c 0
 945 884 1030 856 1102 800 c 1
 1102 811 l 2
 1102 852 1136 886 1177 886 c 0
 1218 886 1252 852 1252 811 c 2
 1252 321 l 2
 1252 266 1313 227 1370 227 c 0
 1486 227 1532 355 1532 462 c 0
 1532 819 1225 1111 900 1111 c 0
 524 1111 249 809 249 481 c 0
 249 136 505 -162 870 -162 c 0
 944 -162 1019 -148 1097 -120 c 0
 1119 -112 1137 -108 1153 -108 c 0
 1190 -108 1209 -131 1209 -176 c 0
 1209 -218 1189 -246 1149 -261 c 0
 1054 -297 960 -314 869 -314 c 0
 422 -314 99 57 99 477 c 0
 99 871 430 1267 900 1267 c 0
 1298 1267 1684 903 1684 464 c 4
 1684 263 1570 76 1369 76 c 0
 1269 76 1193 118 1140 201 c 1
 1077 137 981 83 867 83 c 0
EndSplineSet
EndChar

StartChar: braceleft
Encoding: 123 123 36
Width: 617
GlyphClass: 2
Flags: HMW
LayerCount: 2
Fore
SplineSet
493 1231 m 0
 480 1231 466 1236 454 1236 c 0
 392 1236 380 1172 379 1105 c 2
 373 642 l 2
 372 557 348 487 303 439 c 1
 358 384 380 308 379 209 c 2
 377 -207 l 2
 377 -285 390 -357 463 -357 c 2
 492 -357 l 2
 533 -357 567 -391 567 -432 c 0
 567 -489 521 -509 468 -509 c 0
 302 -509 227 -374 227 -215 c 2
 229 213 l 2
 229 301 208 356 125 356 c 0
 84 356 50 390 50 431 c 0
 50 471 81 501 120 506 c 1
 190 510 222 565 223 644 c 2
 229 1107 l 2
 231 1257 305 1386 453 1386 c 0
 512 1386 568 1362 568 1306 c 0
 568 1265 534 1231 493 1231 c 0
EndSplineSet
EndChar

StartChar: bar
Encoding: 124 124 37
Width: 350
GlyphClass: 2
Flags: HMW
LayerCount: 2
Fore
SplineSet
250 -295 m 2
 250 -330 218 -370 186 -370 c 0
 129 -370 100 -345 100 -294 c 2
 100 1211 l 2
 100 1253 133 1286 175 1286 c 4
 217 1286 250 1252 250 1210 c 2
 250 -295 l 2
EndSplineSet
EndChar

StartChar: asciitilde
Encoding: 126 126 39
Width: 762
GlyphClass: 2
Flags: HMW
LayerCount: 2
Fore
SplineSet
623 1292 m 4
 623 1301 620 1308 620 1317 c 4
 620 1356 651 1387 690 1387 c 4
 740 1387 763 1343 763 1289 c 4
 763 1171 663 1073 546 1073 c 4
 416 1073 357 1169 280 1219 c 4
 259 1233 242 1241 220 1241 c 4
 175 1241 140 1205 140 1161 c 4
 140 1156 141 1151 141 1146 c 4
 141 1107 110 1076 71 1076 c 4
 25 1076 0 1114 0 1163 c 4
 0 1281 99 1381 218 1381 c 4
 349 1381 409 1284 487 1234 c 4
 507 1221 523 1213 544 1213 c 4
 588 1213 623 1248 623 1292 c 4
EndSplineSet
EndChar

StartChar: anuswara
Encoding: 3330 3330 41
Width: 807
GlyphClass: 2
Flags: HMW
LayerCount: 2
Fore
SplineSet
405 618 m 0
 580 617 728 471 728 295 c 0
 728 119 578 -23 403 -23 c 0
 227 -23 80 122 80 297 c 0
 80 472 227 618 405 618 c 0
588 296 m 0
 588 395 503 476 404 476 c 0
 305 476 220 395 220 296 c 0
 220 197 304 117 404 117 c 0
 504 117 588 197 588 296 c 0
EndSplineSet
EndChar

StartChar: ml_a
Encoding: 3333 3333 43
Width: 2694
GlyphClass: 2
Flags: HMW
LayerCount: 2
Fore
SplineSet
2439 361 m 0
 2439 509 2341 610 2194 610 c 0
 2059 610 1954 487 1954 354 c 0
 1954 232 2080 110 2204 110 c 0
 2343 110 2439 215 2439 361 c 0
901 842 m 1
 780 781 651 627 651 444 c 0
 651 263 752 117 927 117 c 0
 1024 117 1098 199 1098 272 c 0
 1098 366 1038 411 950 413 c 0
 909 414 869 435 869 488 c 0
 869 527 897 552 936 554 c 0
 992 558 1034 599 1034 660 c 0
 1034 737 957 808 901 842 c 1
929 -24 m 0
 690 -24 514 180 514 435 c 0
 514 634 612 798 728 896 c 1
 716 897 704 897 692 897 c 0
 446 897 239 714 239 466 c 0
 239 298 350 164 475 110 c 0
 498 101 517 72 517 40 c 0
 517 10 484 -26 454 -26 c 0
 439 -26 427 -24 418 -20 c 0
 251 53 100 232 100 457 c 0
 100 781 353 1038 694 1038 c 0
 766 1038 837 1024 906 996 c 1
 971 1020 1037 1032 1104 1032 c 0
 1316 1032 1459 938 1543 794 c 1
 1620 933 1763 1032 1969 1032 c 0
 2305 1032 2594 789 2594 438 c 0
 2594 193 2436 -24 2181 -24 c 0
 1971 -24 1815 147 1815 354 c 0
 1815 567 1977 751 2188 751 c 0
 2248 751 2301 742 2347 722 c 1
 2268 816 2125 892 1974 892 c 0
 1706 892 1616 713 1616 433 c 2
 1616 47 l 2
 1616 9 1584 -23 1546 -23 c 0
 1508 -23 1477 10 1476 47 c 2
 1475 433 l 2
 1475 711 1369 891 1109 891 c 0
 1095 891 1081 891 1067 890 c 1
 1134 822 1176 738 1176 656 c 0
 1176 603 1159 551 1120 504 c 1
 1189 456 1239 378 1239 279 c 0
 1239 107 1095 -24 929 -24 c 0
EndSplineSet
EndChar

StartChar: ml_aa
Encoding: 3334 3334 44
Width: 2919
GlyphClass: 2
Flags: HMW
LayerCount: 2
Fore
SplineSet
2178 107 m 0
 2341 107 2453 264 2453 432 c 0
 2453 473 2447 514 2434 555 c 1
 2379 579 2334 591 2299 591 c 0
 2114 591 1953 488 1953 329 c 0
 1953 194 2042 107 2178 107 c 0
1099 267 m 0
 1099 347 1042 405 962 405 c 0
 952 405 940 404 926 404 c 0
 899 404 868 442 868 472 c 0
 868 503 894 539 920 542 c 0
 979 549 1034 577 1034 647 c 0
 1034 728 956 801 895 836 c 1
 779 777 650 625 650 447 c 0
 650 267 753 115 924 115 c 0
 1025 115 1099 192 1099 267 c 0
1542 785 m 1
 1618 921 1765 1026 1973 1026 c 0
 2249 1026 2462 853 2547 654 c 1
 2699 566 2819 385 2819 175 c 0
 2819 -142 2562 -378 2264 -378 c 0
 2096 -378 1972 -312 1878 -223 c 0
 1863 -209 1856 -192 1856 -172 c 0
 1856 -133 1887 -102 1926 -102 c 0
 1945 -102 1962 -109 1975 -122 c 0
 2055 -198 2149 -237 2257 -237 c 0
 2477 -237 2679 -63 2679 157 c 0
 2679 263 2650 354 2593 429 c 1
 2593 415 l 2
 2593 187 2425 -33 2181 -33 c 0
 1990 -33 1813 117 1813 308 c 0
 1813 567 2012 730 2263 730 c 0
 2287 730 2313 728 2338 725 c 1
 2267 804 2127 886 1990 886 c 0
 1748 886 1615 747 1615 505 c 2
 1615 42 l 2
 1615 4 1584 -27 1546 -27 c 0
 1508 -27 1476 5 1475 42 c 2
 1474 432 l 2
 1474 705 1374 886 1113 886 c 0
 1093 886 1076 885 1061 884 c 1
 1136 810 1173 731 1173 647 c 0
 1173 590 1156 540 1121 496 c 1
 1199 441 1238 365 1238 269 c 0
 1238 96 1093 -25 933 -25 c 0
 699 -25 512 175 512 427 c 0
 512 633 608 790 720 886 c 1
 709 887 699 887 688 887 c 0
 425 887 239 696 239 436 c 0
 239 287 348 156 455 102 c 0
 481 89 494 66 494 33 c 0
 494 3 460 -31 430 -31 c 0
 415 -31 402 -28 391 -23 c 0
 239 55 100 229 100 446 c 0
 100 775 356 1028 702 1028 c 0
 767 1028 833 1016 898 990 c 1
 964 1014 1023 1026 1075 1026 c 0
 1294 1026 1450 946 1542 785 c 1
EndSplineSet
EndChar

StartChar: ml_i
Encoding: 3335 3335 45
Width: 1974
GlyphClass: 2
Flags: HMW
LayerCount: 2
Fore
SplineSet
441 289 m 0
 537 289 616 367 616 463 c 0
 616 559 537 638 441 638 c 0
 345 638 267 559 267 463 c 0
 267 367 345 289 441 289 c 0
643 1028 m 0
 818 1028 955 937 1023 832 c 1
 1093 949 1214 1030 1376 1030 c 0
 1655 1030 1870 787 1870 509 c 0
 1870 148 1600 -20 1234 -6 c 1
 483 -6 l 2
 369 -9 239 -29 239 -110 c 0
 239 -202 345 -212 464 -212 c 2
 1803 -213 l 2
 1848 -213 1871 -248 1871 -283 c 0
 1871 -319 1848 -353 1802 -353 c 2
 464 -352 l 2
 255 -352 100 -296 100 -102 c 0
 100 100 349 131 570 132 c 2
 1233 135 l 2
 1514 137 1730 237 1730 494 c 0
 1730 705 1585 890 1382 890 c 0
 1169 890 1097 739 1097 507 c 2
 1097 230 l 1
 1096 185 1062 162 1027 162 c 0
 993 162 958 184 957 229 c 2
 956 503 l 1
 954 750 871 889 629 889 c 0
 515 889 401 824 339 748 c 1
 373 759 412 765 454 765 c 0
 622 765 752 613 752 454 c 0
 752 293 622 146 457 146 c 0
 240 146 114 326 114 525 c 0
 114 812 350 1028 643 1028 c 0
EndSplineSet
EndChar

StartChar: ml_u
Encoding: 3337 3337 47
Width: 1329
GlyphClass: 2
Flags: HMW
LayerCount: 2
Fore
SplineSet
416 230 m 0
 227 230 106 395 106 571 c 0
 106 839 350 1027 603 1027 c 0
 932 1027 1202 785 1202 462 c 0
 1202 152 980 -2 670 -2 c 0
 611 -2 553 0 494 0 c 0
 368 0 240 -19 240 -96 c 0
 240 -196 357 -203 498 -203 c 2
 1158 -204 l 2
 1197 -204 1229 -235 1229 -274 c 0
 1229 -313 1197 -344 1158 -344 c 2
 498 -343 l 2
 254 -342 100 -270 100 -100 c 0
 100 61 277 141 427 141 c 0
 506 141 589 138 668 138 c 4
 899 138 1064 235 1064 466 c 0
 1064 707 846 884 609 884 c 0
 528 884 448 862 378 812 c 1
 384 812 390 813 396 813 c 0
 561 813 685 675 685 517 c 0
 685 371 561 230 416 230 c 0
394 368 m 0
 485 368 560 443 560 534 c 0
 560 619 487 700 406 700 c 0
 297 700 228 628 228 534 c 0
 228 443 303 368 394 368 c 0
EndSplineSet
EndChar

StartChar: ml_r
Encoding: 3339 3339 49
Width: 1680
GlyphClass: 2
Flags: HMW
LayerCount: 2
Fore
SplineSet
790 128 m 2
 517 128 281 92 281 -112 c 0
 281 -304 502 -368 730 -368 c 2
 1019 -368 l 2
 1216 -368 1405 -292 1405 -114 c 0
 1405 80 1181 128 928 128 c 2
 790 128 l 2
1146 742 m 0
 1146 663 1209 598 1290 598 c 0
 1370 598 1427 659 1434 732 c 1
 1419 813 1360 882 1283 882 c 0
 1202 882 1146 816 1146 742 c 0
405 610 m 0
 484 610 546 673 546 752 c 0
 546 826 481 883 409 883 c 0
 334 883 260 826 260 747 c 0
 260 669 331 610 405 610 c 0
1275 225 m 1
 1417 174 1546 51 1546 -121 c 0
 1546 -371 1293 -502 1052 -505 c 0
 934 -506 816 -507 697 -508 c 4
 405 -508 141 -384 141 -112 c 0
 141 47 263 171 394 223 c 1
 243 305 100 459 100 678 c 0
 100 851 227 1024 405 1024 c 0
 563 1024 687 901 687 750 c 0
 687 591 561 468 404 468 c 0
 369 468 333 475 298 489 c 1
 301 486 l 1
 393 342 584 270 820 270 c 0
 1071 270 1255 339 1360 469 c 1
 1359 469 1358 468 1356 467 c 0
 1332 460 1308 457 1285 457 c 0
 1131 457 1004 596 1004 747 c 0
 1004 891 1124 1023 1279 1023 c 0
 1469 1023 1580 853 1580 675 c 0
 1580 454 1432 307 1275 225 c 1
EndSplineSet
EndChar

StartChar: ml_l
Encoding: 3340 3340 50
Width: 2087
GlyphClass: 2
Flags: HMW
LayerCount: 2
Fore
SplineSet
1808 314 m 0
 1808 429 1719 519 1604 519 c 0
 1490 519 1397 429 1397 320 c 0
 1397 204 1484 121 1591 121 c 0
 1700 121 1808 194 1808 314 c 0
498 123 m 0
 603 123 690 203 690 317 c 0
 690 428 593 521 484 521 c 0
 373 521 280 431 280 318 c 0
 280 196 388 123 498 123 c 0
1036 798 m 1
 1111 930 1251 1024 1437 1024 c 0
 1762 1024 1987 746 1987 440 c 0
 1987 203 1839 -21 1597 -21 c 0
 1403 -21 1257 124 1257 316 c 0
 1257 515 1416 662 1614 662 c 0
 1689 662 1759 634 1825 578 c 1
 1772 743 1619 883 1440 883 c 0
 1198 883 1107 702 1105 445 c 2
 1102 43 l 6
 1101 3 1074 -25 1025 -25 c 4
 993 -25 963 11 962 44 c 5
 964 445 l 1
 964 697 876 882 643 882 c 0
 441 882 311 737 262 579 c 1
 328 635 399 663 474 663 c 0
 675 663 830 518 830 316 c 0
 830 128 683 -18 499 -18 c 0
 255 -18 100 197 100 440 c 0
 100 746 322 1023 642 1023 c 0
 825 1023 962 928 1036 798 c 1
EndSplineSet
EndChar

StartChar: ml_e
Encoding: 3342 3342 51
Width: 2257
GlyphClass: 2
Flags: HMW
LayerCount: 2
Fore
SplineSet
1149 -2 m 1
 1156 -155 1205 -292 1347 -292 c 0
 1491 -292 1525 -160 1527 -6 c 1
 1149 -2 l 1
464 563 m 0
 339 563 239 458 239 341 c 0
 239 240 310 161 388 133 c 0
 413 124 435 96 435 62 c 0
 435 32 402 -3 373 -3 c 0
 359 -3 348 -2 341 1 c 0
 213 46 100 175 100 340 c 0
 100 544 260 704 464 704 c 0
 666 704 825 533 825 341 c 0
 825 275 806 207 764 142 c 1
 1008 140 l 1
 1009 285 l 1
 1009 688 1153 1028 1546 1028 c 4
 1914 1028 2157 697 2157 306 c 0
 2157 4 2024 -246 1861 -408 c 0
 1847 -422 1830 -429 1811 -429 c 0
 1773 -429 1741 -397 1741 -359 c 0
 1741 -340 1748 -323 1762 -309 c 0
 1899 -172 2019 51 2019 304 c 0
 2019 610 1853 888 1555 888 c 4
 1241 888 1149 615 1149 284 c 1
 1148 138 l 1
 1528 134 l 1
 1532 636 l 2
 1532 674 1564 706 1602 706 c 0
 1642 706 1672 680 1672 635 c 2
 1667 1 l 2
 1665 -247 1575 -432 1353 -432 c 0
 1118 -432 1015 -232 1009 0 c 1
 578 4 l 2
 543 4 508 36 508 69 c 0
 508 103 521 126 547 137 c 0
 618 168 685 243 685 340 c 0
 685 465 587 563 464 563 c 0
EndSplineSet
EndChar

StartChar: ml_ee
Encoding: 3343 3343 52
Width: 2258
GlyphClass: 2
Flags: HMW
LayerCount: 2
Fore
SplineSet
1181 -5 m 1
 1187 -131 1252 -232 1376 -232 c 0
 1482 -232 1531 -151 1531 -37 c 2
 1531 -6 l 1
 1181 -5 l 1
427 67 m 0
 427 29 396 -4 357 -4 c 0
 348 -4 339 -2 330 2 c 0
 208 50 100 178 100 340 c 0
 100 547 260 706 468 706 c 0
 669 706 830 542 830 334 c 0
 830 266 809 200 765 136 c 1
 1040 135 l 1
 1040 337 l 2
 1040 732 1206 1020 1595 1020 c 0
 1875 1020 2105 828 2105 561 c 0
 2105 467 2051 364 1988 304 c 1
 2087 241 2158 125 2158 -16 c 0
 2158 -208 1988 -376 1791 -376 c 0
 1783 -376 1775 -375 1767 -375 c 0
 1724 -374 1703 -339 1703 -305 c 0
 1703 -270 1725 -235 1770 -235 c 0
 1910 -235 2018 -152 2018 -6 c 0
 2018 112 1927 205 1821 220 c 0
 1783 225 1762 257 1762 290 c 0
 1762 318 1777 345 1808 356 c 0
 1893 385 1964 471 1964 575 c 0
 1964 764 1784 879 1601 879 c 0
 1295 879 1180 660 1180 337 c 2
 1180 135 l 1
 1528 134 l 1
 1532 636 l 2
 1532 678 1568 706 1604 706 c 0
 1645 706 1673 672 1673 628 c 0
 1672 546 1670 359 1670 213 c 0
 1670 129 1672 77 1672 5 c 0
 1672 -228 1582 -370 1374 -370 c 0
 1163 -370 1050 -205 1041 -5 c 1
 570 -3 l 2
 526 -3 502 32 502 68 c 0
 502 94 515 121 545 132 c 0
 615 159 688 233 688 337 c 0
 688 464 591 565 466 565 c 0
 338 565 239 458 239 340 c 0
 239 240 306 161 382 132 c 0
 405 123 427 98 427 67 c 0
EndSplineSet
EndChar

StartChar: ml_n
Encoding: 3346 3346 54
Width: 1366
GlyphClass: 2
Flags: HMW
LayerCount: 2
Fore
SplineSet
640 298 m 0
 640 398 554 473 459 473 c 0
 352 473 278 379 278 285 c 0
 278 184 389 115 471 115 c 0
 579 115 640 207 640 298 c 0
783 290 m 0
 783 129 657 -27 466 -27 c 0
 238 -27 100 210 100 443 c 0
 100 839 409 1040 742 1040 c 0
 978 1040 1180 921 1180 700 c 0
 1180 624 1132 524 1083 511 c 1
 1172 486 1266 375 1266 255 c 0
 1266 101 1141 -29 976 -29 c 0
 909 -29 817 -9 817 59 c 0
 817 98 848 129 887 129 c 0
 917 129 947 110 975 110 c 0
 1056 110 1126 182 1126 257 c 0
 1126 353 1049 406 970 406 c 0
 915 406 872 412 872 474 c 0
 872 503 896 527 925 532 c 0
 1004 546 1040 626 1040 698 c 0
 1040 831 898 900 746 900 c 0
 519 900 242 757 242 464 c 1
 292 568 374 613 462 613 c 0
 625 613 783 484 783 290 c 0
EndSplineSet
EndChar

StartChar: k1
Encoding: 3349 3349 57
Width: 1896
GlyphClass: 2
Flags: HMW
LayerCount: 2
Fore
SplineSet
240 288 m 0
 240 197 316 122 405 122 c 0
 511 122 586 193 586 309 c 1
 569 371 562 434 562 506 c 1
 386 499 240 432 240 288 c 0
1277 509 m 1
 702 509 l 1
 702 312 792 114 988 114 c 0
 1185 114 1277 307 1277 509 c 1
723 649 m 1
 1255 649 l 1
 1218 769 1132 884 989 884 c 0
 846 884 759 768 723 649 c 1
1467 -23 m 0
 1414 -23 1373 -3 1373 49 c 0
 1373 104 1416 117 1469 117 c 0
 1568 117 1657 201 1657 304 c 0
 1657 436 1553 501 1417 509 c 1
 1417 224 1270 -24 986 -24 c 0
 851 -24 740 53 679 130 c 1
 628 48 536 -19 411 -19 c 0
 247 -19 100 115 100 275 c 0
 100 534 312 641 578 647 c 1
 621 841 757 1023 989 1023 c 0
 1220 1023 1355 843 1400 650 c 1
 1614 646 1796 525 1796 305 c 0
 1796 129 1648 -23 1467 -23 c 0
EndSplineSet
EndChar

StartChar: k2
Encoding: 3350 3350 58
Width: 1725
GlyphClass: 2
Flags: HMW
LayerCount: 2
Fore
SplineSet
488 120 m 0
 573 120 652 198 652 288 c 0
 652 385 574 462 479 462 c 0
 383 462 300 388 300 289 c 0
 300 182 411 120 488 120 c 0
1207 476 m 0
 1207 344 1153 221 1087 139 c 1
 1483 139 l 1
 1486 970 l 2
 1486 997 1526 1026 1556 1026 c 0
 1586 1026 1625 997 1625 970 c 2
 1625 69 l 2
 1625 31 1591 -1 1553 -1 c 2
 904 -1 l 2
 872 -1 831 26 831 70 c 0
 831 95 850 119 889 142 c 0
 982 198 1066 335 1066 479 c 0
 1066 701 885 884 668 884 c 0
 446 884 264 728 244 499 c 1
 293 554 373 602 475 602 c 0
 651 602 792 464 792 290 c 0
 792 121 654 -18 484 -18 c 0
 247 -18 100 213 100 452 c 0
 100 773 337 1025 658 1025 c 0
 964 1025 1207 787 1207 476 c 0
EndSplineSet
EndChar

StartChar: k3
Encoding: 3351 3351 59
Width: 1820
GlyphClass: 2
Flags: HMW
LayerCount: 2
Fore
SplineSet
1266 -22 m 0
 1240 -22 1206 14 1206 41 c 0
 1206 84 1230 110 1279 121 c 0
 1442 155 1580 324 1580 510 c 0
 1580 723 1435 883 1226 883 c 0
 1037 883 966 745 966 547 c 2
 966 455 l 2
 966 180 848 -18 577 -18 c 0
 301 -18 100 220 100 477 c 0
 100 747 258 939 455 1019 c 0
 464 1023 476 1025 490 1025 c 0
 520 1025 552 991 552 960 c 0
 552 927 531 899 508 890 c 0
 360 830 239 685 239 483 c 0
 239 300 384 120 577 120 c 0
 766 120 826 258 826 455 c 2
 826 547 l 2
 826 831 963 1024 1230 1024 c 0
 1516 1024 1720 797 1720 513 c 0
 1720 240 1522 31 1293 -20 c 0
 1288 -21 1279 -22 1266 -22 c 0
EndSplineSet
EndChar

StartChar: k4
Encoding: 3352 3352 60
Width: 2343
GlyphClass: 2
Flags: HMW
LayerCount: 2
Fore
SplineSet
1757 541 m 1
 1757 767 1665 883 1442 883 c 0
 1233 883 1146 745 1146 517 c 1
 1145 438 l 1
 1755 442 l 1
 1757 541 l 1
1439 1024 m 0
 1742 1024 1896 854 1896 539 c 1
 1893 371 l 2
 1892 334 1862 303 1824 303 c 2
 1145 298 l 1
 1145 140 l 1
 2102 140 l 1
 2103 948 l 2
 2103 986 2135 1018 2173 1018 c 0
 2203 1018 2243 989 2243 962 c 2
 2242 70 l 2
 2242 32 2210 0 2172 0 c 2
 1075 0 l 2
 1037 0 1005 32 1005 70 c 2
 1005 297 l 1
 560 294 l 2
 524 294 490 325 490 360 c 0
 490 400 514 422 547 434 c 0
 635 465 678 555 678 645 c 0
 678 756 610 881 478 881 c 0
 342 881 240 774 240 640 c 0
 240 543 302 468 374 437 c 0
 400 426 416 399 416 372 c 0
 416 339 386 302 353 302 c 0
 338 302 326 304 317 309 c 0
 200 360 100 483 100 641 c 0
 100 849 257 1020 469 1020 c 0
 664 1020 830 839 830 636 c 0
 830 567 808 500 763 435 c 1
 1005 437 l 1
 1006 517 l 1
 1006 824 1155 1024 1439 1024 c 0
EndSplineSet
EndChar

StartChar: ng
Encoding: 3353 3353 61
Width: 2048
GlyphClass: 2
Flags: HMW
LayerCount: 2
Fore
SplineSet
377 498 m 0
 319 465 282 406 282 320 c 0
 282 217 384 121 512 121 c 0
 616 121 700 245 700 329 c 0
 700 431 592 534 499 534 c 0
 461 534 421 522 377 498 c 0
1807 258 m 0
 1807 349 1704 378 1596 379 c 1
 1536 379 l 2
 1501 379 1466 410 1466 444 c 0
 1466 490 1496 519 1534 521 c 2
 1603 524 l 2
 1724 530 1797 566 1797 662 c 0
 1797 798 1657 880 1510 880 c 0
 1253 880 1145 710 1145 437 c 1
 1147 46 l 2
 1147 8 1114 -25 1076 -25 c 0
 1037 -25 1006 7 1005 45 c 2
 1002 424 l 2
 1000 684 916 879 663 879 c 0
 476 879 327 752 271 596 c 1
 336 648 406 674 480 674 c 0
 682 674 838 528 838 323 c 0
 838 129 688 -16 497 -16 c 0
 248 -16 100 210 100 445 c 0
 100 749 346 1021 650 1021 c 0
 849 1021 992 928 1073 784 c 1
 1155 929 1297 1022 1511 1022 c 0
 1737 1022 1938 879 1938 662 c 0
 1938 583 1871 473 1791 449 c 1
 1893 435 1948 342 1948 253 c 0
 1948 91 1816 -23 1655 -23 c 0
 1587 -23 1521 -2 1467 36 c 0
 1446 50 1436 68 1436 91 c 0
 1436 132 1464 166 1503 166 c 0
 1520 166 1538 160 1556 147 c 0
 1579 131 1622 118 1663 118 c 0
 1746 118 1807 193 1807 258 c 0
EndSplineSet
EndChar

StartChar: ch1
Encoding: 3354 3354 62
Width: 1523
GlyphClass: 2
Flags: HMW
LayerCount: 2
Fore
SplineSet
523 301 m 0
 523 271 488 238 458 238 c 0
 378 238 360 345 360 415 c 0
 360 589 497 744 673 744 c 0
 875 744 1037 587 1037 385 c 0
 1037 297 1007 208 951 139 c 1
 1283 140 l 1
 1283 954 l 1
 1285 994 1314 1025 1348 1025 c 0
 1391 1025 1423 996 1423 955 c 2
 1423 70 l 2
 1423 32 1391 -2 1353 -2 c 2
 106 -6 l 2
 80 -6 50 36 50 66 c 0
 50 105 82 136 121 136 c 2
 682 138 l 2
 798 138 899 257 899 375 c 0
 899 504 807 606 686 606 c 0
 577 606 501 505 501 411 c 0
 501 365 523 337 523 301 c 0
EndSplineSet
EndChar

StartChar: ch2
Encoding: 3355 3355 63
Width: 2479
GlyphClass: 2
Flags: HMW
LayerCount: 2
Fore
SplineSet
1737 415 m 0
 1737 270 1842 138 1981 138 c 0
 2139 138 2239 290 2239 445 c 0
 2239 585 2176 690 2096 767 c 1
 1884 767 1737 624 1737 415 c 0
500 416 m 0
 500 377 523 342 523 309 c 0
 523 279 488 246 458 246 c 0
 378 246 360 353 360 423 c 0
 360 607 507 753 686 753 c 0
 896 753 1038 578 1038 389 c 0
 1038 290 1006 210 946 140 c 1
 1305 140 l 1
 1242 239 1213 346 1213 452 c 0
 1213 765 1468 1029 1784 1029 c 0
 2108 1029 2379 778 2379 450 c 0
 2379 216 2224 -3 1991 -3 c 0
 1756 -3 1596 194 1596 420 c 0
 1596 648 1737 809 1906 874 c 1
 1864 886 1824 891 1784 891 c 0
 1548 891 1352 695 1352 453 c 0
 1352 313 1422 191 1502 121 c 0
 1518 107 1526 90 1526 70 c 0
 1526 30 1495 -2 1456 -2 c 2
 121 1 l 1
 120 1 l 2
 82 1 50 33 50 71 c 0
 50 101 79 144 106 142 c 2
 661 142 l 2
 794 141 897 226 897 395 c 0
 897 506 812 612 690 612 c 0
 581 612 500 530 500 416 c 0
EndSplineSet
EndChar

StartChar: ch3
Encoding: 3356 3356 64
Width: 1515
GlyphClass: 2
Flags: HMW
LayerCount: 2
Fore
SplineSet
762 880 m 1
 816 965 908 1025 1036 1025 c 0
 1242 1025 1408 871 1408 668 c 0
 1408 544 1344 447 1274 385 c 1
 1350 352 1415 278 1415 175 c 0
 1415 51 1316 -48 1192 -48 c 0
 1069 -48 969 48 969 176 c 0
 969 187 969 199 971 210 c 1
 800 122 623 -34 374 -34 c 0
 236 -34 100 47 100 192 c 0
 100 349 251 417 402 417 c 0
 563 417 714 388 854 388 c 0
 1054 388 1268 466 1268 668 c 0
 1268 792 1163 885 1036 885 c 0
 907 885 844 792 842 667 c 1
 842 496 l 1
 841 458 808 428 770 428 c 0
 731 428 701 459 701 498 c 2
 701 667 l 1
 702 788 593 885 464 885 c 0
 437 885 409 881 384 872 c 1
 484 852 565 767 565 648 c 0
 565 521 469 425 343 425 c 4
 200 425 105 543 105 682 c 0
 105 877 265 1026 462 1026 c 0
 595 1026 694 967 762 880 c 1
339 736 m 0
 290 736 254 700 254 651 c 0
 254 600 295 561 343 561 c 0
 390 561 425 599 425 647 c 0
 425 697 389 736 339 736 c 0
756 250 m 1
 633 258 520 277 406 277 c 0
 333 277 240 261 240 193 c 0
 240 130 311 106 376 106 c 0
 518 106 649 188 756 250 c 1
1191 259 m 0
 1144 259 1109 223 1109 176 c 0
 1109 128 1147 92 1192 92 c 0
 1238 92 1275 128 1275 174 c 0
 1275 221 1240 259 1191 259 c 0
EndSplineSet
EndChar

StartChar: ch4
Encoding: 3357 3357 65
Width: 3094
GlyphClass: 2
Flags: HMW
LayerCount: 2
Fore
SplineSet
891 821 m 1
 761 748 650 597 650 394 c 0
 650 250 743 111 881 111 c 0
 1025 111 1112 264 1112 412 c 0
 1112 594 1009 748 891 821 c 1
511 402 m 0
 511 615 612 779 734 882 c 1
 706 887 680 889 654 889 c 0
 417 889 240 708 240 477 c 0
 240 305 342 173 462 111 c 0
 481 102 500 75 500 48 c 0
 500 17 476 -22 442 -22 c 0
 423 -22 407 -19 397 -13 c 0
 237 70 100 246 100 476 c 0
 100 789 342 1029 655 1029 c 0
 737 1029 819 1011 895 977 c 1
 970 1007 1045 1021 1116 1021 c 0
 1431 1021 1572 807 1580 491 c 2
 1582 413 l 1
 1591 259 1607 113 1761 113 c 0
 1920 113 1952 326 1948 521 c 2
 1940 950 l 2
 1940 988 1972 1020 2010 1020 c 0
 2048 1020 2079 990 2080 953 c 2
 2088 526 l 2
 2093 282 2220 116 2467 116 c 0
 2687 116 2855 267 2855 490 c 0
 2855 710 2684 877 2467 877 c 0
 2438 877 2418 872 2386 872 c 0
 2358 872 2328 910 2328 940 c 0
 2328 1011 2401 1018 2470 1018 c 0
 2771 1018 2994 777 2994 485 c 0
 2994 187 2763 -25 2467 -25 c 0
 2282 -25 2129 64 2046 180 c 1
 1991 48 1902 -25 1756 -25 c 0
 1520 -25 1456 170 1442 404 c 1
 1440 482 l 2
 1434 721 1365 879 1118 879 c 0
 1096 879 1074 877 1051 874 c 1
 1181 755 1253 606 1253 414 c 0
 1253 185 1117 -29 881 -29 c 0
 650 -29 511 176 511 402 c 0
EndSplineSet
EndChar

StartChar: nj
Encoding: 3358 3358 66
Width: 2517
GlyphClass: 2
Flags: HMW
LayerCount: 2
Fore
SplineSet
487 498 m 0
 376 498 293 408 293 299 c 0
 293 193 378 119 479 119 c 0
 588 119 673 198 673 303 c 0
 673 405 586 498 487 498 c 0
1658 814 m 1
 1530 728 1448 583 1448 386 c 0
 1448 250 1532 112 1664 112 c 0
 1808 112 1882 251 1882 391 c 0
 1882 588 1780 735 1658 814 c 1
482 -21 m 0
 244 -21 99 210 99 445 c 0
 99 764 319 1022 637 1022 c 0
 819 1022 966 919 1039 802 c 1
 1115 933 1235 1025 1420 1025 c 0
 1497 1025 1576 1006 1658 967 c 1
 1744 1007 1819 1027 1884 1027 c 0
 2183 1027 2417 770 2417 481 c 0
 2417 274 2336 109 2176 -16 c 0
 2163 -27 2149 -31 2135 -31 c 0
 2097 -31 2063 3 2063 42 c 0
 2063 63 2073 81 2092 96 c 0
 2185 167 2276 304 2276 454 c 0
 2276 677 2126 886 1891 886 c 0
 1863 886 1835 882 1806 876 c 1
 1936 758 2021 603 2021 390 c 0
 2021 170 1890 -26 1666 -26 c 0
 1438 -26 1309 176 1309 401 c 0
 1309 605 1383 758 1511 876 c 1
 1479 884 1449 887 1420 887 c 0
 1169 887 1114 686 1114 480 c 2
 1115 38 l 2
 1115 5 1084 -34 1043 -34 c 0
 1005 -34 975 7 975 38 c 2
 973 476 l 1
 971 728 870 883 644 883 c 0
 394 883 266 695 230 466 c 1
 280 560 375 621 513 621 c 0
 689 621 813 465 813 304 c 0
 813 124 664 -21 482 -21 c 0
EndSplineSet
EndChar

StartChar: t1
Encoding: 3359 3359 67
Width: 1135
GlyphClass: 2
Flags: HMW
LayerCount: 2
Fore
SplineSet
1035 284 m 0
 1035 64 812 -29 589 -29 c 0
 393 -29 237 33 120 157 c 0
 107 170 100 187 100 206 c 0
 100 245 132 276 171 276 c 0
 191 276 208 268 222 253 c 0
 312 158 434 111 590 111 c 0
 742 111 896 158 896 288 c 0
 896 421 747 446 574 446 c 0
 298 447 113 527 113 740 c 0
 113 920 314 1037 549 1037 c 0
 735 1037 877 973 976 844 c 0
 986 831 991 816 991 798 c 0
 991 760 957 731 918 731 c 0
 897 731 879 740 865 759 c 0
 794 851 687 897 543 897 c 0
 402 897 253 841 253 736 c 0
 253 607 412 589 561 587 c 0
 838 583 1035 509 1035 284 c 0
EndSplineSet
EndChar

StartChar: t2
Encoding: 3360 3360 68
Width: 1238
GlyphClass: 2
Flags: HMW
LayerCount: 2
Fore
SplineSet
618 124 m 0
 838 124 998 298 998 502 c 0
 998 704 838 881 621 881 c 0
 400 881 240 711 240 504 c 0
 240 289 405 124 618 124 c 0
100 499 m 0
 100 799 320 1021 622 1021 c 0
 915 1021 1138 796 1138 503 c 0
 1138 219 904 -16 620 -16 c 0
 326 -16 100 206 100 499 c 0
EndSplineSet
EndChar

StartChar: t4
Encoding: 3362 3362 70
Width: 2554
GlyphClass: 2
Flags: HMW
LayerCount: 2
Fore
SplineSet
1871 684 m 0
 1871 571 1963 483 2072 483 c 0
 2190 483 2281 578 2281 691 c 0
 2281 813 2166 885 2078 885 c 0
 1959 885 1871 808 1871 684 c 0
911 375 m 0
 911 431 916 492 916 543 c 0
 916 735 804 882 612 882 c 0
 399 882 240 695 240 485 c 0
 240 259 407 115 634 115 c 0
 661 115 691 75 691 45 c 0
 691 0 654 -25 608 -25 c 0
 319 -25 100 194 100 483 c 0
 100 776 335 1022 607 1022 c 0
 885 1022 1056 817 1056 537 c 0
 1056 491 1052 434 1052 394 c 0
 1052 242 1072 115 1202 115 c 0
 1387 115 1416 350 1417 558 c 1
 1417 963 l 1
 1418 1003 1447 1032 1493 1032 c 0
 1527 1032 1557 997 1557 962 c 2
 1557 555 l 1
 1551 289 1652 109 1902 109 c 4
 2098 109 2236 287 2295 433 c 1
 2238 367 2138 342 2076 342 c 0
 1874 343 1732 505 1732 688 c 0
 1732 868 1886 1027 2075 1027 c 0
 2302 1027 2454 833 2454 603 c 0
 2454 267 2234 -31 1901 -31 c 0
 1712 -31 1574 58 1495 183 c 1
 1444 77 1346 -24 1187 -24 c 0
 990 -24 911 181 911 375 c 0
EndSplineSet
EndChar

StartChar: nh
Encoding: 3363 3363 71
Width: 2764
GlyphClass: 2
Flags: HMW
LayerCount: 2
Fore
SplineSet
487 118 m 0
 586 118 665 192 665 290 c 0
 665 384 583 464 490 464 c 0
 397 464 317 383 317 287 c 0
 317 192 397 118 487 118 c 0
2146 -24 m 0
 2079 -24 2013 -16 2013 52 c 0
 2013 82 2043 121 2071 121 c 0
 2098 121 2113 117 2138 117 c 0
 2342 117 2525 284 2525 496 c 0
 2525 730 2344 886 2137 886 c 0
 1879 886 1803 688 1803 419 c 2
 1803 44 l 2
 1803 3 1776 -24 1727 -24 c 0
 1695 -24 1665 10 1664 43 c 2
 1661 419 l 2
 1659 683 1598 888 1395 888 c 0
 1175 888 1131 655 1131 419 c 2
 1131 44 l 2
 1131 9 1101 -24 1067 -24 c 0
 1022 -24 993 4 992 43 c 2
 989 419 l 2
 987 690 905 894 643 894 c 0
 412 894 257 699 241 479 c 1
 293 548 387 603 490 603 c 0
 665 603 806 456 806 291 c 0
 806 117 667 -24 489 -24 c 0
 249 -24 100 193 100 446 c 0
 100 756 318 1030 641 1030 c 0
 833 1030 975 930 1051 796 c 1
 1108 911 1231 1030 1393 1030 c 0
 1564 1030 1678 916 1737 797 c 1
 1809 922 1948 1030 2132 1030 c 0
 2439 1030 2664 804 2664 500 c 0
 2664 208 2427 -24 2146 -24 c 0
EndSplineSet
EndChar

StartChar: th1
Encoding: 3364 3364 72
Width: 1791
GlyphClass: 2
Flags: HMW
LayerCount: 2
Fore
SplineSet
893 814 m 1
 778 740 673 601 673 406 c 0
 673 265 751 119 894 119 c 0
 1046 120 1115 232 1115 404 c 0
 1115 600 1009 740 893 814 c 1
542 40 m 0
 542 10 509 -26 480 -26 c 0
 466 -26 455 -24 446 -21 c 0
 257 53 100 234 100 489 c 0
 100 798 347 1026 657 1026 c 0
 736 1026 816 1010 891 974 c 1
 892 974 l 1
 971 1010 1055 1026 1136 1026 c 0
 1444 1026 1691 796 1691 488 c 0
 1691 235 1540 58 1356 -19 c 0
 1347 -23 1336 -25 1322 -25 c 0
 1292 -25 1259 10 1259 40 c 0
 1259 72 1279 101 1302 110 c 0
 1433 164 1552 304 1552 478 c 0
 1552 708 1376 888 1141 888 c 0
 1109 888 1076 884 1041 877 c 1
 1171 762 1254 611 1254 404 c 0
 1254 185 1119 -18 895 -18 c 0
 671 -18 533 187 533 405 c 0
 533 609 618 764 744 876 c 1
 710 883 677 887 645 887 c 0
 417 887 239 711 239 481 c 0
 239 306 361 162 497 110 c 0
 521 101 542 73 542 40 c 0
EndSplineSet
EndChar

StartChar: th2
Encoding: 3365 3365 73
Width: 1549
GlyphClass: 2
Flags: HMW
LayerCount: 2
Fore
SplineSet
1309 495 m 2
 1311 721 1205 883 981 883 c 0
 719 883 656 667 658 396 c 2
 660 141 l 1
 1306 141 l 1
 1309 495 l 2
100 949 m 2
 100 988 127 1026 172 1026 c 0
 205 1026 240 995 240 962 c 2
 245 142 l 1
 520 141 l 1
 516 475 l 2
 512 786 682 1024 974 1024 c 0
 1251 1024 1443 828 1445 575 c 2
 1449 86 l 2
 1449 39 1421 1 1383 1 c 2
 186 1 l 2
 146 1 107 27 106 64 c 2
 100 949 l 2
EndSplineSet
EndChar

StartChar: th3
Encoding: 3366 3366 74
Width: 1206
GlyphClass: 2
Flags: HMW
LayerCount: 2
Fore
SplineSet
981 472 m 1
 1061 422 1106 348 1106 237 c 0
 1106 82 966 -37 811 -37 c 0
 755 -37 700 -20 646 14 c 0
 624 28 614 46 614 68 c 0
 614 108 642 142 680 142 c 0
 697 142 714 137 731 126 c 0
 751 113 782 104 817 104 c 0
 889 104 965 162 965 243 c 0
 965 346 888 379 769 381 c 1
 736 382 l 2
 699 383 668 413 668 450 c 0
 668 484 696 518 726 521 c 2
 754 524 l 1
 855 533 931 585 931 685 c 0
 931 817 809 883 670 883 c 0
 420 883 241 657 241 402 c 0
 241 277 284 161 347 81 c 0
 357 68 362 54 362 36 c 0
 362 -2 329 -32 289 -32 c 0
 268 -32 250 -23 236 -4 c 0
 155 102 100 242 100 398 c 0
 100 739 340 1024 679 1024 c 0
 878 1024 1071 901 1071 687 c 0
 1071 608 1040 530 981 472 c 1
EndSplineSet
EndChar

StartChar: th4
Encoding: 3367 3367 75
Width: 1910
GlyphClass: 2
Flags: HMW
LayerCount: 2
Fore
SplineSet
1256 882 m 0
 1229 882 1200 922 1200 952 c 0
 1200 994 1234 1022 1276 1022 c 0
 1569 1022 1810 780 1810 489 c 0
 1810 202 1600 -19 1317 -19 c 0
 1150 -19 1015 73 946 187 c 1
 875 68 749 -22 572 -22 c 0
 299 -22 100 204 100 478 c 0
 100 758 327 1021 600 1021 c 0
 638 1021 671 992 671 952 c 0
 671 915 642 885 608 882 c 0
 410 861 241 699 241 480 c 0
 241 279 376 118 578 118 c 0
 750 118 875 253 876 432 c 2
 879 953 l 2
 880 987 909 1022 943 1022 c 0
 988 1022 1018 991 1019 952 c 1
 1016 431 l 2
 1015 259 1135 117 1319 117 c 0
 1530 117 1667 296 1667 493 c 0
 1667 718 1490 882 1256 882 c 0
EndSplineSet
EndChar

StartChar: n1
Encoding: 3368 3368 76
Width: 1910
GlyphClass: 2
Flags: HMW
LayerCount: 2
Fore
SplineSet
1298 -21 m 0
 1273 -21 1240 17 1240 43 c 0
 1240 87 1268 115 1304 118 c 0
 1507 139 1670 314 1670 520 c 0
 1670 719 1539 882 1338 882 c 0
 1114 882 1040 727 1037 463 c 2
 1033 47 l 2
 1032 10 1000 -22 962 -22 c 0
 924 -22 892 11 892 48 c 2
 892 461 l 2
 892 717 833 881 591 881 c 0
 381 881 242 709 242 497 c 0
 242 275 442 108 654 108 c 0
 704 108 711 85 711 54 c 0
 711 7 680 -21 636 -21 c 0
 336 -21 100 216 100 525 c 0
 100 783 316 1021 589 1021 c 0
 761 1021 893 933 965 813 c 1
 1034 928 1166 1022 1333 1022 c 0
 1613 1022 1810 794 1810 522 c 0
 1810 255 1583 -21 1298 -21 c 0
EndSplineSet
EndChar

StartChar: p1
Encoding: 3370 3370 77
Width: 1671
GlyphClass: 2
Flags: HMW
LayerCount: 2
Fore
SplineSet
455 549 m 0
 334 549 239 446 239 331 c 0
 239 240 303 157 368 133 c 0
 408 118 429 98 429 72 c 0
 429 30 403 -8 367 -8 c 0
 353 -8 342 -7 334 -4 c 0
 209 41 100 167 100 329 c 0
 100 530 257 689 455 689 c 0
 657 689 815 520 815 331 c 0
 815 267 797 202 756 139 c 1
 1430 139 l 1
 1430 970 l 2
 1430 996 1469 1025 1499 1025 c 0
 1529 1025 1570 996 1570 970 c 2
 1570 70 l 2
 1570 32 1539 0 1501 0 c 2
 572 -1 l 2
 538 -1 503 31 503 62 c 0
 503 110 521 123 568 144 c 0
 622 168 673 250 673 335 c 0
 673 456 574 549 455 549 c 0
EndSplineSet
EndChar

StartChar: p2
Encoding: 3371 3371 78
Width: 2111
GlyphClass: 2
Flags: HMW
LayerCount: 2
Fore
SplineSet
1539 888 m 4
 1249 888 1204 740 1202 441 c 5
 1202 140 l 5
 1870 140 l 5
 1870 474 l 6
 1870 748 1778 888 1539 888 c 4
1519 1025 m 4
 1870 1025 2011 843 2011 473 c 5
 2008 71 l 6
 2008 36 1980 -1 1941 -1 c 6
 580 3 l 6
 546 3 510 32 510 70 c 4
 510 103 529 127 551 137 c 4
 618 168 679 241 679 334 c 4
 679 459 582 555 459 555 c 4
 337 555 239 450 239 334 c 4
 239 233 310 155 389 128 c 4
 414 120 438 95 438 63 c 4
 438 24 407 -9 368 -9 c 4
 360 -9 352 -7 344 -4 c 4
 215 40 100 168 100 333 c 4
 100 535 259 695 458 695 c 4
 661 695 821 525 821 335 c 4
 821 271 803 205 762 142 c 5
 1062 142 l 5
 1062 441 l 6
 1062 798 1168 1025 1519 1025 c 4
EndSplineSet
EndChar

StartChar: p3
Encoding: 3372 3372 79
Width: 2486
GlyphClass: 2
Flags: HMW
LayerCount: 2
Fore
SplineSet
473 496 m 0
 374 496 283 412 283 303 c 0
 283 190 384 121 485 121 c 0
 584 121 669 204 669 299 c 0
 669 415 576 496 473 496 c 0
1472 0 m 2
 1435 0 1403 31 1403 67 c 0
 1403 110 1429 135 1483 142 c 0
 1657 164 1802 337 1802 522 c 0
 1802 732 1654 889 1443 889 c 0
 1208 889 1141 672 1141 411 c 2
 1141 47 l 2
 1141 9 1109 -22 1071 -22 c 0
 1034 -22 1000 10 1000 47 c 2
 1000 412 l 2
 1000 685 903 888 647 888 c 0
 429 888 257 680 249 466 c 1
 283 570 382 635 489 635 c 0
 655 635 811 492 811 312 c 0
 811 130 673 -22 489 -22 c 0
 254 -22 100 187 100 409 c 0
 100 737 313 1028 637 1028 c 0
 837 1028 990 939 1070 795 c 1
 1143 928 1255 1027 1442 1027 c 0
 1715 1027 1942 820 1942 531 c 0
 1942 367 1881 238 1774 138 c 1
 2246 138 l 1
 2246 952 l 2
 2246 991 2281 1025 2317 1025 c 0
 2359 1025 2386 983 2386 952 c 2
 2386 67 l 2
 2386 29 2354 -3 2316 -3 c 2
 1472 0 l 2
EndSplineSet
EndChar

StartChar: p4
Encoding: 3373 3373 80
Width: 1335
GlyphClass: 2
Flags: HMW
LayerCount: 2
Fore
SplineSet
1095 725 m 0
 1095 837 916 890 761 890 c 0
 478 890 240 709 240 431 c 0
 240 301 299 178 393 99 c 0
 410 85 419 68 419 47 c 0
 419 8 388 -25 350 -25 c 0
 332 -25 316 -19 303 -8 c 0
 176 99 100 236 100 434 c 0
 100 799 398 1028 767 1028 c 0
 994 1028 1235 945 1235 722 c 0
 1235 593 1124 512 1000 512 c 0
 910 512 821 556 728 556 c 0
 674 556 619 529 619 483 c 0
 619 416 701 398 772 398 c 0
 822 398 884 406 934 406 c 0
 1088 406 1230 344 1230 190 c 0
 1230 23 1069 -29 892 -29 c 0
 812 -29 706 -29 573 -15 c 0
 535 -11 509 16 509 63 c 0
 509 88 542 126 566 126 c 0
 626 123 759 112 877 112 c 0
 992 112 1091 128 1091 187 c 0
 1091 248 1021 267 942 267 c 0
 885 267 799 257 766 257 c 0
 611 257 478 335 478 480 c 0
 478 618 602 698 734 698 c 0
 824 698 921 654 1001 654 c 0
 1055 654 1095 675 1095 725 c 0
EndSplineSet
EndChar

StartChar: m1
Encoding: 3374 3374 81
Width: 1398
GlyphClass: 2
Flags: HMW
LayerCount: 2
Fore
SplineSet
931 823 m 1
 951 774 961 724 961 672 c 0
 961 434 782 235 635 133 c 1
 1156 133 l 1
 1156 447 l 1
 1157 612 1055 750 931 823 c 1
638 882 m 0
 420 882 240 684 240 446 c 2
 240 133 l 1
 509 133 818 406 818 675 c 0
 818 800 747 882 638 882 c 0
170 -7 m 2
 132 -7 100 25 100 63 c 2
 100 449 l 2
 100 765 369 1023 677 1023 c 0
 1042 1023 1299 767 1297 411 c 1
 1297 63 l 2
 1297 25 1264 -7 1226 -7 c 2
 170 -7 l 2
EndSplineSet
EndChar

StartChar: y1
Encoding: 3375 3375 82
Width: 1915
GlyphClass: 2
Flags: HMW
LayerCount: 2
Fore
SplineSet
770 571 m 4
 770 401 880 248 994 179 c 1
 1126 253 1242 404 1242 606 c 0
 1242 748 1160 888 1026 888 c 0
 869 888 770 745 770 571 c 4
447 890 m 0
 310 890 241 775 241 633 c 0
 241 349 464 114 749 114 c 0
 778 114 807 117 836 122 c 1
 709 235 632 371 632 613 c 0
 632 729 566 890 447 890 c 0
440 1025 m 0
 557 1025 658 950 712 853 c 1
 779 955 879 1028 1025 1028 c 0
 1238 1028 1383 834 1383 615 c 0
 1383 400 1289 234 1153 120 c 1
 1181 115 1208 113 1234 113 c 0
 1483 113 1673 323 1673 563 c 0
 1673 705 1602 830 1521 901 c 0
 1505 915 1497 932 1497 952 c 0
 1497 991 1528 1024 1566 1024 c 0
 1585 1024 1601 1018 1614 1006 c 0
 1718 914 1815 753 1815 575 c 0
 1815 235 1569 -28 1227 -28 c 0
 1148 -28 1070 -11 992 23 c 1
 908 -12 824 -28 745 -28 c 0
 395 -28 100 274 100 636 c 0
 100 847 221 1025 440 1025 c 0
EndSplineSet
EndChar

StartChar: r3
Encoding: 3376 3376 83
Width: 1453
GlyphClass: 2
Flags: HMW
LayerCount: 2
Fore
SplineSet
926 111 m 0
 1072 111 1194 232 1194 378 c 0
 1194 524 1072 645 926 645 c 0
 780 645 660 524 660 378 c 0
 660 232 780 111 926 111 c 0
459 50 m 0
 459 15 435 -20 390 -20 c 0
 377 -20 364 -17 353 -9 c 0
 218 76 100 239 100 444 c 0
 100 796 381 1026 725 1026 c 0
 1090 1026 1353 765 1353 437 c 0
 1353 193 1172 -26 916 -26 c 0
 683 -26 520 164 520 376 c 0
 520 576 690 785 918 785 c 0
 966 785 1016 775 1067 756 c 1
 973 841 863 884 732 884 c 0
 465 884 239 710 239 445 c 0
 239 293 327 172 427 109 c 0
 449 96 459 73 459 50 c 0
EndSplineSet
EndChar

StartChar: rh
Encoding: 3377 3377 84
Width: 1328
GlyphClass: 2
Flags: HMW
LayerCount: 2
Fore
SplineSet
668 883 m 0
 436 883 240 709 240 479 c 0
 240 296 364 158 512 116 c 0
 539 108 563 80 563 46 c 0
 563 16 531 -22 503 -22 c 0
 468 -22 418 -3 352 34 c 0
 212 114 100 288 100 480 c 0
 100 783 348 1024 669 1024 c 0
 992 1024 1228 768 1228 485 c 0
 1228 258 1041 -22 827 -22 c 4
 791 -22 758 8 758 41 c 0
 758 82 781 108 828 121 c 0
 971 158 1088 309 1088 481 c 0
 1088 704 893 883 668 883 c 0
EndSplineSet
EndChar

StartChar: l3
Encoding: 3378 3378 85
Width: 1646
GlyphClass: 2
Flags: HMW
LayerCount: 2
Fore
SplineSet
590 883 m 0
 371 883 258 716 243 504 c 1
 941 504 l 1
 941 715 801 883 590 883 c 0
170 -0 m 2
 132 0 100 31 100 69 c 2
 100 387 l 2
 100 742 238 1022 585 1022 c 0
 868 1022 1083 813 1083 530 c 0
 1083 462 1076 364 1002 364 c 2
 240 364 l 1
 240 140 l 1
 1406 140 l 1
 1406 960 l 2
 1406 999 1445 1025 1475 1025 c 0
 1513 1025 1546 998 1546 960 c 2
 1546 71 l 2
 1546 33 1519 0 1477 -0 c 2
 170 -0 l 2
EndSplineSet
EndChar

StartChar: lh
Encoding: 3379 3379 86
Width: 1273
GlyphClass: 2
Flags: HMW
LayerCount: 2
Fore
SplineSet
386 617 m 0
 318 617 254 572 254 492 c 0
 254 406 337 360 402 360 c 0
 464 360 523 420 523 484 c 0
 523 555 458 617 386 617 c 0
241 -85 m 0
 241 -147 291 -170 383 -170 c 2
 1092 -170 l 2
 1131 -170 1163 -201 1163 -240 c 0
 1163 -279 1131 -310 1092 -310 c 2
 384 -310 l 2
 214 -310 100 -235 100 -85 c 0
 100 78 230 144 398 144 c 2
 780 144 l 2
 928 144 1037 180 1037 289 c 0
 1037 399 948 414 824 421 c 0
 782 423 749 449 749 490 c 0
 749 529 781 561 820 561 c 0
 936 561 1006 580 1006 674 c 0
 1006 818 845 885 694 885 c 0
 530 885 371 866 293 712 c 1
 334 751 369 757 390 757 c 0
 542 757 661 634 661 484 c 0
 661 333 545 220 393 220 c 0
 218 220 102 382 102 546 c 0
 102 857 381 1025 687 1025 c 0
 916 1025 1144 909 1144 681 c 0
 1144 616 1097 526 1038 496 c 1
 1108 457 1173 379 1173 278 c 0
 1173 72 989 4 780 4 c 2
 397 4 l 2
 301 4 241 -15 241 -85 c 0
EndSplineSet
EndChar

StartChar: zh
Encoding: 3380 3380 87
Width: 1269
GlyphClass: 2
Flags: HMW
LayerCount: 2
Fore
SplineSet
663 420 m 5
 596 484 500 581 500 714 c 4
 500 879 647 1026 825 1026 c 4
 1007 1026 1169 875 1169 684 c 4
 1169 508 1037 381 911 327 c 5
 923 298 934 257 934 220 c 4
 934 58 784 -52 605 -52 c 4
 485 -52 368 -3 283 80 c 4
 271 91 261 114 261 131 c 4
 261 170 292 201 331 201 c 4
 347 201 370 191 381 180 c 4
 441 121 526 90 608 90 c 4
 706 90 792 138 792 226 c 4
 792 251 784 271 775 289 c 5
 738 283 700 280 663 280 c 4
 411 280 100 414 100 722 c 4
 100 827 144 932 227 1004 c 4
 238 1014 258 1022 273 1022 c 4
 312 1022 343 991 343 952 c 4
 343 934 332 910 318 898 c 4
 268 854 243 789 243 723 c 4
 243 506 468 420 663 420 c 5
1028 684 m 4
 1028 801 934 883 825 883 c 4
 723 883 644 810 644 713 c 4
 644 591 763 527 833 448 c 5
 928 482 1028 558 1028 684 c 4
EndSplineSet
EndChar

StartChar: v1
Encoding: 3381 3381 88
Width: 1718
GlyphClass: 2
Flags: HMW
LayerCount: 2
Fore
SplineSet
1478 962 m 2
 1478 996 1516 1024 1544 1024 c 0
 1579 1024 1618 997 1618 968 c 2
 1618 63 l 2
 1618 25 1586 -7 1548 -7 c 2
 826 -4 l 2
 788 -4 756 24 756 69 c 0
 756 96 781 123 802 131 c 0
 941 182 1050 314 1050 498 c 0
 1050 749 852 876 652 876 c 0
 448 876 241 745 241 499 c 0
 241 304 389 150 567 130 c 0
 601 126 630 95 630 58 c 0
 630 28 600 -10 573 -10 c 0
 304 -10 100 243 100 496 c 0
 100 799 352 1024 637 1024 c 0
 944 1024 1191 789 1191 483 c 0
 1191 351 1145 235 1053 135 c 1
 1478 134 l 1
 1478 962 l 2
EndSplineSet
EndChar

StartChar: z1
Encoding: 3382 3382 89
Width: 1909
GlyphClass: 2
Flags: HMW
LayerCount: 2
Fore
SplineSet
1553 745 m 1
 1384 711 1235 566 1235 364 c 0
 1235 233 1309 118 1438 118 c 0
 1589 118 1671 275 1671 418 c 0
 1671 542 1618 667 1553 745 c 1
1810 406 m 0
 1810 182 1659 -24 1441 -24 c 0
 1237 -24 1093 151 1093 362 c 0
 1093 595 1248 775 1422 850 c 1
 1369 876 1313 890 1258 890 c 0
 1059 890 946 747 946 547 c 0
 946 490 948 427 948 404 c 0
 948 176 797 -23 558 -23 c 0
 282 -23 100 236 100 515 c 0
 100 770 250 944 416 1030 c 0
 426 1035 439 1038 455 1038 c 0
 487 1038 520 1005 520 973 c 0
 520 940 507 918 481 905 c 0
 348 837 241 706 241 513 c 0
 241 317 363 116 555 116 c 0
 750 116 808 263 808 473 c 0
 808 801 936 1029 1245 1029 c 0
 1584 1029 1810 737 1810 406 c 0
EndSplineSet
EndChar

StartChar: sh
Encoding: 3383 3383 90
Width: 1928
GlyphClass: 2
Flags: HMW
LayerCount: 2
Fore
SplineSet
1688 635 m 1
 1605 529 1499 454 1372 409 c 1
 1372 138 l 1
 1688 138 l 1
 1688 635 l 1
1084 886 m 0
 986 886 901 815 901 721 c 0
 901 590 1027 512 1166 512 c 0
 1188 512 1210 513 1234 517 c 1
 1234 703 l 2
 1234 829 1194 886 1084 886 c 0
432 498 m 0
 326 498 240 410 240 308 c 0
 240 230 292 159 346 136 c 0
 381 121 398 101 398 76 c 0
 398 35 372 -2 335 -2 c 0
 320 -2 309 0 300 4 c 0
 194 49 100 161 100 304 c 0
 100 493 246 638 433 638 c 0
 616 638 763 483 763 307 c 0
 763 251 748 194 715 138 c 1
 1232 138 l 1
 1232 376 l 1
 1208 373 1187 372 1165 372 c 0
 949 372 760 510 760 718 c 0
 760 898 908 1027 1082 1027 c 0
 1278 1027 1374 892 1374 702 c 2
 1374 561 l 1
 1514 626 1653 766 1683 934 c 0
 1692 983 1705 1027 1751 1027 c 0
 1799 1027 1828 999 1828 957 c 2
 1828 68 l 2
 1828 30 1796 -2 1758 -2 c 2
 534 -2 l 2
 497 -2 465 27 465 68 c 0
 465 99 486 124 506 132 c 0
 567 158 622 223 622 306 c 0
 622 414 538 498 432 498 c 0
EndSplineSet
EndChar

StartChar: s1
Encoding: 3384 3384 91
Width: 2478
GlyphClass: 2
Flags: HMW
LayerCount: 2
Fore
SplineSet
987 823 m 1
 1039 927 1138 1025 1280 1025 c 0
 1516 1025 1604 808 1604 571 c 2
 1604 480 l 2
 1604 269 1690 119 1890 119 c 0
 2104 119 2236 314 2236 498 c 0
 2236 724 2048 876 1856 885 c 0
 1819 886 1788 918 1788 955 c 0
 1788 994 1819 1025 1858 1025 c 0
 2126 1025 2378 797 2378 492 c 0
 2378 240 2185 -23 1886 -23 c 0
 1628 -23 1459 196 1459 468 c 0
 1459 522 1463 574 1463 622 c 0
 1463 751 1407 885 1280 885 c 0
 1097 885 1074 686 1072 500 c 2
 1068 41 l 2
 1067 3 1036 -28 998 -28 c 0
 960 -28 928 4 928 42 c 2
 928 512 l 2
 928 733 811 884 603 884 c 0
 382 884 241 695 241 506 c 0
 241 274 441 113 641 113 c 0
 663 113 685 119 707 119 c 0
 746 119 777 88 777 49 c 0
 777 -18 706 -27 638 -27 c 0
 364 -27 100 192 100 512 c 0
 100 772 302 1026 610 1026 c 0
 764 1026 909 952 987 823 c 1
EndSplineSet
EndChar

StartChar: h1
Encoding: 3385 3385 92
Width: 2151
GlyphClass: 2
Flags: HMW
LayerCount: 2
Fore
SplineSet
1911 467 m 0
 1911 700 1761 880 1540 880 c 0
 1328 880 1166 716 1166 501 c 0
 1166 313 1299 169 1458 135 c 0
 1487 129 1513 99 1513 64 c 0
 1513 28 1480 -3 1443 -3 c 2
 574 0 l 2
 538 0 505 31 505 65 c 0
 505 99 519 122 546 134 c 0
 616 165 677 237 677 332 c 0
 677 458 583 550 459 550 c 0
 336 550 240 457 240 332 c 0
 240 233 310 154 384 128 c 0
 407 120 431 93 431 63 c 0
 431 20 399 -8 361 -8 c 0
 352 -8 344 -7 336 -4 c 0
 211 42 98 163 98 331 c 0
 98 530 255 695 455 695 c 0
 662 695 817 533 817 330 c 0
 817 262 798 198 759 138 c 1
 1174 138 l 1
 1077 237 1027 344 1027 510 c 0
 1027 799 1253 1020 1541 1020 c 0
 1827 1020 2051 781 2051 490 c 0
 2051 242 1906 81 1724 -2 c 0
 1715 -6 1704 -8 1689 -8 c 0
 1659 -8 1626 27 1626 58 c 0
 1626 91 1647 118 1671 127 c 0
 1792 177 1911 309 1911 467 c 0
EndSplineSet
EndChar

StartChar: avagraha
Encoding: 3389 3389 93
Width: 1482
GlyphClass: 2
Flags: HMW
LayerCount: 2
Fore
SplineSet
1140.74316406 1434.27832031 m 0
 1300.56152344 1434.27832031 1413.71386719 1334.90332031 1459.16992188 1216.21484375 c 0
 1471.85351562 1183.09765625 1482.37792969 1135.70605469 1482.37792969 1092.14453125 c 0
 1482.37792969 1033.16894531 1463.08691406 981.21484375 1403.74511719 981.21484375 c 0
 1362.34082031 981.21484375 1328.73730469 1014.81738281 1328.73730469 1056.22167969 c 0
 1328.73730469 1059.49023438 1329.15332031 1064.76269531 1329.66601562 1067.99023438 c 0
 1331.12207031 1078.09667969 1331.82128906 1087.97460938 1331.82128906 1097.59570312 c 0
 1331.82128906 1204.75097656 1247.25683594 1284.47753906 1138.68554688 1284.47753906 c 0
 1039.77539062 1284.47753906 974.642578125 1208.76855469 939.46875 1137.24609375 c 0
 907.290039062 1071.80957031 893.08984375 991.786132812 880.091796875 905.728515625 c 2
 725.63671875 -116.94921875 l 2
 691.240234375 -344.698242188 604.609375 -593.555664062 336.536132812 -593.555664062 c 0
 143.21875 -593.555664062 0 -447.767578125 0 -250.614257812 c 0
 0 -181.4296875 21.2001953125 -116.818359375 84.0576171875 -116.818359375 c 0
 125.461914062 -116.818359375 159.065429688 -150.421875 159.065429688 -191.826171875 c 0
 159.065429688 -214.178710938 150.140625 -237.80859375 150.140625 -259.358398438 c 0
 150.140625 -364.728515625 233.79296875 -443.172851562 335.966796875 -443.172851562 c 0
 512.72265625 -443.172851562 553.076171875 -255.072265625 577.318359375 -94.548828125 c 2
 731.7734375 928.12890625 l 2
 744.96484375 1015.46875 759.65625 1111.51269531 804.86328125 1203.44140625 c 0
 861.541992188 1318.69628906 971.080078125 1434.27832031 1140.74316406 1434.27832031 c 0
EndSplineSet
EndChar

StartChar: a2
Encoding: 3390 3390 94
Width: 1001
GlyphClass: 2
Flags: HMW
LayerCount: 2
Fore
SplineSet
460 119 m 0
 646 119 761 311 761 502 c 0
 761 697 651 884 461 884 c 0
 350 884 259 775 249 670 c 0
 246 635 216 606 178 606 c 0
 148 606 109 636 109 663 c 0
 109 866 284 1024 474 1024 c 0
 742 1024 901 766 901 503 c 0
 901 229 722 -21 461 -21 c 0
 265 -21 100 140 100 340 c 0
 100 365 137 397 164 397 c 0
 209 397 238 368 240 331 c 0
 248 217 340 119 460 119 c 0
EndSplineSet
EndChar

StartChar: i1
Encoding: 3391 3391 95
Width: 341
GlyphClass: 2
Flags: HMW
LayerCount: 2
Fore
SplineSet
-155 1412 m 0
 130 1412 241 1174 241 896 c 2
 241 46 l 2
 241 8 210 -24 172 -24 c 0
 134 -24 101 8 101 46 c 2
 101 895 l 2
 101 1104 43 1271 -159 1271 c 0
 -273 1271 -360 1196 -392 1109 c 0
 -401 1078 -430 1062 -466 1062 c 0
 -493 1062 -525 1097 -525 1124 c 0
 -525 1289 -323 1412 -155 1412 c 0
EndSplineSet
EndChar

StartChar: i2
Encoding: 3392 3392 96
Width: 397
GlyphClass: 2
Flags: HMW
LayerCount: 2
Fore
SplineSet
-185 1300 m 0
 -236 1300 -278 1262 -278 1201 c 0
 -278 1147 -230 1110 -185 1110 c 0
 -141 1110 -96 1145 -96 1201 c 0
 -96 1262 -133 1300 -185 1300 c 0
6 1207 m 0
 6 1098 -84 1012 -194 1012 c 0
 -293 1012 -380 1103 -380 1200 c 0
 -380 1346 -248 1421 -102 1421 c 0
 163 1421 297 1273 297 1003 c 2
 294 43 l 2
 294 -2 259 -25 224 -25 c 0
 189 -25 154 -2 154 44 c 2
 157 1003 l 2
 157 1158 118 1270 -7 1273 c 1
 6 1245 6 1227 6 1207 c 0
EndSplineSet
EndChar

StartChar: u1
Encoding: 3393 3393 97
Width: 794
GlyphClass: 2
Flags: HMW
LayerCount: 2
Fore
SplineSet
241 -253 m 4
 241 -339 309 -412 396 -412 c 4
 486 -412 554 -348 554 -255 c 4
 554 -166 473 -91 392 -91 c 4
 302 -91 241 -169 241 -253 c 4
399 -552 m 4
 227 -552 101 -413 101 -256 c 4
 101 -137 175 -38 262 8 c 5
 334 141 464 389 464 577 c 4
 464 742 379 863 251 888 c 4
 220 894 194 923 194 959 c 4
 194 989 225 1026 253 1026 c 4
 462 1026 603 798 603 587 c 4
 603 441 547 260 436 38 c 5
 577 19 694 -97 694 -257 c 4
 694 -425 564 -552 399 -552 c 4
EndSplineSet
EndChar

StartChar: u2
Encoding: 3394 3394 98
Width: 974
GlyphClass: 2
Flags: HMW
LayerCount: 2
Fore
SplineSet
597 -294 m 4
 597 -192 514 -114 419 -114 c 4
 325 -114 239 -206 239 -299 c 4
 239 -395 330 -467 419 -467 c 4
 513 -467 597 -392 597 -294 c 4
415 -606 m 4
 235 -606 102 -460 102 -288 c 4
 102 -171 167 -67 259 -13 c 5
 325 136 464 395 464 552 c 4
 464 715 399 858 267 883 c 4
 218 893 193 917 193 955 c 4
 193 988 223 1025 253 1025 c 4
 477 1025 604 787 604 552 c 4
 604 417 517 215 447 62 c 5
 469 65 491 67 513 67 c 4
 770 67 974 -155 974 -416 c 4
 974 -694 757 -922 464 -922 c 4
 357 -922 261 -891 174 -829 c 4
 154 -815 145 -793 145 -772 c 4
 145 -736 170 -701 210 -701 c 4
 227 -701 249 -710 275 -729 c 4
 314 -757 396 -781 474 -781 c 4
 679 -781 834 -624 834 -414 c 4
 834 -289 766 -191 697 -138 c 5
 724 -188 737 -238 737 -289 c 4
 737 -470 592 -606 415 -606 c 4
EndSplineSet
EndChar

StartChar: r1
Encoding: 3395 3395 99
Width: 392
GlyphClass: 2
Flags: HMW
LayerCount: 2
Fore
SplineSet
-550 -308 m 0
 -550 -397 -450 -433 -367 -433 c 0
 -254 -433 -135 -374 -64 -313 c 1
 -173 -246 -281 -212 -396 -212 c 0
 -468 -212 -550 -237 -550 -308 c 0
25 -216 m 1
 121 -85 163 76 163 288 c 0
 163 497 113 733 12 935 c 4
 6 947 3 958 3 968 c 4
 3 1006 41 1030 76 1030 c 4
 99 1030 116 1018 128 993 c 4
 238 774 293 519 293 290 c 0
 293 -155 76 -562 -366 -562 c 0
 -530 -562 -682 -473 -682 -312 c 0
 -682 -161 -543 -82 -395 -82 c 0
 -227 -82 -88 -141 25 -216 c 1
EndSplineSet
EndChar

StartChar: e1
Encoding: 3398 3398 100
Width: 1395
GlyphClass: 2
Flags: HMW
LayerCount: 2
Fore
SplineSet
100 432 m 0
 100 782 388 1023 697 1023 c 0
 1007 1023 1295 779 1295 425 c 0
 1295 268 1235 112 1120 0 c 0
 1109 -11 1086 -21 1070 -21 c 0
 1031 -21 1000 10 1000 49 c 0
 1000 66 1010 89 1022 100 c 0
 1109 185 1154 305 1154 425 c 0
 1154 702 928 883 691 883 c 0
 522 883 367 781 291 637 c 1
 345 671 417 695 485 695 c 0
 668 695 847 546 847 336 c 0
 847 151 695 -17 496 -17 c 0
 249 -17 100 217 100 432 c 0
706 339 m 0
 706 466 598 552 485 552 c 0
 354 552 263 443 263 327 c 0
 263 216 384 124 492 124 c 0
 617 124 706 219 706 339 c 0
EndSplineSet
EndChar

StartChar: e2
Encoding: 3399 3399 101
Width: 1022
GlyphClass: 2
Flags: HMW
LayerCount: 2
Fore
SplineSet
578 1026 m 0
 751 1026 908 925 908 751 c 0
 908 631 810 535 686 535 c 0
 560 535 465 635 465 759 c 0
 465 815 481 860 513 895 c 1
 366 852 242 671 242 513 c 0
 242 322 376 170 523 108 c 1
 486 162 470 213 470 259 c 0
 470 356 566 469 691 469 c 0
 825 469 922 362 922 236 c 0
 922 79 783 -22 624 -22 c 0
 331 -22 100 230 100 526 c 0
 100 793 310 1026 578 1026 c 0
696 127 m 0
 755 127 803 176 803 234 c 0
 803 292 755 341 696 341 c 0
 637 341 589 292 589 234 c 0
 589 176 637 127 696 127 c 0
687 654 m 0
 748 654 797 704 797 764 c 0
 797 824 748 875 687 875 c 0
 626 875 576 824 576 764 c 0
 576 704 626 654 687 654 c 0
EndSplineSet
EndChar

StartChar: xx
Encoding: 3405 3405 106
Width: 131
GlyphClass: 4
Flags: HMW
LayerCount: 2
Fore
SplineSet
188 1295 m 0
 188 1320 181 1336 181 1365 c 0
 181 1394 218 1425 249 1425 c 0
 310 1425 329 1367 329 1304 c 0
 329 1115 190 974 4 974 c 0
 -183 974 -314 1129 -314 1295 c 0
 -314 1360 -301 1429 -233 1429 c 0
 -203 1429 -166 1396 -166 1368 c 0
 -166 1341 -173 1321 -173 1294 c 0
 -173 1191 -89 1115 4 1115 c 0
 108 1115 188 1200 188 1295 c 0
EndSplineSet
EndChar

StartChar: dotreph
Encoding: 3406 3406 107
Width: 0
GlyphClass: 4
Flags: HMW
LayerCount: 2
Fore
SplineSet
147 1121 m 0
 66 1121 0 1185 0 1262 c 0
 0 1339 66 1402 147 1402 c 0
 228 1402 298 1339 298 1262 c 0
 298 1185 228 1121 147 1121 c 0
EndSplineSet
EndChar

StartChar: au2
Encoding: 3415 3415 108
Width: 1556
GlyphClass: 2
Flags: HMW
LayerCount: 2
Fore
SplineSet
675 645 m 1
 673 772 589 883 456 883 c 0
 332 883 240 774 240 651 c 0
 240 616 249 583 267 549 c 0
 273 538 276 526 276 515 c 0
 276 478 247 444 208 444 c 0
 177 444 155 461 144 483 c 0
 114 538 100 594 100 651 c 0
 100 852 251 1024 456 1024 c 0
 593 1024 711 947 750 847 c 1
 797 945 918 1022 1060 1022 c 0
 1285 1022 1456 801 1456 572 c 0
 1456 204 1113 -26 744 -26 c 0
 631 -26 517 -3 415 43 c 0
 393 52 372 77 372 107 c 0
 372 146 403 178 442 178 c 0
 452 178 462 176 472 171 c 0
 555 134 651 115 746 115 c 0
 1036 115 1316 288 1316 574 c 0
 1316 732 1209 879 1054 879 c 0
 893 879 817 753 814 581 c 1
 808 548 776 526 744 526 c 0
 704 526 675 561 675 599 c 2
 675 645 l 1
EndSplineSet
EndChar

StartChar: datemark
Encoding: 3449 3449 109
Width: 2323
GlyphClass: 2
Flags: HMW
LayerCount: 2
Fore
SplineSet
1816 514 m 1
 1790 514 1766 515 1744 515 c 0
 1543 515 1381 478 1381 316 c 0
 1381 226 1466 140 1564 140 c 0
 1721 140 1822 282 1822 446 c 0
 1822 468 1820 491 1816 514 c 1
598 1024 m 4
 787 1024 918 944 1000 797 c 5
 1000 798 1000 798 1001 799 c 4
 1071 924 1220 1023 1420 1023 c 4
 1672 1023 1848 838 1923 653 c 1
 2153 649 l 2
 2189 649 2223 618 2223 584 c 0
 2223 538 2193 509 2153 509 c 2
 2151 509 l 1
 1958 512 l 1
 1961 489 1962 467 1962 445 c 0
 1962 196 1798 1 1566 1 c 0
 1389 1 1242 137 1242 320 c 0
 1242 576 1470 655 1733 655 c 0
 1744 655 1755 655 1766 655 c 1
 1698 773 1582 882 1412 882 c 4
 1157 882 1070 682 1066 433 c 1
 1063 63 l 1
 1063 62 l 1
 1062 21 1034 -6 985 -6 c 0
 953 -6 923 29 923 63 c 0
 924 193 925 324 925 454 c 0
 925 691 827 884 606 884 c 4
 399 884 242 704 242 496 c 0
 242 292 396 136 604 136 c 0
 634 136 665 140 696 148 c 0
 703 150 709 151 715 151 c 0
 752 151 785 118 785 87 c 0
 785 46 767 21 732 12 c 0
 686 0 641 -6 598 -6 c 0
 319 -6 100 216 100 497 c 0
 100 781 315 1024 598 1024 c 4
EndSplineSet
EndChar

StartChar: ZWNJ
Encoding: 8204 8204 110
Width: 321
GlyphClass: 2
Flags: HMW
LayerCount: 2
Fore
SplineSet
66 992 m 1
 225 992 l 1
 225 3 l 1
 66 3 l 1
 66 992 l 1
EndSplineSet
EndChar

StartChar: ZWJ
Encoding: 8205 8205 111
Width: 321
GlyphClass: 2
Flags: HMW
LayerCount: 2
Fore
SplineSet
70 879 m 1
 224 879 l 1
 224 4 l 1
 70 4 l 1
 70 879 l 1
148 1003 m 1
 14 795 l 1
 -90 795 l 1
 96 1067 l 1
 -76 1315 l 1
 33 1315 l 1
 111 1194 l 2
 117 1185 128 1165 145 1135 c 1
 270 1315 l 1
 377 1315 l 1
 199 1071 l 1
 387 795 l 1
 283 795 l 1
 148 1003 l 1
EndSplineSet
EndChar

StartChar: rupee
Encoding: 8377 8377 112
Width: 1165
GlyphClass: 2
Flags: HMW
LayerCount: 2
Fore
SplineSet
784 816 m 1
 735 637 597 502 440 433 c 1
 979 110 l 2
 998 99 1014 71 1014 49 c 0
 1014 10 983 -21 944 -21 c 0
 933 -21 917 -17 908 -11 c 2
 232 394 l 2
 213 405 198 432 198 454 c 0
 198 487 224 519 257 524 c 0
 422 549 576 665 636 818 c 1
 178 818 l 2
 139 818 108 850 108 889 c 0
 108 928 139 959 178 959 c 1
 179 958 l 1
 660 958 l 1
 652 1079 570 1190 455 1190 c 6
 171 1190 l 5
 170 1191 l 1
 131 1191 100 1222 100 1261 c 0
 100 1300 131 1331 170 1331 c 2
 171 1331 l 1
 987 1328 l 1
 988 1328 l 2
 1027 1328 1058 1297 1058 1258 c 0
 1058 1219 1027 1188 988 1188 c 0
 898 1188 808 1188 718 1188 c 1
 771 1121 797 1039 800 956 c 1
 996 956 l 2
 1035 956 1066 925 1066 886 c 0
 1066 847 1035 816 996 816 c 2
 784 816 l 1
EndSplineSet
EndChar

StartChar: uni25CC
Encoding: 9676 9676 113
Width: 1131
GlyphClass: 2
Flags: HMW
LayerCount: 2
Fore
SplineSet
212 325 m 5
 278 224 259 248 348 192 c 5
 270 91 l 5
 162 160 161 168 104 250 c 5
 212 325 l 5
686 18 m 5
 655 9 617 4 571 4 c 4
 525 4 485 9 450 18 c 5
 470 138 l 5
 513 131 546 128 568 128 c 4
 590 128 623 131 666 138 c 5
 686 18 l 5
170 426 m 5
 42 405 l 5
 34 442 30 480 30 517 c 4
 30 554 34 592 42 630 c 5
 170 609 l 5
 162 587 158 557 158 518 c 4
 158 479 162 448 170 426 c 5
348 843 m 5
 252 790 256 777 212 710 c 5
 104 784 l 5
 177 890 163 875 270 944 c 5
 348 843 l 5
1038 250 m 5
 955 137 987 162 868 91 c 5
 794 192 l 5
 867 236 907 272 930 325 c 5
 1038 250 l 5
1098 630 m 5
 1107 592 1112 555 1112 518 c 4
 1112 481 1107 443 1098 405 c 5
 972 426 l 5
 978 466 981 495 981 514 c 4
 981 533 978 565 972 609 c 5
 1098 630 l 5
686 1017 m 5
 666 897 l 5
 623 904 591 907 568 907 c 4
 545 907 513 904 470 897 c 5
 450 1017 l 5
 497 1028 537 1033 570 1033 c 4
 603 1033 641 1028 686 1017 c 5
930 710 m 5
 887 781 842 826 794 843 c 5
 868 944 l 5
 955 887 995 854 1038 784 c 5
 930 710 l 5
EndSplineSet
EndChar

StartChar: r4
Encoding: 65539 -1 114
Width: 615
GlyphClass: 2
LigCaretCntFixed: 1
Flags: HMW
LayerCount: 2
Fore
SplineSet
299 1026 m 4
 338 1026 364 997 364 958 c 4
 364 953 363 948 362 942 c 4
 301 635 262 429 247 324 c 4
 236 240 230 167 230 107 c 4
 230 -73 281 -161 453 -166 c 4
 488 -167 515 -199 515 -233 c 4
 515 -265 485 -296 451 -296 c 4
 292 -296 185 -225 135 -110 c 4
 111 -55 100 19 100 111 c 4
 100 336 196 759 234 966 c 4
 240 998 264 1026 299 1026 c 4
EndSplineSet
LCarets2: 1 0
EndChar

StartChar: y2
Encoding: 65540 -1 115
Width: 600
GlyphClass: 2
LigCaretCntFixed: 1
Flags: HMW
LayerCount: 2
Fore
SplineSet
232 -446 m 0
 361 -446 458 -342 458 -215 c 0
 458 120 89 362 89 731 c 0
 89 812 101 894 125 975 c 0
 133 1005 163 1025 194 1025 c 0
 226 1025 262 996 262 965 c 0
 262 952 261 942 259 935 c 0
 240 862 230 791 230 722 c 0
 230 330 600 134 600 -213 c 0
 600 -414 443 -588 235 -588 c 0
 46 -588 -110 -444 -110 -253 c 0
 -110 -117 -43 -24 50 33 c 0
 62 41 76 44 88 44 c 0
 126 44 158 12 158 -31 c 0
 158 -54 147 -72 125 -85 c 0
 72 -117 30 -181 30 -252 c 0
 30 -361 120 -446 232 -446 c 0
EndSplineSet
LCarets2: 1 3
EndChar

StartChar: v2
Encoding: 65543 -1 118
Width: 437
GlyphClass: 3
LigCaretCntFixed: 1
Flags: HMW
LayerCount: 2
Fore
SplineSet
-303 -246 m 0
 -303 -211 -277 -170 -247 -170 c 2
 196 -170 l 1
 196 969 l 2
 196 995 234 1025 264 1025 c 0
 303 1025 336 993 336 954 c 2
 336 -240 l 2
 336 -277 311 -310 268 -310 c 2
 -242 -310 l 2
 -275 -310 -303 -273 -303 -246 c 0
EndSplineSet
LCarets2: 1 0
EndChar

StartChar: k1cil
Encoding: 3455 3455 119
Width: 1964
GlyphClass: 3
Flags: HMW
LayerCount: 2
Fore
SplineSet
240 291 m 4
 240 202 315 125 401 125 c 4
 515 125 586 202 586 312 c 5
 570 370 562 431 562 495 c 4
 562 500 562 505 562 510 c 5
 387 503 240 435 240 291 c 4
1570 116 m 4
 1645 116 1726 186 1726 282 c 4
 1726 425 1596 501 1443 512 c 5
 1443 511 1443 510 1442 508 c 4
 1418 442 1407 384 1407 332 c 4
 1407 227 1471 116 1570 116 c 4
1277 514 m 5
 702 512 l 5
 702 311 790 117 989 117 c 4
 1187 117 1277 316 1277 514 c 5
1255 654 m 5
 1217 776 1119 887 990 887 c 4
 859 887 760 775 723 652 c 5
 1255 654 l 5
1334 1352 m 4
 1334 1393 1365 1425 1395 1425 c 4
 1420 1425 1439 1419 1453 1406 c 4
 1559 1308 1597 1194 1597 1073 c 0
 1597 936 1549 790 1498 647 c 5
 1685 626 1864 495 1864 284 c 4
 1864 129 1743 -24 1580 -24 c 4
 1447 -24 1362 49 1310 147 c 5
 1245 61 1134 -21 989 -21 c 4
 849 -21 742 56 679 133 c 5
 629 52 538 -15 415 -15 c 4
 249 -15 100 116 100 279 c 4
 100 538 312 645 578 651 c 5
 624 855 784 1027 989 1027 c 4
 1192 1027 1320 883 1378 728 c 5
 1423 834 1461 949 1461 1056 c 0
 1461 1147 1434 1233 1358 1303 c 4
 1342 1317 1334 1334 1334 1352 c 4
EndSplineSet
LCarets2: 2 0 0
EndChar

StartChar: nhcil
Encoding: 3450 3450 120
Width: 2759
GlyphClass: 2
Flags: HMW
LayerCount: 2
Fore
SplineSet
488 119 m 4
 587 119 665 191 665 289 c 4
 665 383 583 465 490 465 c 4
 397 465 316 384 316 288 c 4
 316 192 398 119 488 119 c 4
2308 825 m 5
 2253 665 2112 537 2112 338 c 4
 2112 220 2197 113 2303 113 c 4
 2448 113 2519 259 2519 404 c 4
 2519 597 2435 746 2308 825 c 5
1412 1024 m 4
 1582 1024 1678 917 1735 800 c 5
 1810 933 1942 1023 2127 1023 c 4
 2150 1023 2173 1021 2196 1017 c 5
 2196 1017 2197 1017 2197 1016 c 5
 2189 1105 2153 1177 2089 1233 c 4
 2072 1247 2064 1265 2064 1285 c 4
 2064 1328 2097 1357 2133 1357 c 0
 2149 1357 2166 1351 2180 1339 c 4
 2265 1266 2338 1144 2338 997 c 4
 2338 988 2338 980 2337 971 c 5
 2522 879 2659 670 2659 406 c 4
 2659 186 2533 -26 2310 -26 c 4
 2118 -26 1972 134 1972 340 c 4
 1972 526 2113 690 2166 846 c 4
 2171 861 2174 871 2174 875 c 4
 2174 879 2150 880 2135 880 c 0
 2130 880 2127 880 2125 880 c 4
 1871 880 1803 691 1803 422 c 6
 1803 44 l 6
 1803 6 1772 -26 1734 -26 c 4
 1695 -26 1665 6 1664 44 c 6
 1661 418 l 6
 1659 681 1618 882 1415 882 c 4
 1197 882 1131 667 1131 434 c 6
 1131 44 l 6
 1131 6 1100 -26 1062 -26 c 4
 1023 -26 993 6 992 44 c 6
 989 412 l 6
 987 684 902 885 640 885 c 4
 396 885 257 681 241 478 c 5
 294 547 386 603 489 603 c 4
 665 603 806 457 806 292 c 4
 806 119 668 -22 490 -22 c 4
 251 -22 100 191 100 443 c 4
 100 755 314 1024 639 1024 c 4
 832 1024 974 931 1052 796 c 5
 1053 800 l 5
 1107 914 1253 1024 1412 1024 c 4
EndSplineSet
LCarets2: 2 0 0
EndChar

StartChar: n1cil
Encoding: 3451 3451 121
Width: 2052
GlyphClass: 2
Flags: HMW
LayerCount: 2
Fore
SplineSet
1367 354 m 0
 1367 224 1461 118 1579 118 c 0
 1726 118 1812 277 1812 433 c 0
 1812 613 1723 757 1594 830 c 1
 1532 690 1367 523 1367 354 c 0
917 526 m 2
 917 720 786 881 588 881 c 0
 381 881 241 709 241 510 c 0
 241 290 418 122 635 122 c 0
 661 122 678 126 706 126 c 0
 733 126 765 88 765 58 c 0
 765 -11 695 -19 627 -19 c 0
 334 -19 100 223 100 515 c 0
 100 796 309 1018 590 1018 c 0
 780 1018 918 914 992 788 c 1
 1069 912 1219 1021 1407 1021 c 0
 1437 1021 1467 1018 1499 1012 c 1
 1499 1028 l 2
 1499 1139 1438 1226 1362 1271 c 0
 1339 1284 1327 1303 1327 1326 c 0
 1327 1366 1355 1402 1392 1402 c 0
 1408 1402 1423 1398 1434 1391 c 0
 1540 1327 1640 1195 1640 1034 c 0
 1640 1013 1639 992 1635 970 c 1
 1635 967 l 1
 1816 878 1952 694 1952 431 c 0
 1952 197 1815 -21 1576 -21 c 0
 1371 -21 1228 153 1228 354 c 0
 1228 586 1384 716 1460 877 c 1
 1442 880 1424 881 1406 881 c 0
 1182 881 1058 698 1058 507 c 2
 1058 47 l 2
 1058 9 1026 -22 988 -22 c 0
 950 -22 917 8 917 46 c 2
 917 526 l 2
EndSplineSet
LCarets2: 2 0 0
EndChar

StartChar: l3cil
Encoding: 3453 3453 122
Width: 2092
GlyphClass: 3
Flags: HMW
LayerCount: 2
Fore
SplineSet
1469 352 m 0
 1469 234 1542 116 1660 116 c 0
 1785 116 1852 243 1852 367 c 0
 1852 551 1760 681 1631 777 c 1
 1590 685 1469 492 1469 352 c 0
915 797 m 1
 776 706 679 566 679 380 c 0
 679 252 760 113 894 113 c 0
 1031 113 1114 252 1114 389 c 0
 1114 572 1038 709 915 797 c 1
541 388 m 0
 541 601 650 762 772 865 c 1
 729 877 688 882 649 882 c 0
 417 882 240 698 240 465 c 0
 240 301 338 170 449 107 c 0
 473 94 485 75 485 52 c 0
 485 12 457 -24 420 -24 c 0
 404 -24 390 -21 379 -15 c 0
 230 71 100 243 100 463 c 0
 100 783 358 1023 656 1023 c 0
 740 1023 829 1003 917 959 c 1
 1021 1009 1139 1036 1259 1036 c 0
 1358 1036 1458 1018 1551 980 c 1
 1554 1000 1556 1019 1556 1037 c 0
 1556 1145 1482 1248 1383 1266 c 0
 1337 1275 1314 1301 1314 1345 c 0
 1314 1382 1356 1415 1398 1407 c 0
 1563 1376 1696 1236 1696 1038 c 0
 1696 999 1691 958 1680 914 c 1
 1845 806 1992 621 1992 367 c 4
 1992 164 1867 -24 1660 -24 c 0
 1460 -24 1329 152 1329 351 c 0
 1329 534 1448 707 1509 846 c 1
 1426 881 1343 898 1259 898 c 0
 1191 898 1123 887 1054 864 c 1
 1180 747 1254 597 1254 400 c 0
 1254 178 1121 -26 895 -26 c 0
 674 -26 541 173 541 388 c 0
EndSplineSet
LCarets2: 2 0 0
EndChar

StartChar: lhcil
Encoding: 3454 3454 123
Width: 1931
GlyphClass: 3
Flags: HMW
LayerCount: 2
Fore
SplineSet
1447 114 m 0
 1589 114 1690 258 1690 418 c 0
 1690 599 1576 773 1412 847 c 1
 1337 669 1216 533 1216 383 c 0
 1216 246 1308 114 1447 114 c 0
550 -25 m 0
 297 -25 100 194 100 475 c 0
 100 701 234 920 443 1018 c 0
 451 1022 464 1025 473 1025 c 0
 512 1025 543 994 543 955 c 0
 543 930 525 901 502 891 c 0
 345 818 241 643 241 470 c 0
 241 273 380 115 553 115 c 0
 709 115 790 235 790 388 c 0
 790 428 788 471 788 516 c 0
 788 810 964 1026 1242 1026 c 0
 1265 1026 1288 1025 1310 1022 c 1
 1310 1123 1283 1220 1219 1290 c 4
 1209 1301 1200 1323 1200 1338 c 0
 1200 1377 1231 1408 1270 1408 c 0
 1289 1408 1311 1397 1323 1384 c 0
 1407 1292 1451 1162 1451 1040 c 0
 1451 1021 1450 1003 1448 984 c 1
 1678 893 1831 667 1831 423 c 0
 1831 180 1680 -26 1449 -26 c 0
 1216 -26 1076 173 1076 387 c 0
 1076 596 1214 741 1276 884 c 1
 1266 885 1256 885 1246 885 c 0
 1012 885 931 720 931 473 c 2
 931 450 l 2
 931 182 831 -25 550 -25 c 0
EndSplineSet
LCarets2: 2 0 0
EndChar

StartChar: r3cil
Encoding: 3452 3452 124
Width: 1406
GlyphClass: 3
Flags: HMW
LayerCount: 2
Fore
SplineSet
909 121 m 0
 1069 121 1165 285 1165 433 c 0
 1165 621 1030 770 901 831 c 1
 834 704 661 553 661 378 c 0
 661 230 761 121 909 121 c 0
951 963 m 1
 1128 884 1306 688 1306 434 c 0
 1306 193 1154 -18 901 -18 c 0
 681 -18 521 166 521 372 c 0
 521 573 679 730 763 873 c 1
 735 877 707 879 681 879 c 0
 428 879 239 681 239 459 c 0
 239 300 341 171 455 114 c 0
 482 101 495 79 495 46 c 0
 495 15 462 -19 431 -19 c 0
 416 -19 403 -16 393 -11 c 0
 236 66 100 237 100 457 c 0
 100 788 375 1020 705 1020 c 0
 749 1020 787 1009 815 1009 c 6
 817 1009 l 1
 820 1025 822 1041 822 1056 c 0
 822 1156 760 1238 695 1278 c 0
 672 1291 661 1309 661 1332 c 0
 661 1372 689 1408 726 1408 c 0
 742 1408 757 1404 769 1397 c 0
 870 1334 961 1210 961 1053 c 0
 961 1024 958 994 951 963 c 1
EndSplineSet
LCarets2: 2 0 0
EndChar

StartChar: k1u1
Encoding: 65544 -1 125
Width: 1923
GlyphClass: 3
LigCaretCntFixed: 1
Flags: HMW
LayerCount: 2
Fore
SplineSet
584 315 m 5
 567 372 557 432 557 495 c 4
 557 497 558 500 558 502 c 5
 399 490 241 432 241 283 c 4
 241 195 317 122 403 122 c 4
 514 122 584 206 584 315 c 5
989 123 m 4
 1185 123 1287 313 1287 508 c 5
 698 508 l 5
 698 309 804 123 989 123 c 4
720 648 m 5
 1264 648 l 5
 1225 766 1135 881 991 881 c 4
 847 881 758 767 720 648 c 5
1590 97 m 4
 1638 97 1685 118 1685 162 c 4
 1685 200 1649 218 1579 218 c 4
 1508 218 1473 241 1473 286 c 4
 1473 328 1495 350 1537 351 c 6
 1591 352 l 6
 1652 353 1683 375 1683 416 c 4
 1683 493 1584 515 1427 515 c 5
 1427 240 1270 -19 991 -19 c 4
 870 -19 758 40 679 133 c 5
 626 44 535 -21 404 -21 c 4
 243 -21 100 119 100 278 c 4
 100 528 331 631 574 644 c 5
 622 849 785 1020 993 1020 c 4
 1194 1020 1359 852 1408 655 c 5
 1620 655 1823 611 1823 415 c 4
 1823 368 1804 322 1757 288 c 5
 1800 260 1821 220 1821 168 c 4
 1821 31 1713 -32 1573 -32 c 4
 1503 -32 1418 -14 1418 46 c 4
 1418 89 1448 116 1487 116 c 4
 1518 116 1555 97 1590 97 c 4
EndSplineSet
LCarets2: 1 0
EndChar

StartChar: k1u2
Encoding: 65545 -1 126
Width: 1923
GlyphClass: 3
LigCaretCntFixed: 1
Flags: HMW
LayerCount: 2
Fore
SplineSet
963 1022 m 0
 1193 1022 1326 825 1362 632 c 1
 1569 631 1792 575 1792 361 c 0
 1792 300 1739 224 1696 201 c 1
 1746 181 1823 91 1823 -1 c 0
 1823 -188 1669 -262 1484 -264 c 2
 513 -273 l 2
 406 -274 242 -273 242 -373 c 0
 242 -443 360 -450 435 -450 c 2
 1752 -440 l 6
 1791 -440 1822 -471 1822 -510 c 4
 1822 -549 1791 -580 1752 -580 c 6
 432 -591 l 1
 269 -591 101 -540 101 -373 c 0
 101 -168 329 -135 512 -133 c 2
 1483 -124 l 2
 1588 -123 1683 -103 1683 -1 c 0
 1683 76 1617 132 1539 132 c 0
 1486 132 1446 148 1446 197 c 0
 1446 244 1483 263 1533 263 c 0
 1597 263 1652 299 1652 363 c 0
 1652 474 1488 489 1374 491 c 1
 1373 237 1230 -21 961 -21 c 0
 834 -21 730 49 667 124 c 1
 616 41 514 -24 402 -24 c 0
 236 -24 100 103 100 271 c 0
 100 512 333 611 559 624 c 1
 594 819 730 1022 963 1022 c 0
963 882 m 0
 815 882 732 751 703 629 c 1
 1219 629 l 1
 1190 749 1108 882 963 882 c 0
1234 489 m 1
 688 489 l 1
 689 311 778 119 961 119 c 0
 1146 119 1233 309 1234 489 c 1
573 305 m 1
 556 363 549 424 548 483 c 1
 407 472 240 419 240 273 c 0
 240 185 312 116 400 116 c 0
 509 116 571 200 573 305 c 1
EndSplineSet
LCarets2: 1 0
EndChar

StartChar: k1r1
Encoding: 65546 -1 127
Width: 1921
GlyphClass: 3
LigCaretCntFixed: 1
Flags: HMW
LayerCount: 2
Fore
SplineSet
970 -230 m 0
 869 -230 778 -254 778 -330 c 0
 778 -408 867 -424 978 -424 c 0
 1090 -424 1176 -409 1176 -333 c 0
 1176 -253 1076 -230 970 -230 c 0
587 312 m 1
 568 373 560 433 560 502 c 1
 400 490 242 431 242 280 c 0
 242 191 318 124 405 124 c 0
 517 124 587 201 587 312 c 1
1294 506 m 1
 700 506 l 1
 700 311 802 114 996 114 c 0
 1192 114 1294 312 1294 506 c 1
1272 646 m 1
 1232 770 1130 881 995 881 c 1
 863 879 763 769 723 646 c 1
 1272 646 l 1
682 136 m 1
 628 46 538 -19 405 -19 c 0
 245 -19 100 114 100 274 c 0
 100 525 333 631 577 643 c 1
 624 840 770 1023 998 1023 c 0
 1225 1023 1373 840 1418 642 c 1
 1637 619 1821 428 1821 187 c 0
 1821 -238 1429 -564 991 -564 c 1
 786 -560 637 -500 637 -328 c 0
 637 -160 798 -89 973 -89 c 0
 1162 -89 1317 -162 1317 -338 c 0
 1317 -340 1317 -342 1317 -344 c 1
 1489 -257 1680 -71 1680 176 c 0
 1680 337 1579 473 1434 499 c 1
 1434 230 1269 -24 996 -24 c 0
 874 -24 760 43 682 136 c 1
EndSplineSet
LCarets2: 1 0
EndChar

StartChar: k1k1
Encoding: 65548 -1 129
Width: 2529
GlyphClass: 3
LigCaretCntFixed: 1
Flags: HMW
LayerCount: 2
Fore
SplineSet
1890 1023 m 0
 2165 1023 2429 806 2429 486 c 0
 2429 259 2283 50 2066 -25 c 0
 2060 -27 2049 -29 2042 -29 c 0
 2003 -29 1972 2 1972 41 c 0
 1972 102 2044 114 2086 137 c 0
 2211 204 2287 349 2287 491 c 0
 2287 726 2086 882 1885 882 c 0
 1690 882 1558 754 1489 608 c 1
 1697 590 1929 493 1929 258 c 0
 1929 110 1813 -26 1641 -26 c 0
 1504 -26 1398 70 1346 169 c 1
 1280 74 1159 -20 1003 -20 c 0
 881 -20 762 38 684 133 c 1
 627 40 524 -22 411 -22 c 0
 233 -22 100 111 100 270 c 0
 100 514 350 604 572 611 c 1
 611 814 766 1024 1003 1024 c 4
 1191 1024 1334 881 1396 736 c 1
 1492 893 1655 1023 1890 1023 c 0
1289 612 m 1
 1260 741 1152 884 1003 884 c 4
 849 884 750 743 718 612 c 1
 1289 612 l 1
705 472 m 1
 713 289 825 121 1007 121 c 0
 1196 121 1293 313 1301 472 c 1
 705 472 l 1
1639 114 m 0
 1726 114 1787 185 1787 264 c 0
 1787 416 1590 463 1445 471 c 1
 1440 444 1438 415 1438 388 c 0
 1438 255 1506 114 1639 114 c 0
242 275 m 0
 242 191 316 118 408 118 c 0
 510 118 590 210 590 311 c 1
 573 363 564 416 562 470 c 1
 423 463 242 417 242 275 c 0
EndSplineSet
LCarets2: 2 0 0
EndChar

StartChar: k1k1u1
Encoding: 65549 -1 130
Width: 2551
GlyphClass: 3
LigCaretCntFixed: 1
Flags: HMW
LayerCount: 2
Fore
SplineSet
406 -20 m 0
 241 -20 100 104 100 273 c 0
 100 518 349 605 581 614 c 1
 616 819 757 1025 1001 1025 c 0
 1213 1025 1349 870 1404 710 c 1
 1515 876 1722 1024 1976 1024 c 0
 2197 1024 2418 903 2418 670 c 0
 2418 591 2387 515 2331 460 c 1
 2401 414 2452 341 2452 238 c 0
 2452 76 2323 -43 2163 -43 c 0
 2096 -43 1979 -17 1979 58 c 0
 1979 97 2010 128 2049 128 c 0
 2060 128 2077 124 2086 118 c 0
 2109 104 2135 97 2163 97 c 0
 2245 97 2311 156 2311 238 c 0
 2311 338 2225 371 2119 371 c 2
 2083 371 l 2
 2044 371 2013 402 2013 441 c 0
 2013 474 2040 505 2073 510 c 1
 2121 515 l 1
 2207 515 2278 586 2278 672 c 0
 2278 818 2122 884 1977 884 c 0
 1766 884 1598 758 1510 616 c 1
 1733 612 1921 503 1921 278 c 0
 1921 112 1788 -25 1624 -25 c 0
 1488 -25 1385 65 1335 160 c 1
 1267 68 1152 -20 1000 -20 c 0
 861 -20 751 57 684 139 c 1
 632 50 525 -20 406 -20 c 0
1001 885 m 0
 841 885 754 749 724 616 c 5
 1285 616 l 5
 1254 749 1162 885 1001 885 c 0
1468 476 m 2
 1446 476 l 1
 1436 442 1428 402 1428 359 c 0
 1428 231 1501 115 1625 115 c 0
 1712 115 1781 190 1781 279 c 0
 1781 437 1631 476 1468 476 c 2
1298 476 m 1
 716 476 l 1
 712 475 l 1
 719 300 817 120 1000 120 c 0
 1187 120 1290 296 1298 476 c 1
589 325 m 1
 575 374 574 423 572 473 c 1
 427 465 240 421 240 274 c 0
 240 185 316 120 404 120 c 0
 520 120 589 212 589 325 c 1
EndSplineSet
LCarets2: 1 0
EndChar

StartChar: k1k1u2
Encoding: 65550 -1 131
Width: 2523
GlyphClass: 3
LigCaretCntFixed: 1
Flags: HMW
LayerCount: 2
Fore
SplineSet
1963 434 m 0
 1963 480 2008 511 2059 507 c 0
 2147 507 2220 582 2220 670 c 0
 2220 814 2073 886 1933 886 c 0
 1717 886 1547 743 1466 588 c 1
 1675 580 1880 480 1880 260 c 0
 1880 102 1748 -21 1596 -21 c 0
 1464 -21 1362 66 1312 158 c 1
 1248 66 1137 -21 989 -21 c 0
 856 -21 754 51 691 131 c 1
 637 44 529 -25 410 -25 c 0
 246 -25 102 94 102 263 c 0
 102 507 350 584 585 588 c 1
 610 803 742 1025 988 1025 c 0
 1195 1025 1324 868 1376 711 c 1
 1483 877 1687 1026 1933 1026 c 0
 2146 1026 2360 898 2360 670 c 0
 2360 586 2324 505 2264 449 c 1
 2353 399 2423 307 2423 177 c 0
 2423 -126 2144 -232 1855 -235 c 1
 498 -243 l 2
 400 -243 240 -246 240 -339 c 0
 240 -420 362 -428 450 -428 c 2
 2344 -432 l 2
 2383 -432 2414 -463 2414 -502 c 0
 2414 -542 2383 -572 2343 -572 c 2
 450 -568 l 2
 285 -568 100 -517 100 -339 c 0
 100 -145 306 -103 494 -103 c 1
 1854 -95 l 2
 2071 -93 2283 -40 2283 177 c 0
 2283 322 2163 351 2027 364 c 0
 1992 367 1963 399 1963 434 c 0
988 885 m 0
 827 885 746 730 726 588 c 1
 1261 588 l 1
 1238 732 1153 885 988 885 c 0
1266 448 m 1
 721 448 l 1
 733 288 818 119 989 119 c 0
 1165 119 1253 286 1266 448 c 1
1596 119 m 0
 1673 119 1740 182 1740 262 c 0
 1740 412 1566 447 1414 449 c 1
 1407 419 1404 388 1404 359 c 0
 1404 234 1475 119 1596 119 c 0
601 315 m 1
 589 359 584 403 581 447 c 1
 434 443 243 411 243 265 c 0
 243 176 320 115 408 115 c 0
 521 115 601 205 601 315 c 1
EndSplineSet
LCarets2: 1 3
EndChar

StartChar: k1k1r1
Encoding: 65551 -1 132
Width: 2493
GlyphClass: 3
LigCaretCntFixed: 1
Flags: HMW
LayerCount: 2
Fore
SplineSet
1825 1020 m 0
 2189 1020 2393 668 2393 324 c 0
 2393 -184 1987 -603 1479 -603 c 0
 1304 -603 1114 -556 1114 -370 c 0
 1114 -198 1288 -128 1446 -128 c 0
 1620 -128 1794 -195 1794 -386 c 1
 2038 -271 2253 -14 2253 325 c 0
 2253 596 2105 880 1825 880 c 0
 1644 880 1512 728 1452 589 c 1
 1678 582 1914 490 1914 254 c 0
 1914 96 1777 -29 1621 -29 c 0
 1476 -29 1370 64 1317 165 c 1
 1253 67 1140 -25 986 -25 c 0
 853 -25 751 48 688 128 c 1
 634 44 526 -25 407 -25 c 0
 244 -25 100 93 100 261 c 0
 100 505 351 581 585 586 c 1
 613 793 748 1018 989 1018 c 0
 1184 1018 1308 866 1363 723 c 1
 1450 871 1615 1020 1825 1020 c 0
727 588 m 1
 1256 588 l 1
 1231 723 1147 875 992 878 c 0
 833 880 751 723 727 588 c 1
1619 111 m 0
 1702 111 1774 173 1774 256 c 0
 1774 414 1572 447 1412 449 c 1
 1409 426 1407 403 1407 381 c 0
 1407 242 1484 111 1619 111 c 0
1264 448 m 1
 719 448 l 1
 728 286 815 115 986 115 c 0
 1163 115 1253 285 1264 448 c 1
240 263 m 0
 240 175 317 115 405 115 c 0
 513 115 598 202 601 303 c 1
 588 350 581 397 579 445 c 1
 433 440 240 408 240 263 c 0
1448 -268 m 0
 1361 -268 1255 -288 1255 -371 c 0
 1255 -456 1381 -463 1472 -463 c 1
 1547 -456 1654 -453 1654 -374 c 0
 1654 -287 1539 -268 1448 -268 c 0
EndSplineSet
LCarets2: 1 0
EndChar

StartChar: k1k1r3
Encoding: 65552 -1 133
Width: 2826
GlyphClass: 3
LigCaretCntFixed: 1
Flags: HMW
LayerCount: 2
Fore
SplineSet
1782 512 m 1
 1774 475 1771 439 1771 405 c 0
 1771 278 1831 122 1960 122 c 0
 2037 122 2119 207 2119 287 c 0
 2119 441 1940 498 1782 512 c 1
610 299 m 0
 610 213 688 125 768 125 c 0
 864 125 944 211 944 311 c 0
 944 316 943 322 943 329 c 0
 926 385 917 444 917 506 c 0
 917 508 917 510 917 512 c 1
 763 500 610 444 610 299 c 0
1344 128 m 0
 1534 128 1634 328 1634 516 c 1
 1057 516 l 1
 1057 322 1165 128 1344 128 c 0
1345 881 m 0
 1205 881 1117 772 1080 657 c 1
 1611 657 l 1
 1573 773 1486 881 1345 881 c 0
1725 751 m 1
 1812 896 1959 1018 2180 1018 c 0
 2519 1018 2726 703 2726 383 c 0
 2726 -162 2304 -375 1751 -387 c 6
 1185 -398 l 5
 599 -398 100 -162 100 406 c 0
 100 685 265 903 457 1009 c 0
 468 1015 481 1019 497 1019 c 0
 534 1019 562 983 562 942 c 0
 562 918 550 900 525 887 c 0
 371 802 240 628 240 404 c 0
 240 -80 683 -278 1184 -278 c 5
 1748 -267 l 6
 2214 -257 2589 -80 2589 381 c 0
 2589 644 2429 879 2174 879 c 0
 2007 879 1889 767 1829 648 c 1
 2048 620 2260 498 2260 292 c 0
 2260 122 2126 -19 1949 -19 c 0
 1826 -19 1724 78 1678 170 c 1
 1613 78 1493 -12 1345 -12 c 0
 1220 -12 1120 38 1038 134 c 1
 985 47 897 -16 768 -16 c 0
 610 -16 469 136 469 293 c 0
 469 539 695 642 934 654 c 1
 979 846 1123 1022 1345 1022 c 0
 1533 1022 1663 893 1725 751 c 1
EndSplineSet
LCarets2: 1 0
EndChar

StartChar: k1th1
Encoding: 65558 -1 139
Width: 3309
GlyphClass: 3
LigCaretCntFixed: 1
Flags: HMW
LayerCount: 2
Fore
SplineSet
585 311 m 5
 567 371 559 432 559 500 c 5
 398 488 239 429 239 278 c 4
 239 189 315 121 402 121 c 4
 514 121 585 201 585 311 c 5
699 505 m 5
 695 310 803 121 994 121 c 4
 1189 121 1300 312 1295 508 c 5
 699 505 l 5
2394 813 m 5
 2269 737 2163 594 2163 408 c 4
 2163 263 2247 115 2394 115 c 4
 2539 115 2623 260 2623 404 c 4
 2623 590 2526 735 2394 813 c 5
1272 648 m 5
 1233 770 1130 878 999 878 c 4
 863 878 760 769 721 645 c 5
 1272 648 l 5
3070 480 m 4
 3070 708 2873 882 2641 882 c 4
 2611 882 2580 879 2549 873 c 5
 2685 754 2762 617 2762 409 c 4
 2762 183 2625 -22 2394 -22 c 4
 2166 -22 2023 183 2023 405 c 4
 2023 609 2107 757 2237 871 c 5
 2211 875 2186 878 2161 878 c 4
 1919 878 1747 694 1747 453 c 4
 1747 287 1865 160 1971 110 c 4
 1998 97 2012 79 2012 54 c 4
 2012 13 1985 -24 1948 -24 c 4
 1933 -24 1920 -22 1911 -17 c 4
 1759 55 1626 217 1607 418 c 5
 1556 457 1499 482 1435 495 c 5
 1435 225 1269 -17 992 -17 c 4
 856 -17 745 58 681 134 c 5
 627 43 536 -21 402 -21 c 4
 237 -21 100 113 100 278 c 4
 100 522 332 630 576 642 c 5
 624 849 789 1018 1000 1018 c 4
 1204 1018 1373 846 1419 640 c 5
 1491 630 1557 609 1617 578 c 5
 1668 820 1885 1018 2161 1018 c 4
 2236 1018 2314 1002 2393 968 c 5
 2476 1004 2560 1021 2641 1021 c 4
 2944 1021 3209 790 3209 479 c 4
 3209 236 3050 46 2865 -15 c 4
 2857 -18 2846 -19 2832 -19 c 4
 2803 -19 2770 16 2770 46 c 4
 2770 81 2789 106 2827 120 c 4
 2957 168 3070 306 3070 480 c 4
EndSplineSet
LCarets2: 1 3
EndChar

StartChar: k1th1u1
Encoding: 65559 -1 140
Width: 3268
GlyphClass: 3
LigCaretCntFixed: 1
Flags: HMW
LayerCount: 2
Fore
SplineSet
2334 795 m 1
 2216 725 2113 593 2113 409 c 0
 2113 271 2192 132 2333 132 c 0
 2471 132 2557 265 2557 405 c 0
 2557 590 2468 718 2334 795 c 1
1708 451 m 1
 1711 294 1809 178 1924 124 c 0
 1952 112 1966 89 1966 55 c 0
 1966 24 1932 -10 1902 -10 c 0
 1887 -10 1875 -8 1866 -3 c 0
 1711 67 1585 220 1570 420 c 1
 1522 456 1467 482 1405 495 c 1
 1404 235 1238 -5 974 -5 c 0
 856 -5 746 52 669 143 c 1
 616 55 527 -7 398 -7 c 0
 240 -7 100 125 100 281 c 0
 100 528 327 629 565 642 c 1
 610 835 755 1010 977 1010 c 0
 1201 1010 1345 834 1389 639 c 1
 1459 629 1523 609 1580 579 c 1
 1628 796 1842 997 2111 997 c 0
 2182 997 2257 983 2333 952 c 1
 2407 984 2485 1000 2566 1000 c 0
 2908 1000 3167 730 3167 391 c 0
 3167 -32 2953 -205 2528 -210 c 2
 1991 -217 l 2
 1870 -217 1703 -221 1703 -315 c 0
 1703 -396 1848 -404 1944 -404 c 2
 3112 -400 l 2
 3138 -400 3168 -440 3168 -470 c 0
 3168 -508 3136 -540 3098 -540 c 0
 2707 -541 2317 -543 1926 -543 c 0
 1734 -543 1564 -486 1564 -313 c 0
 1564 -127 1753 -77 1968 -77 c 2
 2525 -71 l 2
 2862 -67 3027 47 3027 376 c 0
 3027 646 2838 860 2568 860 c 0
 2543 860 2518 858 2492 854 c 1
 2621 741 2697 605 2697 404 c 0
 2697 176 2551 -7 2338 -7 c 0
 2116 -7 1974 183 1974 407 c 0
 1974 605 2046 736 2175 851 c 1
 2154 854 2134 855 2114 855 c 0
 1874 855 1708 687 1708 451 c 1
574 317 m 1
 557 372 549 431 549 493 c 2
 549 500 l 1
 395 488 241 431 241 286 c 0
 241 200 314 135 399 135 c 0
 507 135 574 211 574 317 c 1
974 136 m 0
 1166 136 1265 316 1265 506 c 1
 696 506 l 1
 689 505 l 1
 689 311 796 136 974 136 c 0
711 646 m 1
 1241 646 l 1
 1203 761 1116 869 976 869 c 0
 835 869 748 762 711 646 c 1
EndSplineSet
LCarets2: 1 0
EndChar

StartChar: k1th1u2
Encoding: 65560 -1 141
Width: 3388
GlyphClass: 3
LigCaretCntFixed: 1
Flags: HMW
LayerCount: 2
Fore
SplineSet
3164 656 m 0
 3164 579 3131 502 3089 454 c 1
 3171 402 3239 299 3239 181 c 0
 3239 -147 2887 -231 2564 -231 c 0
 2350 -231 2140 -227 1926 -227 c 0
 1854 -227 1734 -232 1734 -297 c 0
 1734 -382 1879 -387 1970 -387 c 2
 3217 -384 l 1
 3218 -384 l 2
 3257 -384 3288 -415 3288 -454 c 0
 3288 -493 3257 -524 3218 -524 c 2
 1956 -528 l 2
 1786 -528 1594 -477 1594 -298 c 0
 1594 -134 1759 -87 1919 -87 c 0
 2131 -87 2339 -91 2552 -91 c 0
 2792 -91 3099 -54 3099 180 c 0
 3099 280 3023 355 2935 364 c 0
 2900 368 2873 398 2873 433 c 0
 2873 459 2892 489 2917 499 c 0
 2975 522 3024 579 3024 657 c 0
 3024 803 2872 872 2730 872 c 0
 2675 872 2623 863 2572 847 c 1
 2694 731 2767 575 2767 391 c 0
 2767 182 2642 -21 2423 -21 c 0
 2207 -21 2080 177 2080 383 c 0
 2080 580 2166 735 2295 849 c 1
 2256 861 2215 867 2175 867 c 0
 1951 867 1770 688 1770 464 c 0
 1770 292 1871 164 1991 104 c 0
 2013 93 2030 65 2030 41 c 0
 2030 2 1999 -29 1960 -29 c 0
 1951 -29 1936 -26 1928 -22 c 0
 1784 50 1670 186 1638 368 c 1
 1591 439 1517 477 1408 485 c 1
 1408 234 1253 -13 986 -13 c 0
 852 -13 748 60 684 140 c 1
 632 54 526 -15 408 -15 c 0
 239 -15 100 111 100 281 c 0
 100 531 349 622 588 628 c 1
 628 813 761 1027 988 1027 c 0
 1218 1027 1354 813 1393 626 c 1
 1480 623 1575 598 1638 558 c 1
 1682 802 1896 1007 2176 1007 c 0
 2267 1007 2356 984 2436 943 c 1
 2523 986 2620 1010 2718 1012 c 0
 2945 1012 3164 893 3164 656 c 0
988 887 m 0
 847 887 764 741 732 628 c 1
 1249 628 l 1
 1216 743 1132 887 988 887 c 0
2435 780 m 1
 2314 698 2220 555 2220 385 c 0
 2220 253 2291 119 2424 119 c 0
 2558 119 2627 260 2627 392 c 0
 2627 554 2549 697 2435 780 c 1
713 488 m 1
 713 484 l 2
 713 307 806 127 986 127 c 0
 1170 127 1268 310 1268 488 c 1
 713 488 l 1
590 307 m 0
 590 309 590 311 590 313 c 0
 590 317 591 324 592 328 c 0
 579 379 573 431 573 483 c 2
 573 487 l 1
 422 482 240 434 240 283 c 0
 240 193 316 125 406 125 c 0
 509 125 590 209 590 307 c 0
EndSplineSet
LCarets2: 1 0
EndChar

StartChar: k1th1r1
Encoding: 65561 -1 142
Width: 3174
GlyphClass: 3
LigCaretCntFixed: 1
Flags: HMW
LayerCount: 2
Fore
SplineSet
409 -20 m 0
 240 -20 100 118 100 286 c 0
 100 537 341 641 578 646 c 1
 620 833 759 1022 989 1022 c 0
 1219 1022 1357 834 1400 648 c 1
 1443 645 1475 637 1511 618 c 1
 1573 840 1773 1017 2035 1017 c 0
 2113 1017 2192 1000 2263 969 c 1
 2337 1002 2409 1016 2479 1016 c 0
 2845 1016 3075 685 3075 315 c 0
 3075 -166 2723 -575 2225 -575 c 0
 2051 -575 1865 -525 1865 -341 c 0
 1865 -166 2045 -99 2208 -100 c 24
 2370 -101 2545 -169 2545 -344 c 2
 2545 -358 l 1
 2756 -242 2934 19 2934 317 c 0
 2934 603 2768 876 2487 876 c 0
 2464 876 2441 874 2418 870 c 1
 2547 756 2631 598 2631 396 c 0
 2631 178 2496 -26 2271 -26 c 0
 2043 -26 1909 183 1909 402 c 0
 1909 599 1985 753 2111 869 c 1
 2085 874 2059 877 2033 877 c 0
 1810 877 1632 695 1632 473 c 0
 1632 299 1743 161 1874 105 c 0
 1898 95 1918 66 1918 40 c 0
 1918 1 1887 -30 1848 -30 c 0
 1840 -30 1827 -27 1819 -24 c 0
 1653 47 1516 208 1494 417 c 0
 1485 466 1466 493 1417 504 c 1
 1417 499 1417 494 1417 489 c 0
 1417 230 1262 -26 989 -26 c 0
 854 -26 744 49 678 129 c 1
 624 42 520 -20 409 -20 c 0
1254 649 m 1
 1218 763 1135 882 989 882 c 2
 986 882 l 1
 844 880 756 762 723 647 c 1
 1254 649 l 1
2264 811 m 1
 2138 731 2049 583 2049 407 c 0
 2049 262 2123 114 2271 114 c 0
 2415 114 2490 260 2490 401 c 0
 2490 582 2393 733 2264 811 c 1
1277 509 m 1
 701 507 l 1
 701 307 794 114 989 114 c 0
 1179 114 1277 305 1277 490 c 2
 1277 509 l 1
411 121 m 0
 506 121 586 200 586 298 c 2
 586 308 l 1
 567 373 561 435 561 505 c 1
 404 498 241 446 241 285 c 0
 241 193 321 121 411 121 c 0
2244 -434 m 1
 2317 -432 2405 -415 2405 -344 c 0
 2405 -258 2290 -240 2199 -240 c 0
 2114 -240 2005 -260 2005 -341 c 0
 2005 -432 2143 -434 2240 -434 c 2
 2244 -434 l 1
EndSplineSet
LCarets2: 1 0
EndChar

StartChar: k1r3
Encoding: 65562 -1 143
Width: 2247
GlyphClass: 3
Flags: HMW
LayerCount: 2
Fore
SplineSet
791 -19 m 0
 626 -19 487 106 487 276 c 0
 487 518 724 614 955 621 c 1
 988 827 1124 1023 1369 1023 c 0
 1616 1023 1753 826 1786 617 c 1
 2026 604 2147 430 2147 178 c 0
 2147 -229 1834 -388 1438 -402 c 2
 1171 -411 l 1
 577 -436 100 -211 100 363 c 0
 100 661 265 893 504 1022 c 0
 513 1027 527 1031 538 1031 c 0
 577 1031 608 1000 608 961 c 0
 608 938 592 910 571 899 c 0
 378 795 240 605 240 363 c 0
 240 -135 660 -282 1167 -271 c 1
 1437 -262 l 2
 1756 -251 2007 -148 2007 178 c 0
 2007 343 1946 462 1794 476 c 1
 1787 225 1636 -23 1366 -23 c 0
 1231 -23 1124 52 1059 133 c 1
 1007 47 904 -19 791 -19 c 0
1369 883 m 0
 1210 883 1124 756 1097 622 c 1
 1643 619 l 1
 1616 755 1530 883 1369 883 c 0
1366 117 m 0
 1553 117 1648 302 1654 479 c 1
 1085 482 l 1
 1089 303 1182 117 1366 117 c 0
962 336 m 1
 951 383 946 432 945 480 c 1
 800 472 628 426 628 278 c 0
 628 188 701 121 789 121 c 0
 913 121 973 209 962 336 c 1
EndSplineSet
LCarets2: 1 0
EndChar

StartChar: k1sh
Encoding: 65568 -1 149
Width: 2913
GlyphClass: 3
LigCaretCntFixed: 1
Flags: HMW
LayerCount: 2
Fore
SplineSet
407 120 m 0
 495 120 575 202 575 301 c 0
 575 305 574 310 574 314 c 2
 574 315 l 1
 557 370 549 429 549 491 c 2
 549 498 l 1
 395 486 241 429 241 284 c 0
 241 193 319 120 407 120 c 0
689 492 m 2
 689 303 802 122 974 122 c 0
 1160 122 1265 310 1265 494 c 2
 1265 505 l 1
 1075 504 886 503 696 502 c 1
 689 502 l 1
 689 492 l 2
2673 618 m 1
 2590 513 2484 437 2357 392 c 1
 2355 140 l 1
 2673 140 l 1
 2673 618 l 1
1241 645 m 1
 1195 784 1085 870 976 870 c 0
 866 870 756 783 711 642 c 1
 1221 645 l 1
 1241 645 l 1
2064 881 m 0
 1965 881 1886 794 1886 702 c 0
 1886 580 2006 494 2140 494 c 0
 2164 494 2190 497 2218 501 c 1
 2220 686 l 1
 2220 814 2176 881 2064 881 c 0
1537 0 m 2
 1496 0 1467 33 1467 76 c 0
 1467 99 1478 118 1501 131 c 0
 1558 161 1592 221 1592 285 c 0
 1592 397 1502 466 1405 491 c 1
 1404 232 1239 -20 975 -20 c 0
 857 -20 746 38 669 128 c 1
 619 43 532 -21 406 -21 c 0
 242 -21 100 115 100 278 c 0
 100 524 327 627 565 640 c 1
 613 841 773 1022 979 1022 c 0
 1179 1022 1343 838 1389 637 c 1
 1575 608 1733 484 1733 283 c 0
 1733 234 1721 185 1698 140 c 1
 2215 140 l 1
 2217 359 l 1
 2194 356 2171 355 2149 355 c 0
 1934 355 1744 493 1744 700 c 0
 1744 880 1893 1021 2067 1021 c 0
 2263 1021 2360 888 2360 685 c 1
 2358 544 l 1
 2516 616 2640 780 2674 975 c 0
 2679 1006 2711 1032 2746 1032 c 0
 2782 1032 2813 999 2813 962 c 2
 2813 70 l 2
 2813 32 2781 0 2743 0 c 2
 1537 0 l 2
EndSplineSet
LCarets2: 2 0 0
EndChar

StartChar: k3u1
Encoding: 65574 -1 155
Width: 1805
GlyphClass: 3
Flags: HMW
LayerCount: 2
Fore
SplineSet
242 -306 m 0
 242 -372 310 -402 440 -402 c 0
 838 -402 1236 -403 1634 -403 c 0
 1672 -403 1704 -435 1704 -473 c 0
 1704 -503 1674 -543 1648 -543 c 0
 1245 -543 843 -542 440 -542 c 0
 248 -542 102 -478 102 -303 c 0
 102 -134 251 -67 420 -67 c 1
 598 -69 775 -75 952 -75 c 0
 1310 -75 1565 81 1565 436 c 0
 1565 661 1444 880 1217 880 c 0
 1037 880 967 745 967 545 c 2
 967 453 l 2
 967 177 849 -20 577 -20 c 0
 301 -20 100 219 100 476 c 0
 100 745 259 937 456 1017 c 0
 465 1021 476 1023 490 1023 c 0
 520 1023 553 989 553 958 c 0
 553 925 532 897 508 888 c 0
 360 828 240 683 240 481 c 0
 240 298 384 118 577 118 c 0
 768 118 825 257 827 453 c 1
 827 545 l 2
 827 825 945 1021 1222 1021 c 0
 1524 1021 1705 730 1705 438 c 0
 1705 -4 1393 -214 940 -214 c 0
 773 -213 609 -209 443 -207 c 1
 334 -207 242 -223 242 -306 c 0
EndSplineSet
LCarets2: 1 0
EndChar

StartChar: k3u2
Encoding: 65575 -1 156
Width: 1753
GlyphClass: 3
Flags: HMW
LayerCount: 2
Fore
SplineSet
1245 1021 m 4
 1444 1021 1618 865 1618 664 c 4
 1618 568 1576 481 1513 421 c 5
 1592 368 1653 282 1653 161 c 4
 1653 -99 1439 -203 1170 -206 c 4
 926 -206 696 -205 453 -205 c 4
 336 -205 242 -226 242 -311 c 4
 242 -394 336 -413 444 -413 c 6
 1583 -413 l 6
 1622 -413 1653 -444 1653 -483 c 4
 1653 -521 1621 -553 1583 -553 c 6
 443 -553 l 6
 264 -553 102 -489 102 -310 c 4
 102 -126 266 -65 453 -65 c 4
 697 -65 913 -65 1160 -66 c 4
 1457 -67 1525 65 1525 185 c 4
 1525 240 1447 335 1340 335 c 4
 1330 335 1319 334 1305 334 c 4
 1272 334 1244 370 1244 396 c 4
 1244 442 1270 470 1313 474 c 4
 1403 483 1479 568 1479 661 c 4
 1479 789 1359 880 1228 880 c 4
 1039 880 966 753 966 549 c 6
 966 457 l 6
 966 194 849 -7 591 -7 c 4
 289 -7 99 218 100 527 c 4
 100 755 268 944 442 1017 c 4
 451 1021 462 1023 477 1023 c 4
 507 1023 540 989 540 958 c 4
 540 925 519 897 496 888 c 4
 358 831 240 690 240 504 c 4
 240 305 387 134 582 134 c 4
 759 134 826 265 826 457 c 6
 826 549 l 6
 826 841 953 1021 1245 1021 c 4
EndSplineSet
LCarets2: 1 0
EndChar

StartChar: k3r1
Encoding: 65576 -1 157
Width: 1831
GlyphClass: 3
Flags: HMW
LayerCount: 2
Fore
SplineSet
628 -324 m 0
 628 -410 734 -418 860 -418 c 0
 946 -418 1026 -396 1026 -327 c 0
 1026 -257 923 -221 822 -221 c 0
 724 -221 628 -255 628 -324 c 0
497 1025 m 0
 526 1025 559 988 559 958 c 0
 559 925 536 897 512 888 c 0
 366 835 242 689 242 500 c 0
 242 298 384 119 593 119 c 0
 770 119 844 245 844 443 c 2
 844 535 l 1
 846 810 957 1022 1230 1022 c 0
 1552 1022 1731 715 1731 400 c 0
 1731 -117 1346 -558 839 -558 c 0
 638 -558 487 -493 487 -322 c 0
 487 -158 641 -84 819 -84 c 0
 1008 -84 1167 -156 1167 -331 c 2
 1167 -336 l 1
 1380 -219 1592 68 1592 391 c 0
 1592 646 1465 882 1229 882 c 0
 1042 882 984 730 984 535 c 2
 984 443 l 2
 984 166 863 -20 589 -20 c 0
 309 -20 100 218 100 485 c 0
 100 716 272 1025 497 1025 c 0
EndSplineSet
LCarets2: 1 0
EndChar

StartChar: k3k3
Encoding: 65577 -1 158
Width: 1820
GlyphClass: 3
LigCaretCntFixed: 1
Flags: HMW
LayerCount: 2
Fore
SplineSet
672 -384 m 0
 672 -508 773 -617 896 -617 c 0
 1009 -617 1052 -535 1052 -402 c 2
 1052 -338 l 2
 1052 -142 1151 -11 1338 -11 c 0
 1532 -11 1677 -181 1677 -359 c 0
 1677 -551 1556 -690 1403 -734 c 0
 1397 -736 1390 -737 1382 -737 c 0
 1352 -737 1326 -708 1326 -685 c 0
 1326 -649 1341 -627 1370 -619 c 0
 1470 -589 1557 -490 1557 -371 c 0
 1557 -236 1466 -132 1333 -132 c 0
 1217 -132 1172 -213 1172 -338 c 2
 1172 -402 l 2
 1172 -600 1079 -737 894 -737 c 0
 705 -737 552 -574 552 -389 c 0
 552 -205 658 -75 791 -18 c 0
 799 -15 809 -13 821 -13 c 0
 846 -13 875 -44 875 -69 c 0
 875 -98 862 -118 837 -129 c 0
 745 -167 672 -259 672 -384 c 0
EndSplineSet
Refer: 59 3351 N 1 0 0 1 0 8 2
LCarets2: 2 0 0
EndChar

StartChar: k3k3u1
Encoding: 65578 -1 159
Width: 1820
GlyphClass: 3
LigCaretCntFixed: 1
Flags: HMW
LayerCount: 2
Fore
SplineSet
593 -936 m 0
 593 -814 705 -764 828 -764 c 2
 1194 -764 l 2
 1436 -764 1600 -661 1600 -432 c 4
 1600 -290 1514 -136 1380 -136 c 0
 1249 -136 1212 -218 1212 -355 c 2
 1212 -418 l 2
 1212 -615 1119 -756 936 -756 c 0
 746 -756 592 -591 592 -405 c 0
 592 -210 703 -80 844 -19 c 0
 852 -15 860 -14 868 -14 c 0
 901 -14 927 -43 927 -70 c 0
 927 -100 914 -120 889 -130 c 0
 791 -170 712 -265 712 -399 c 0
 712 -523 809 -635 932 -635 c 0
 1038 -635 1092 -563 1092 -418 c 2
 1092 -355 l 2
 1092 -156 1186 -15 1370 -15 c 0
 1590 -15 1720 -215 1720 -430 c 0
 1720 -740 1493 -889 1182 -889 c 2
 832 -889 l 2
 754 -889 713 -901 713 -941 c 0
 713 -977 755 -995 838 -995 c 2
 1634 -995 l 2
 1691 -995 1719 -1016 1719 -1060 c 0
 1719 -1102 1690 -1124 1632 -1124 c 2
 811 -1124 l 2
 705 -1124 593 -1055 593 -936 c 0
EndSplineSet
Refer: 59 3351 N 1 0 0 1 0 0 2
LCarets2: 1 0
EndChar

StartChar: k3k3u2
Encoding: 65579 -1 160
Width: 1820
GlyphClass: 3
LigCaretCntFixed: 1
Flags: HMW
LayerCount: 2
Fore
SplineSet
1406 -9 m 0
 1565 -9 1695 -138 1695 -275 c 0
 1695 -330 1674 -387 1625 -438 c 1
 1684 -483 1716 -553 1716 -626 c 0
 1716 -802 1557 -888 1369 -888 c 2
 863 -888 l 2
 773 -888 725 -907 725 -952 c 0
 725 -992 769 -1012 856 -1012 c 2
 1659 -1012 l 2
 1682 -1012 1719 -1046 1719 -1072 c 0
 1719 -1098 1695 -1132 1672 -1132 c 2
 856 -1132 l 2
 713 -1132 606 -1065 606 -953 c 0
 606 -825 712 -769 863 -769 c 2
 1396 -769 l 1
 1505 -768 1597 -722 1597 -623 c 0
 1597 -569 1555 -510 1489 -510 c 0
 1481 -510 1473 -511 1462 -511 c 0
 1439 -511 1410 -485 1410 -457 c 0
 1410 -423 1431 -395 1460 -392 c 0
 1532 -385 1573 -329 1573 -270 c 0
 1573 -191 1495 -128 1406 -128 c 0
 1281 -128 1236 -216 1236 -350 c 2
 1236 -414 l 2
 1236 -611 1141 -748 961 -748 c 0
 766 -748 609 -581 609 -391 c 0
 610 -204 719 -69 856 -12 c 0
 864 -9 873 -7 885 -7 c 0
 910 -7 939 -37 939 -63 c 0
 939 -93 926 -112 901 -122 c 0
 805 -162 729 -257 729 -389 c 0
 729 -515 830 -629 956 -629 c 0
 1063 -629 1117 -557 1117 -414 c 2
 1117 -350 l 2
 1117 -147 1216 -9 1406 -9 c 0
EndSplineSet
Refer: 59 3351 N 1 0 0 1 0 0 2
LCarets2: 1 0
EndChar

StartChar: k3k3r1
Encoding: 65580 -1 161
Width: 1820
GlyphClass: 3
LigCaretCntFixed: 1
Flags: HMW
LayerCount: 2
Fore
SplineSet
1277 -850 m 0
 1277 -814 1228 -802 1174 -802 c 0
 1117 -802 1072 -810 1072 -846 c 0
 1072 -885 1154 -883 1193 -883 c 4
 1237 -883 1277 -873 1277 -850 c 0
1030 -680 m 0
 859 -680 721 -531 721 -354 c 0
 721 -197 826 -71 950 -26 c 0
 957 -23 965 -22 974 -22 c 0
 999 -22 1031 -45 1031 -73 c 2
 1031 -74 l 2
 1031 -108 1018 -130 991 -139 c 0
 911 -168 839 -256 839 -351 c 0
 839 -467 925 -561 1036 -561 c 0
 1133 -561 1164 -492 1167 -385 c 1
 1167 -329 l 2
 1167 -152 1243 -21 1417 -21 c 0
 1619 -21 1735 -220 1735 -413 c 0
 1735 -734 1488 -1003 1182 -1003 c 0
 1055 -1003 951 -960 951 -840 c 0
 951 -732 1061 -683 1170 -683 c 0
 1288 -683 1375 -727 1394 -822 c 1
 1499 -754 1616 -592 1616 -415 c 0
 1616 -280 1548 -142 1417 -142 c 0
 1330 -142 1287 -206 1287 -325 c 0
 1287 -345 1287 -365 1287 -385 c 0
 1285 -562 1201 -680 1030 -680 c 0
EndSplineSet
Refer: 59 3351 N 1 0 0 1 0 0 2
LCarets2: 1 0
EndChar

StartChar: k3th3
Encoding: 65581 -1 162
Width: 1736
GlyphClass: 3
LigCaretCntFixed: 1
Flags: HMW
LayerCount: 2
Fore
SplineSet
1497 279 m 0
 1497 382 1393 403 1270 403 c 0
 1233 403 1201 436 1201 472 c 0
 1201 508 1228 543 1260 543 c 0
 1376 543 1467 581 1467 690 c 0
 1467 821 1324 883 1200 883 c 0
 1001 883 922 767 920 560 c 1
 920 439 l 1
 917 185 803 -30 550 -30 c 0
 288 -30 100 227 100 473 c 0
 100 729 247 931 425 1017 c 0
 435 1022 448 1025 463 1025 c 0
 492 1025 526 991 526 963 c 0
 526 928 513 904 486 891 c 0
 355 828 241 670 241 485 c 0
 241 314 362 111 538 111 c 0
 715 111 775 255 777 442 c 1
 777 562 l 1
 782 842 920 1025 1192 1025 c 0
 1407 1025 1607 908 1607 692 c 0
 1607 616 1576 543 1523 490 c 1
 1598 439 1636 370 1636 280 c 0
 1636 100 1478 -19 1299 -19 c 0
 1228 -19 1096 2 1096 88 c 0
 1096 119 1129 153 1160 153 c 0
 1202 153 1250 120 1297 120 c 0
 1395 120 1497 185 1497 279 c 0
EndSplineSet
LCarets2: 2 0 0
EndChar

StartChar: k3th3r1
Encoding: 65584 -1 165
Width: 1782
GlyphClass: 3
LigCaretCntFixed: 1
Flags: HMW
LayerCount: 2
Fore
SplineSet
240 481 m 0
 240 293 366 116 552 116 c 0
 720 116 773 249 776 421 c 1
 779 541 l 1
 784 823 910 1025 1196 1025 c 0
 1405 1025 1603 895 1603 683 c 0
 1603 584 1553 489 1477 436 c 1
 1591 353 1682 205 1682 23 c 0
 1682 -370 1313 -620 919 -621 c 0
 709 -621 489 -569 489 -349 c 0
 489 -153 691 -69 873 -69 c 0
 1060 -69 1272 -149 1272 -352 c 0
 1272 -369 1270 -387 1266 -405 c 1
 1411 -325 1542 -186 1542 22 c 0
 1542 215 1425 382 1256 384 c 4
 1224 384 1200 421 1200 452 c 0
 1200 491 1231 522 1270 522 c 0
 1376 522 1464 573 1464 682 c 0
 1464 808 1330 886 1199 886 c 0
 993 886 923 745 919 538 c 1
 916 418 l 1
 912 169 802 -24 550 -24 c 0
 285 -24 100 216 100 479 c 0
 100 727 246 921 417 1015 c 0
 426 1020 441 1024 451 1024 c 0
 490 1024 521 993 521 954 c 0
 521 931 505 904 484 893 c 0
 353 821 240 673 240 481 c 0
1131 -356 m 0
 1131 -243 991 -209 874 -209 c 0
 764 -209 629 -241 629 -350 c 0
 629 -442 751 -485 875 -485 c 0
 1002 -485 1131 -440 1131 -356 c 0
EndSplineSet
LCarets2: 1 0
EndChar

StartChar: k3th3th4
Encoding: 65585 -1 166
Width: 2954
GlyphClass: 3
LigCaretCntFixed: 1
Flags: HMW
LayerCount: 2
Fore
SplineSet
1502 280 m 0
 1502 360 1398 379 1304 382 c 1
 1271 382 l 1
 1235 383 1203 414 1203 450 c 0
 1203 486 1230 517 1261 522 c 1
 1289 522 l 1
 1400 539 1470 581 1470 675 c 0
 1470 787 1349 878 1233 878 c 0
 1003 878 940 697 923 468 c 0
 904 209 797 -21 524 -21 c 0
 257 -21 100 219 100 471 c 0
 100 708 212 902 357 1010 c 0
 369 1019 383 1024 401 1024 c 0
 439 1024 469 989 469 950 c 0
 469 929 459 911 440 897 c 0
 333 818 239 652 239 479 c 0
 239 288 356 118 526 118 c 0
 715 118 764 282 778 476 c 0
 799 773 928 1019 1220 1019 c 0
 1424 1019 1610 878 1610 675 c 0
 1610 598 1578 525 1523 475 c 1
 1584 438 1641 373 1641 279 c 0
 1641 225 1622 182 1587 139 c 1
 1732 174 1879 280 1879 437 c 2
 1879 951 l 2
 1879 988 1913 1020 1950 1020 c 0
 1988 1020 2021 988 2021 950 c 2
 2021 432 l 2
 2021 264 2189 128 2362 128 c 0
 2564 128 2713 284 2713 489 c 0
 2713 695 2545 881 2345 881 c 0
 2314 881 2290 875 2256 875 c 0
 2228 875 2198 913 2198 943 c 0
 2198 979 2226 1021 2257 1021 c 0
 2609 1021 2855 835 2855 497 c 0
 2855 193 2620 -12 2358 -12 c 0
 2178 -12 2021 95 1943 228 c 1
 1852 88 1696 -15 1459 -15 c 0
 1349 -15 1230 14 1121 69 c 0
 1105 76 1090 107 1090 133 c 0
 1090 163 1123 198 1153 198 c 0
 1168 198 1178 196 1184 193 c 0
 1226 174 1273 165 1316 165 c 0
 1394 165 1502 202 1502 280 c 0
EndSplineSet
LCarets2: 4 1 2961 0 0
EndChar

StartChar: k3n1
Encoding: 65588 -1 169
Width: 2397
GlyphClass: 3
LigCaretCntFixed: 1
Flags: HMW
LayerCount: 2
Fore
SplineSet
1802 888 m 0
 1638 888 1496 750 1496 604 c 6
 1496 38 l 2
 1496 2 1465 -30 1431 -30 c 0
 1385 -30 1356 -2 1356 38 c 2
 1356 526 l 1
 1355 710 1301 884 1143 884 c 0
 1032 884 957 777 957 663 c 0
 957 609 990 435 990 357 c 0
 990 131 814 -29 585 -29 c 0
 292 -29 100 222 100 497 c 0
 100 731 217 910 358 1016 c 0
 371 1025 385 1030 399 1030 c 0
 442 1030 471 997 471 961 c 0
 471 936 461 916 442 902 c 0
 335 822 241 682 241 509 c 0
 241 301 367 111 585 111 c 0
 735 111 850 207 850 361 c 0
 850 476 816 593 816 665 c 0
 816 846 953 1025 1138 1025 c 0
 1287 1025 1384 927 1435 828 c 1
 1512 950 1629 1029 1803 1029 c 0
 2085 1029 2297 789 2297 512 c 0
 2297 204 2065 -29 1754 -29 c 0
 1689 -29 1631 -19 1631 45 c 0
 1631 114 1691 112 1755 112 c 0
 1983 112 2157 283 2157 508 c 0
 2157 705 2015 888 1802 888 c 0
EndSplineSet
LCarets2: 2 0 2
EndChar

StartChar: k3n1u1
Encoding: 65589 -1 170
Width: 2504
GlyphClass: 3
LigCaretCntFixed: 1
Flags: HMW
LayerCount: 2
Fore
SplineSet
2048 487 m 0
 1944 487 1852 410 1852 298 c 0
 1852 199 1935 109 2042 109 c 0
 2140 109 2228 192 2228 297 c 0
 2228 384 2161 487 2048 487 c 0
2234 562 m 1
 2174 732 2032 886 1812 886 c 0
 1568 886 1477 702 1477 438 c 2
 1477 42 l 1
 1476 -2 1451 -25 1400 -26 c 0
 1368 -26 1337 9 1337 42 c 2
 1337 505 l 1
 1336 698 1284 890 1123 890 c 0
 994 890 942 778 942 628 c 0
 942 536 970 417 970 354 c 0
 970 137 795 -25 584 -25 c 0
 309 -25 100 211 100 497 c 0
 100 732 233 922 387 1021 c 0
 399 1029 413 1033 430 1033 c 0
 468 1033 496 998 496 958 c 0
 496 935 485 917 463 904 c 0
 348 830 240 682 240 499 c 0
 240 291 363 115 572 115 c 0
 719 115 832 222 832 364 c 0
 832 430 799 597 799 634 c 0
 799 847 922 1028 1120 1028 c 0
 1258 1028 1370 928 1420 817 c 1
 1500 944 1634 1027 1819 1027 c 0
 2149 1027 2404 730 2404 397 c 0
 2404 173 2266 -29 2041 -29 c 0
 1853 -29 1712 115 1712 303 c 0
 1712 485 1863 626 2047 626 c 0
 2114 626 2176 604 2234 562 c 1
EndSplineSet
LCarets2: 1 0
EndChar

StartChar: k3n1u2
Encoding: 65590 -1 171
Width: 2723
GlyphClass: 3
LigCaretCntFixed: 1
Flags: HMW
LayerCount: 2
Fore
SplineSet
2032 105 m 0
 2160 105 2236 235 2236 372 c 0
 2236 401 2233 432 2227 465 c 1
 2187 478 2149 485 2113 485 c 0
 1981 485 1868 397 1868 278 c 0
 1868 183 1943 105 2032 105 c 0
1806 884 m 0
 1631 884 1479 752 1479 593 c 2
 1479 40 l 2
 1479 2 1447 -30 1409 -30 c 0
 1371 -30 1339 2 1339 39 c 2
 1339 494 l 2
 1339 694 1289 883 1124 883 c 0
 1014 883 940 778 940 664 c 0
 940 609 972 439 972 362 c 0
 972 140 801 -26 581 -26 c 0
 313 -26 100 205 100 487 c 0
 100 733 232 916 389 1017 c 0
 400 1024 414 1028 431 1028 c 0
 469 1028 497 993 497 953 c 0
 497 930 486 912 464 899 c 0
 348 826 242 679 242 503 c 0
 242 292 375 114 580 114 c 0
 725 114 832 221 832 367 c 0
 832 483 799 595 799 668 c 0
 799 848 937 1023 1117 1023 c 0
 1259 1023 1368 925 1421 815 c 1
 1497 937 1625 1024 1800 1024 c 0
 2085 1024 2275 800 2346 566 c 1
 2502 487 2623 336 2623 114 c 0
 2622 -164 2404 -381 2125 -381 c 0
 2027 -381 1930 -352 1849 -298 c 0
 1828 -284 1817 -266 1817 -244 c 0
 1817 -204 1845 -169 1883 -169 c 0
 1900 -169 1915 -173 1927 -181 c 0
 1989 -223 2056 -241 2121 -241 c 0
 2312 -241 2482 -86 2482 102 c 4
 2482 213 2446 303 2376 373 c 1
 2376 369 l 2
 2376 173 2252 -33 2042 -33 c 0
 1872 -33 1727 98 1727 272 c 0
 1727 479 1897 623 2113 623 c 0
 2133 623 2154 622 2175 619 c 1
 2115 742 1981 884 1806 884 c 0
EndSplineSet
LCarets2: 1 0
EndChar

StartChar: k3m1
Encoding: 65591 -1 172
Width: 2009
GlyphClass: 3
LigCaretCntFixed: 1
Flags: HMW
LayerCount: 2
Fore
SplineSet
1558 665 m 0
 1558 443 1403 246 1268 135 c 1
 1768 135 l 1
 1768 535 l 2
 1768 697 1646 791 1512 846 c 1
 1542 790 1558 729 1558 665 c 0
1305 1026 m 0
 1608 1026 1909 821 1909 552 c 2
 1909 65 l 2
 1909 27 1876 -5 1838 -5 c 2
 1019 -5 l 2
 978 -5 949 30 949 66 c 0
 949 95 973 126 1000 136 c 0
 1180 210 1416 412 1416 647 c 0
 1416 776 1358 872 1235 872 c 0
 1054 872 999 698 989 512 c 1
 989 460 l 1
 977 189 857 -22 577 -22 c 0
 299 -22 100 221 100 498 c 0
 100 741 243 927 412 1016 c 0
 423 1022 435 1025 446 1025 c 0
 483 1025 516 996 516 957 c 0
 516 925 499 903 477 892 c 0
 349 824 240 683 240 498 c 0
 240 297 380 118 578 118 c 0
 769 118 837 268 847 466 c 1
 847 518 l 1
 862 817 1005 1026 1305 1026 c 0
EndSplineSet
LCarets2: 2 0 0
EndChar

StartChar: k3r3
Encoding: 65594 -1 175
Width: 2273
GlyphClass: 3
Flags: HMW
LayerCount: 2
Fore
SplineSet
1284 557 m 2
 1284 833 1406 1023 1681 1023 c 0
 1993 1023 2171 717 2173 419 c 0
 2173 -104 1804 -422 1267 -422 c 2
 1095 -422 l 1
 534 -420 100 -96 100 454 c 0
 100 690 201 876 328 1003 c 0
 342 1017 359 1024 378 1024 c 0
 417 1024 448 993 448 954 c 0
 448 934 441 917 427 904 c 0
 326 805 240 641 240 453 c 0
 240 -24 612 -277 1096 -281 c 1
 1261 -281 l 2
 1698 -281 2033 -32 2033 391 c 0
 2033 645 1921 881 1673 881 c 0
 1496 881 1424 752 1424 557 c 2
 1424 465 l 2
 1424 190 1302 -4 1031 -4 c 0
 746 -4 540 233 540 500 c 0
 540 760 705 952 905 1021 c 0
 913 1024 924 1025 938 1025 c 0
 965 1025 999 989 999 962 c 0
 999 923 978 897 935 882 c 0
 793 837 680 680 680 503 c 0
 680 304 835 137 1034 137 c 0
 1222 137 1284 268 1284 465 c 2
 1284 557 l 2
EndSplineSet
LCarets2: 1 0
EndChar

StartChar: k4r3
Encoding: 65603 -1 184
Width: 2859
GlyphClass: 3
Flags: HMW
LayerCount: 2
Fore
SplineSet
2163 393 m 1
 2163 520 l 2
 2163 746 2085 880 1859 880 c 0
 1650 880 1560 744 1557 544 c 1
 1557 393 l 1
 2163 393 l 1
1806 -326 m 0
 2163 -326 2262 -312 2330 -312 c 0
 2583 -312 2617 -226 2617 0 c 1
 1484 0 l 2
 1447 0 1414 31 1414 68 c 2
 1414 252 l 1
 948 252 l 2
 912 252 878 280 878 315 c 0
 878 356 904 379 939 390 c 0
 1011 413 1074 510 1074 606 c 0
 1074 729 975 818 848 818 c 0
 720 818 631 720 631 601 c 0
 631 519 682 424 744 399 c 0
 784 384 804 360 804 327 c 0
 804 293 773 257 741 257 c 0
 727 257 716 259 708 262 c 0
 580 313 487 441 487 608 c 0
 487 799 651 960 844 960 c 0
 1052 960 1216 805 1216 596 c 0
 1216 523 1194 452 1152 390 c 1
 1415 390 l 1
 1414 442 1413 490 1413 539 c 0
 1413 828 1581 1020 1868 1020 c 0
 2163 1020 2309 820 2309 517 c 0
 2309 476 2303 377 2303 346 c 2
 2303 319 l 2
 2303 284 2265 258 2234 258 c 2
 1555 258 l 1
 1555 140 l 1
 2618 140 l 1
 2618 954 l 6
 2618 992 2651 1024 2689 1024 c 4
 2719 1024 2759 995 2759 968 c 6
 2759 -37 l 2
 2759 -336 2627 -452 2328 -452 c 0
 2216 -452 2065 -466 1699 -466 c 0
 770 -466 100 -354 100 515 c 0
 100 687 146 845 220 974 c 0
 233 998 251 1010 275 1010 c 0
 316 1010 352 983 352 945 c 0
 352 929 349 916 342 905 c 0
 275 788 241 659 241 520 c 0
 241 -296 938 -326 1806 -326 c 0
EndSplineSet
EndChar

StartChar: ngk1
Encoding: 65608 -1 189
Width: 1896
GlyphClass: 3
LigCaretCntFixed: 1
Flags: HMW
LayerCount: 2
Fore
SplineSet
413 116 m 0
 520 116 607 199 607 302 c 0
 607 365 588 421 588 490 c 1
 493 490 l 1
 362 474 239 414 239 282 c 0
 239 189 321 116 413 116 c 0
1276 511 m 1
 729 511 l 1
 729 318 806 113 999 113 c 0
 1194 113 1276 312 1276 511 c 1
382 882 m 0
 318 882 243 837 243 757 c 0
 243 659 337 640 462 640 c 2
 599 640 l 1
 591 803 519 882 382 882 c 0
1255 644 m 1
 1221 765 1124 884 1001 884 c 0
 870 884 779 770 747 644 c 1
 1255 644 l 1
392 1023 m 0
 529 1023 636 945 691 854 c 1
 749 935 856 1024 989 1024 c 0
 1205 1024 1355 852 1399 650 c 1
 1614 646 1796 528 1796 307 c 0
 1796 129 1644 -25 1461 -25 c 0
 1410 -25 1370 0 1370 47 c 0
 1370 82 1405 116 1446 116 c 0
 1545 116 1653 200 1653 296 c 0
 1653 429 1558 504 1416 510 c 1
 1416 231 1279 -24 997 -24 c 0
 863 -24 757 54 698 132 c 1
 639 37 545 -25 410 -25 c 0
 247 -25 100 114 100 278 c 0
 100 379 151 478 234 542 c 1
 160 584 103 668 103 761 c 0
 103 916 243 1023 392 1023 c 0
EndSplineSet
LCarets2: 2 0 0
EndChar

StartChar: ngk1u1
Encoding: 65609 -1 190
Width: 1948
GlyphClass: 3
LigCaretCntFixed: 1
Flags: HMW
LayerCount: 2
Fore
SplineSet
608 305 m 0
 608 369 588 426 588 494 c 1
 490 494 l 1
 359 478 240 421 240 287 c 0
 240 193 323 119 416 119 c 0
 522 119 608 202 608 305 c 0
1277 511 m 1
 730 511 l 1
 730 316 806 117 1000 117 c 0
 1189 117 1277 320 1277 511 c 1
599 640 m 1
 610 784 536 885 400 885 c 0
 320 885 246 844 246 766 c 0
 246 668 331 640 444 640 c 2
 599 640 l 1
1256 646 m 1
 1222 767 1128 887 1004 887 c 0
 872 887 780 773 747 646 c 1
 1256 646 l 1
1849 173 m 0
 1849 44 1733 -26 1599 -26 c 0
 1528 -26 1446 -2 1446 66 c 0
 1446 96 1479 132 1508 132 c 0
 1529 132 1566 115 1597 115 c 0
 1645 115 1708 137 1708 167 c 0
 1708 217 1610 216 1560 220 c 0
 1529 222 1499 256 1499 290 c 0
 1499 338 1531 352 1570 358 c 0
 1619 366 1707 364 1707 419 c 0
 1707 504 1584 514 1488 514 c 0
 1465 514 1440 514 1416 513 c 1
 1416 505 1417 497 1417 489 c 0
 1417 223 1267 -21 998 -21 c 0
 864 -21 756 58 698 135 c 1
 639 40 546 -21 411 -21 c 0
 247 -21 100 118 100 282 c 0
 100 383 150 482 233 547 c 1
 160 589 104 673 104 765 c 0
 104 920 244 1027 394 1027 c 0
 531 1027 636 948 691 857 c 1
 749 938 856 1027 989 1027 c 0
 1205 1027 1356 857 1399 653 c 1
 1425 654 1451 654 1475 654 c 0
 1670 654 1847 593 1847 419 c 0
 1847 374 1830 306 1765 291 c 1
 1840 252 1849 215 1849 173 c 0
EndSplineSet
LCarets2: 1 0
EndChar

StartChar: ngk1u2
Encoding: 65610 -1 191
Width: 1970
GlyphClass: 3
LigCaretCntFixed: 1
Flags: HMW
LayerCount: 2
Fore
SplineSet
607 307 m 4
 607 371 588 428 588 496 c 5
 408 496 239 454 239 288 c 4
 239 195 321 122 412 122 c 4
 519 122 607 203 607 307 c 4
1276 516 m 5
 729 516 l 5
 729 317 804 118 998 118 c 4
 1193 118 1276 318 1276 516 c 5
399 887 m 4
 319 887 245 845 245 768 c 4
 245 617 447 644 599 647 c 5
 602 774 560 887 399 887 c 4
1255 649 m 5
 1220 773 1126 889 1000 889 c 4
 877 889 779 774 747 649 c 5
 1255 649 l 5
1575 170 m 4
 1518 170 1483 196 1483 242 c 4
 1483 286 1517 313 1568 313 c 4
 1620 313 1689 350 1689 397 c 4
 1689 481 1593 518 1423 518 c 5
 1423 246 1277 -19 996 -19 c 4
 862 -19 756 60 698 137 c 5
 639 42 545 -19 410 -19 c 4
 247 -19 100 120 100 284 c 4
 100 385 151 484 234 548 c 5
 154 593 105 664 105 768 c 4
 105 924 244 1029 393 1029 c 4
 530 1029 636 950 691 859 c 5
 749 940 855 1029 988 1029 c 4
 1204 1029 1354 859 1399 658 c 5
 1620 658 1829 609 1829 391 c 4
 1829 339 1807 291 1764 246 c 5
 1823 197 1851 145 1851 80 c 4
 1851 -68 1719 -188 1596 -188 c 6
 578 -188 l 6
 437 -188 282 -178 282 -300 c 4
 282 -380 369 -405 482 -405 c 6
 1797 -405 l 6
 1824 -405 1869 -426 1869 -456 c 4
 1869 -494 1837 -526 1799 -526 c 6
 474 -526 l 6
 303 -526 142 -469 142 -301 c 4
 142 -99 343 -49 549 -49 c 6
 1480 -49 l 6
 1607 -49 1713 -23 1713 69 c 4
 1713 126 1653 171 1593 171 c 4
 1587 171 1581 170 1575 170 c 4
EndSplineSet
LCarets2: 1 0
EndChar

StartChar: ngk1r1
Encoding: 65611 -1 192
Width: 1943
GlyphClass: 3
LigCaretCntFixed: 1
Flags: HMW
LayerCount: 2
Fore
SplineSet
691 855 m 1
 753 942 859 1025 1000 1025 c 0
 1237 1025 1371 822 1406 625 c 1
 1657 581 1843 398 1843 103 c 0
 1843 -350 1497 -624 1015 -624 c 0
 816 -624 602 -563 602 -354 c 0
 602 -156 802 -72 985 -72 c 0
 1174 -72 1385 -151 1385 -357 c 0
 1385 -380 1380 -401 1375 -420 c 1
 1382 -418 1390 -415 1397 -413 c 0
 1570 -316 1703 -130 1703 103 c 0
 1703 310 1584 437 1417 479 c 1
 1415 227 1268 -23 1000 -23 c 0
 866 -23 762 51 699 132 c 1
 643 41 534 -24 419 -24 c 0
 245 -24 100 113 100 287 c 0
 100 399 162 492 232 546 c 1
 163 587 106 661 106 762 c 0
 106 921 239 1023 395 1023 c 0
 519 1023 634 951 691 855 c 1
999 885 m 1
 856 885 777 759 747 642 c 1
 1259 638 l 1
 1227 759 1144 881 999 885 c 1
601 676 m 4
 601 791 507 883 393 883 c 0
 315 883 246 838 246 761 c 0
 246 608 460 643 600 643 c 1
 600 654 601 665 601 676 c 4
729 502 m 1
 729 306 811 117 1000 117 c 0
 1191 117 1277 311 1277 497 c 1
 729 502 l 1
417 116 m 0
 526 116 622 210 607 331 c 1
 595 384 589 438 589 492 c 1
 479 496 l 1
 344 496 240 417 240 288 c 0
 240 193 321 116 417 116 c 0
987 -212 m 0
 875 -212 742 -243 742 -355 c 0
 742 -471 896 -478 1013 -478 c 0
 1122 -478 1244 -463 1244 -358 c 0
 1244 -243 1102 -212 987 -212 c 0
EndSplineSet
LCarets2: 1 0
EndChar

StartChar: ngng
Encoding: 65612 -1 193
Width: 2566
GlyphClass: 3
LigCaretCntFixed: 1
Flags: HMW
LayerCount: 2
Fore
SplineSet
447 124 m 0
 521 124 582 187 582 261 c 0
 582 340 520 401 444 401 c 0
 367 401 299 342 299 259 c 0
 299 180 375 124 447 124 c 0
1033 778 m 1
 935 684 878 554 878 380 c 0
 878 250 935 119 1060 119 c 0
 1180 119 1245 239 1245 365 c 0
 1245 551 1169 676 1033 778 c 1
2116 -21 m 0
 2052 -21 1871 7 1871 91 c 0
 1871 131 1899 168 1936 168 c 0
 1952 168 1971 161 1994 148 c 0
 2023 131 2071 121 2119 121 c 0
 2217 121 2327 166 2327 258 c 0
 2327 346 2241 391 2070 394 c 1
 2035 394 l 1
 1999 395 1966 426 1966 464 c 0
 1966 501 1996 534 2033 534 c 2
 2063 534 l 1
 2199 540 2290 581 2290 691 c 0
 2290 812 2147 881 2023 881 c 0
 1806 881 1721 749 1721 517 c 2
 1721 48 l 2
 1721 13 1694 -22 1660 -22 c 0
 1620 -22 1585 3 1585 46 c 2
 1585 494 l 2
 1585 726 1504 890 1291 890 c 0
 1246 890 1200 880 1155 860 c 1
 1296 739 1386 582 1386 366 c 0
 1386 165 1269 -21 1063 -21 c 0
 849 -21 738 174 738 377 c 0
 738 577 800 729 907 848 c 1
 841 874 777 885 717 885 c 0
 463 885 260 691 242 458 c 1
 298 514 362 542 435 542 c 0
 593 542 722 420 722 264 c 0
 722 122 601 -18 451 -18 c 0
 224 -18 100 203 100 426 c 0
 100 773 389 1025 721 1025 c 0
 819 1025 922 1002 1024 948 c 1
 1108 1002 1194 1028 1282 1028 c 0
 1452 1028 1576 949 1650 828 c 1
 1730 957 1852 1021 2017 1021 c 0
 2233 1021 2428 893 2428 687 c 0
 2428 610 2397 535 2334 480 c 1
 2404 438 2466 364 2466 255 c 0
 2466 79 2292 -21 2116 -21 c 0
EndSplineSet
LCarets2: 2 0 0
EndChar

StartChar: ch1ch1
Encoding: 65617 -1 198
Width: 1525
GlyphClass: 3
LigCaretCntFixed: 1
Flags: HMW
LayerCount: 2
Fore
SplineSet
1285 2 m 1
 1110 2 l 1
 769 -288 l 1
 1285 -288 l 1
 1285 2 l 1
695 745 m 0
 879 745 1036 576 1036 385 c 0
 1036 297 1007 209 951 140 c 1
 1283 140 l 1
 1283 969 l 2
 1283 995 1323 1026 1353 1026 c 0
 1383 1026 1423 997 1423 970 c 2
 1423 -346 l 2
 1423 -383 1393 -416 1356 -416 c 2
 575 -416 l 2
 548 -416 504 -391 504 -360 c 0
 504 -340 512 -323 528 -309 c 2
 892 0 l 1
 121 0 l 2
 95 0 50 38 50 68 c 0
 50 106 82 138 120 138 c 2
 682 138 l 2
 801 138 897 252 897 387 c 0
 897 504 799 605 689 605 c 0
 584 605 501 524 501 414 c 0
 501 367 523 339 523 302 c 0
 523 272 489 239 458 239 c 0
 377 239 359 351 359 418 c 0
 359 597 510 745 695 745 c 0
EndSplineSet
LCarets2: 2 0 0
EndChar

StartChar: ch1ch2
Encoding: 65620 -1 201
Width: 1721
GlyphClass: 3
LigCaretCntFixed: 1
Flags: HMW
LayerCount: 2
Fore
SplineSet
745 743 m 4
 940 743 1093 572 1093 380 c 4
 1093 285 1062 206 1007 138 c 5
 1457 139 l 5
 1457 956 l 6
 1457 994 1488 1026 1527 1026 c 4
 1566 1026 1597 995 1597 956 c 6
 1597 69 l 6
 1597 30 1566 -3 1527 -3 c 6
 177 -3 l 5
 176 -5 l 5
 137 -5 106 26 106 65 c 4
 106 104 137 135 176 135 c 6
 177 135 l 5
 736 137 l 5
 853 151 953 251 953 379 c 4
 953 498 862 603 743 603 c 4
 642 603 557 522 557 413 c 4
 557 386 562 359 573 336 c 4
 577 328 579 316 579 307 c 4
 579 268 548 237 509 237 c 4
 435 237 416 348 416 414 c 4
 416 604 567 743 745 743 c 4
849 -427 m 4
 849 -191 1051 -13 1286 -13 c 5
 1523 -15 1721 -184 1721 -425 c 4
 1721 -598 1599 -749 1421 -749 c 4
 1252 -749 1131 -605 1131 -437 c 4
 1131 -307 1209 -189 1309 -134 c 5
 1301 -133 1293 -133 1285 -133 c 4
 1117 -133 969 -259 969 -426 c 4
 969 -508 1010 -593 1074 -643 c 4
 1087 -653 1097 -674 1097 -690 c 4
 1097 -724 1070 -748 1036 -748 c 6
 168 -748 l 6
 135 -748 108 -719 108 -686 c 4
 108 -652 135 -626 169 -626 c 6
 494 -626 l 5
 575 -620 645 -550 645 -464 c 4
 645 -384 583 -314 502 -314 c 4
 432 -314 375 -370 375 -444 c 4
 375 -469 388 -490 388 -514 c 4
 388 -547 361 -574 328 -574 c 4
 270 -574 254 -498 254 -443 c 4
 254 -300 368 -194 504 -194 c 4
 649 -194 765 -320 765 -463 c 4
 765 -527 745 -581 711 -628 c 5
 905 -629 l 5
 869 -568 849 -498 849 -427 c 4
1500 -211 m 5
 1477 -211 l 6
 1353 -211 1251 -313 1251 -438 c 4
 1251 -539 1322 -629 1421 -629 c 4
 1532 -629 1601 -533 1601 -423 c 4
 1601 -327 1557 -260 1500 -211 c 5
EndSplineSet
LCarets2: 2 0 0
EndChar

StartChar: ch2u1
Encoding: 65621 -1 202
Width: 2696
GlyphClass: 3
LigCaretCntFixed: 1
Flags: HMW
LayerCount: 2
Fore
SplineSet
1974 140 m 0
 2130 140 2247 276 2247 423 c 0
 2247 553 2195 665 2122 742 c 1
 1913 765 1745 589 1745 402 c 0
 1745 261 1835 140 1974 140 c 0
335 -555 m 0
 179 -555 48 -458 48 -333 c 0
 48 -164 224 -116 417 -116 c 2
 2006 -119 l 2
 2281 -119 2505 33 2505 306 c 0
 2505 453 2434 591 2345 657 c 1
 2372 591 2386 511 2386 445 c 0
 2386 203 2222 -4 1984 -4 c 0
 1765 -4 1602 175 1602 400 c 0
 1602 635 1756 803 1933 861 c 1
 1887 875 1841 883 1795 883 c 0
 1574 883 1357 680 1357 438 c 0
 1357 308 1426 186 1505 121 c 0
 1522 107 1530 90 1530 69 c 0
 1530 29 1499 -3 1460 -3 c 2
 125 -3 l 2
 92 -3 54 40 54 67 c 0
 54 102 80 143 110 143 c 2
 682 143 l 1
 793 153 896 257 901 372 c 1
 901 376 l 1
 902 383 903 391 903 398 c 0
 903 499 802 612 698 612 c 0
 686 612 674 608 662 608 c 0
 573 608 504 499 504 413 c 0
 504 377 528 348 528 315 c 0
 528 279 500 244 463 244 c 0
 385 244 363 349 363 418 c 0
 363 606 513 751 696 751 c 0
 897 751 1044 588 1044 388 c 0
 1044 293 1006 204 951 139 c 1
 1305 139 l 1
 1245 232 1215 330 1215 433 c 0
 1215 762 1470 1023 1794 1023 c 0
 1960 1023 2085 968 2187 878 c 1
 2438 835 2649 602 2649 314 c 0
 2649 -66 2364 -258 1963 -258 c 2
 416 -256 l 2
 307 -256 190 -258 190 -336 c 0
 190 -423 331 -415 435 -415 c 2
 2563 -415 l 2
 2601 -415 2633 -432 2633 -470 c 0
 2633 -508 2601 -540 2563 -540 c 0
 2243 -542 675 -555 335 -555 c 0
EndSplineSet
LCarets2: 1 0
EndChar

StartChar: ch2u2
Encoding: 65622 -1 203
Width: 2894
GlyphClass: 3
LigCaretCntFixed: 1
Flags: HMW
LayerCount: 2
Fore
SplineSet
2152 706 m 1
 1934 690 1743 568 1743 381 c 0
 1743 254 1844 125 1968 125 c 4
 2127 125 2244 272 2244 456 c 0
 2244 546 2214 629 2152 706 c 1
379 -243 m 1
 279 -246 191 -275 191 -334 c 0
 191 -426 330 -411 420 -411 c 2
 2564 -411 l 2
 2591 -411 2636 -435 2636 -465 c 0
 2636 -503 2604 -535 2566 -535 c 2
 391 -535 l 2
 202 -535 50 -496 50 -333 c 0
 50 -160 228 -111 427 -111 c 2
 2316 -111 l 1
 2487 -109 2658 -63 2658 80 c 0
 2658 154 2586 226 2515 226 c 0
 2495 226 2484 222 2460 222 c 0
 2433 222 2402 259 2402 288 c 0
 2402 325 2425 350 2455 360 c 0
 2508 378 2558 437 2558 508 c 0
 2558 632 2452 687 2320 704 c 1
 2355 638 2385 559 2385 456 c 0
 2385 210 2221 -16 1977 -16 c 4
 1776 -16 1603 173 1603 380 c 0
 1603 627 1802 773 2004 824 c 1
 1937 857 1867 879 1801 879 c 0
 1563 879 1357 681 1357 448 c 0
 1357 311 1427 193 1507 126 c 0
 1524 112 1533 95 1533 74 c 0
 1533 34 1502 2 1463 2 c 2
 127 2 l 2
 89 2 57 40 57 78 c 0
 57 108 86 148 112 148 c 2
 684 148 l 2
 803 148 905 269 905 388 c 0
 905 509 816 620 695 620 c 0
 584 620 507 517 507 419 c 0
 507 376 530 347 530 313 c 0
 530 283 495 250 465 250 c 0
 386 250 366 357 366 426 c 0
 366 601 502 756 679 756 c 0
 881 756 1043 601 1043 398 c 0
 1043 307 1012 215 953 145 c 1
 1308 145 l 1
 1249 236 1219 336 1219 448 c 0
 1219 761 1483 1019 1803 1019 c 0
 1961 1019 2097 957 2210 849 c 1
 2494 849 2698 726 2698 507 c 0
 2698 443 2679 385 2641 333 c 1
 2722 292 2795 191 2795 78 c 0
 2795 -132 2610 -243 2397 -243 c 2
 379 -243 l 1
EndSplineSet
LCarets2: 1 0
EndChar

StartChar: ch2r1
Encoding: 65623 -1 204
Width: 2891
GlyphClass: 3
LigCaretCntFixed: 1
Flags: HMW
LayerCount: 2
Fore
SplineSet
1213 450 m 0
 1213 767 1470 1028 1788 1028 c 0
 1930 1028 2073 970 2172 884 c 1
 2528 867 2791 581 2791 213 c 0
 2791 -300 2353 -611 1841 -611 c 0
 1629 -611 1427 -550 1427 -340 c 0
 1427 -142 1628 -59 1811 -59 c 0
 1999 -59 2210 -138 2210 -344 c 0
 2210 -366 2207 -386 2202 -404 c 1
 2436 -311 2650 -102 2650 214 c 0
 2650 468 2503 647 2305 716 c 1
 2346 640 2378 545 2378 436 c 0
 2378 199 2218 -12 1975 -12 c 0
 1758 -12 1598 175 1598 389 c 0
 1598 619 1770 793 1956 855 c 1
 1903 877 1845 888 1788 888 c 0
 1549 888 1353 689 1353 450 c 0
 1353 325 1409 199 1502 117 c 0
 1515 105 1526 81 1526 64 c 0
 1526 25 1495 -6 1456 -6 c 2
 121 -2 l 1
 120 -2 l 2
 81 -2 50 29 50 68 c 0
 50 107 81 138 120 138 c 2
 121 138 l 1
 657 136 l 2
 784 136 897 254 897 384 c 0
 897 503 806 607 687 607 c 0
 586 607 501 527 501 418 c 0
 501 391 506 364 517 341 c 0
 521 333 523 320 523 311 c 0
 523 272 492 241 453 241 c 0
 379 241 360 352 360 418 c 0
 360 608 511 748 689 748 c 0
 884 748 1037 577 1037 385 c 0
 1037 287 1003 205 945 136 c 1
 1305 134 l 1
 1245 228 1213 338 1213 450 c 0
2238 438 m 0
 2238 901 1738 725 1738 388 c 0
 1738 251 1838 128 1974 128 c 0
 2139 128 2238 274 2238 438 c 0
1813 -199 m 0
 1702 -199 1567 -231 1567 -341 c 0
 1567 -457 1722 -469 1841 -469 c 0
 1947 -469 2070 -445 2070 -345 c 0
 2070 -231 1928 -199 1813 -199 c 0
EndSplineSet
LCarets2: 1 0
EndChar

StartChar: ch3u1
Encoding: 65624 -1 205
Width: 1847
GlyphClass: 3
LigCaretCntFixed: 1
Flags: HMW
LayerCount: 2
Fore
SplineSet
252 200 m 0
 252 152 317 123 379 123 c 0
 507 123 613 177 797 279 c 1
 739 286 681 288 628 288 c 0
 473 288 252 303 252 200 c 0
1127 213 m 0
 1127 157 1164 119 1218 119 c 0
 1261 119 1293 149 1293 192 c 0
 1293 264 1238 299 1166 301 c 1
 1140 271 1127 242 1127 213 c 0
241 698 m 0
 241 623 298 583 363 583 c 0
 407 583 439 643 439 688 c 0
 439 736 397 781 352 781 c 0
 293 781 241 756 241 698 c 0
1388 531 m 1
 1580 521 1748 376 1748 166 c 0
 1748 -134 1470 -253 1146 -253 c 0
 996 -254 515 -258 358 -261 c 0
 298 -262 242 -288 242 -321 c 0
 242 -365 321 -395 383 -395 c 2
 1688 -395 l 2
 1714 -395 1744 -435 1744 -465 c 0
 1744 -495 1714 -535 1688 -535 c 2
 370 -535 l 1
 229 -531 102 -442 102 -325 c 0
 102 -191 227 -122 352 -120 c 0
 486 -118 1016 -113 1144 -113 c 0
 1387 -113 1604 -48 1604 166 c 0
 1604 297 1496 388 1371 388 c 0
 1360 388 1349 387 1338 386 c 1
 1393 345 1433 273 1433 198 c 0
 1433 76 1321 -21 1218 -21 c 0
 1078 -21 988 85 988 214 c 0
 988 225 989 237 990 248 c 1
 833 172 517 -17 375 -17 c 0
 232 -17 113 63 113 201 c 0
 113 361 269 421 422 421 c 0
 551 421 718 398 871 398 c 0
 1090 398 1278 445 1278 676 c 0
 1278 797 1186 881 1073 881 c 0
 943 881 856 798 856 663 c 0
 856 610 858 556 858 530 c 0
 858 483 831 449 788 449 c 0
 758 449 717 476 717 502 c 2
 717 676 l 1
 715 799 614 890 490 890 c 2
 461 890 l 1
 529 850 581 777 581 675 c 0
 581 552 471 441 352 441 c 0
 199 441 100 575 100 705 c 0
 100 882 278 1031 462 1031 c 0
 608 1031 721 974 787 886 c 1
 844 961 944 1024 1067 1024 c 0
 1269 1024 1421 864 1421 678 c 0
 1421 630 1411 580 1388 531 c 1
EndSplineSet
LCarets2: 1 0
EndChar

StartChar: ch3u2
Encoding: 65625 -1 206
Width: 1970
GlyphClass: 3
LigCaretCntFixed: 1
Flags: HMW
LayerCount: 2
Fore
SplineSet
1214 105 m 4
 1260 105 1296 146 1296 193 c 4
 1296 252 1243 287 1178 292 c 5
 1151 256 1137 226 1137 201 c 4
 1137 142 1165 105 1214 105 c 4
381 278 m 4
 314 278 253 252 253 196 c 4
 253 152 310 122 367 122 c 4
 505 122 571 176 728 263 c 5
 659 269 464 278 381 278 c 4
441 675 m 4
 441 731 396 780 339 780 c 4
 283 780 237 734 237 687 c 4
 237 629 287 570 340 570 c 4
 386 570 441 614 441 675 c 4
238 -326 m 4
 238 -382 336 -399 413 -399 c 6
 1730 -399 l 6
 1768 -399 1801 -433 1801 -471 c 4
 1801 -501 1772 -541 1745 -541 c 6
 441 -541 l 6
 305 -541 214 -514 167 -466 c 4
 124 -421 103 -372 103 -325 c 4
 103 -176 252 -125 436 -125 c 6
 1504 -125 l 6
 1623 -125 1729 -86 1729 14 c 4
 1729 54 1693 104 1642 104 c 4
 1608 104 1577 82 1551 82 c 4
 1510 82 1482 108 1482 155 c 4
 1482 235 1612 227 1612 318 c 4
 1612 394 1533 452 1453 452 c 4
 1407 452 1357 435 1302 401 c 5
 1374 364 1436 286 1436 189 c 4
 1436 67 1338 -34 1215 -34 c 4
 1091 -34 997 65 997 191 c 4
 997 210 999 230 1004 250 c 5
 830 169 570 -19 375 -19 c 4
 238 -19 112 60 112 195 c 4
 112 342 249 418 387 418 c 4
 508 418 736 386 881 386 c 4
 1121 386 1281 495 1281 656 c 4
 1281 788 1188 877 1074 877 c 4
 944 877 854 787 854 645 c 6
 854 498 l 6
 854 473 818 443 789 443 c 4
 753 443 718 474 718 509 c 6
 718 677 l 5
 715 808 614 883 475 883 c 5
 532 849 584 768 584 674 c 4
 584 540 475 436 347 436 c 4
 203 436 100 555 100 697 c 4
 100 900 272 1023 478 1023 c 4
 622 1023 719 974 787 879 c 5
 848 958 941 1016 1064 1016 c 4
 1259 1016 1421 872 1421 680 c 4
 1421 650 1417 619 1409 587 c 5
 1423 589 1437 589 1451 589 c 4
 1618 589 1751 480 1751 319 c 4
 1751 285 1745 253 1732 223 c 5
 1802 192 1871 115 1871 14 c 4
 1871 -161 1699 -267 1517 -267 c 6
 438 -267 l 6
 354 -267 238 -284 238 -326 c 4
EndSplineSet
LCarets2: 1 0
EndChar

StartChar: ch3r1
Encoding: 65626 -1 207
Width: 1757
GlyphClass: 3
LigCaretCntFixed: 1
Flags: HMW
LayerCount: 2
Fore
SplineSet
441 675 m 0
 441 731 396 780 339 780 c 0
 283 780 237 734 237 687 c 0
 237 629 287 570 340 570 c 0
 386 570 441 614 441 675 c 0
1273 -352 m 0
 1273 -273 1176 -248 1068 -248 c 0
 967 -248 874 -272 874 -348 c 0
 874 -429 966 -443 1089 -443 c 0
 1185 -443 1273 -425 1273 -352 c 0
251 196 m 0
 251 150 319 123 377 123 c 0
 462 123 579 164 729 246 c 1
 707 248 479 280 404 280 c 0
 326 280 251 254 251 196 c 0
1205 101 m 0
 1250 101 1288 139 1288 186 c 0
 1288 242 1234 280 1164 280 c 1
 1135 254 1120 226 1120 196 c 0
 1120 141 1162 101 1205 101 c 0
100 686 m 0
 100 883 269 1020 470 1020 c 0
 610 1020 708 968 779 879 c 1
 835 965 925 1020 1039 1020 c 0
 1246 1020 1419 865 1419 657 c 0
 1419 583 1396 514 1352 450 c 1
 1545 407 1707 207 1707 -19 c 0
 1707 -336 1465 -585 1139 -585 c 0
 1126 -585 1113 -585 1100 -584 c 0
 889 -584 733 -522 733 -348 c 0
 733 -186 885 -109 1062 -109 c 0
 1251 -109 1408 -177 1413 -347 c 1
 1513 -265 1565 -171 1565 -35 c 0
 1565 103 1501 217 1407 277 c 1
 1422 245 1428 214 1428 183 c 0
 1428 64 1329 -38 1204 -38 c 0
 1089 -38 981 57 981 182 c 0
 981 195 982 210 984 224 c 1
 817 143 563 -17 376 -17 c 0
 237 -17 111 61 111 198 c 0
 111 346 248 412 388 412 c 4
 508 412 736 379 880 379 c 0
 1076 379 1279 470 1279 656 c 0
 1279 783 1169 879 1042 879 c 0
 934 879 864 798 864 680 c 0
 864 623 867 546 867 482 c 0
 867 456 840 422 810 422 c 0
 761 422 729 448 729 489 c 2
 729 604 l 2
 729 766 643 881 478 881 c 0
 465 881 451 880 437 878 c 1
 512 844 580 764 580 657 c 0
 580 524 476 419 346 419 c 0
 199 419 100 547 100 686 c 0
EndSplineSet
LCarets2: 1 0
EndChar

StartChar: ch3ch3
Encoding: 65627 -1 208
Width: 3075
GlyphClass: 3
LigCaretCntFixed: 1
Flags: HMW
LayerCount: 2
Fore
SplineSet
2833 186 m 0
 2833 242 2788 291 2731 291 c 0
 2675 291 2629 245 2629 198 c 0
 2629 140 2679 81 2732 81 c 0
 2778 81 2833 125 2833 186 c 0
1925 642 m 0
 1925 698 1880 747 1823 747 c 0
 1767 747 1721 701 1721 654 c 0
 1721 596 1771 537 1824 537 c 0
 1870 537 1925 581 1925 642 c 0
474 628 m 0
 474 684 429 733 372 733 c 0
 316 733 270 687 270 640 c 0
 270 582 320 523 373 523 c 0
 419 523 474 567 474 628 c 0
1991 1026 m 0
 2147 1026 2271 980 2343 887 c 1
 2406 965 2512 1020 2621 1020 c 0
 2816 1020 2971 866 2971 673 c 0
 2971 562 2917 460 2842 389 c 1
 2911 355 2976 281 2976 180 c 0
 2976 48 2870 -53 2740 -53 c 0
 2600 -53 2498 55 2498 198 c 1
 2319 88 2135 -109 1858 -109 c 0
 1716 -109 1583 -23 1583 122 c 0
 1583 323 1795 367 1983 367 c 0
 2090 367 2194 360 2293 360 c 0
 2542 360 2832 431 2832 673 c 0
 2832 787 2738 880 2623 880 c 0
 2511 880 2410 801 2408 699 c 2
 2404 498 l 2
 2403 461 2371 431 2334 431 c 0
 2295 431 2264 462 2264 501 c 2
 2267 684 l 1
 2256 819 2139 886 1993 886 c 0
 1957 886 1921 882 1888 873 c 1
 1982 839 2062 749 2062 626 c 0
 2062 474 1943 382 1819 382 c 0
 1757 382 1693 405 1642 455 c 1
 1484 71 1096 -104 580 -104 c 0
 364 -104 100 -86 100 140 c 0
 100 296 251 366 401 366 c 0
 561 366 716 339 860 339 c 0
 1099 339 1349 431 1349 669 c 0
 1349 791 1255 891 1132 891 c 0
 1028 891 913 808 915 703 c 2
 919 511 l 2
 919 472 888 441 849 441 c 0
 812 441 781 471 780 508 c 2
 775 689 l 2
 771 824 703 889 563 889 c 0
 519 889 475 883 435 870 c 1
 532 838 619 747 619 623 c 0
 619 487 516 381 380 381 c 0
 221 381 117 514 117 662 c 0
 117 900 339 1029 561 1029 c 0
 697 1029 799 991 860 907 c 1
 920 977 1021 1031 1130 1031 c 0
 1335 1031 1489 870 1489 668 c 0
 1489 338 1171 198 851 198 c 0
 695 198 553 226 407 226 c 0
 334 226 240 210 240 141 c 0
 240 44 391 36 512 36 c 0
 1061 36 1545 201 1559 683 c 1
 1574 899 1772 1026 1991 1026 c 0
1723 122 m 0
 1723 58 1793 31 1859 31 c 0
 2023 31 2162 138 2277 218 c 1
 2172 219 2069 227 1970 227 c 0
 1866 227 1723 219 1723 122 c 0
EndSplineSet
LCarets2: 2 0 0
EndChar

StartChar: ch3ch3u1
Encoding: 65628 -1 209
Width: 3261
GlyphClass: 3
LigCaretCntFixed: 1
Flags: HMW
LayerCount: 2
Fore
SplineSet
2267 682 m 1
 2269 521 l 2
 2269 482 2238 451 2199 451 c 0
 2162 451 2131 480 2129 517 c 1
 2126 681 l 1
 2125 816 2040 888 1899 892 c 1
 1956 850 1998 776 1998 692 c 0
 1998 553 1887 443 1757 443 c 0
 1697 443 1633 475 1597 509 c 1
 1478 124 1067 -19 579 -19 c 0
 363 -19 111 -10 111 206 c 0
 111 347 244 417 381 417 c 0
 555 417 722 387 874 387 c 0
 1071 387 1278 469 1278 667 c 0
 1278 786 1178 881 1064 881 c 0
 949 881 859 780 850 671 c 1
 856 509 l 1
 856 470 825 439 786 439 c 0
 749 439 718 468 716 505 c 2
 710 670 l 1
 699 806 618 880 472 880 c 2
 467 880 l 1
 525 843 581 766 581 674 c 0
 581 539 470 436 343 436 c 0
 201 436 100 558 100 696 c 0
 100 895 277 1020 472 1020 c 0
 615 1020 722 963 785 875 c 1
 848 957 957 1022 1071 1022 c 0
 1266 1022 1418 859 1418 667 c 0
 1418 380 1141 246 865 246 c 0
 694 246 545 277 386 277 c 0
 327 277 251 262 251 206 c 0
 251 130 388 120 507 120 c 0
 955 120 1355 203 1463 548 c 0
 1481 606 1494 699 1522 765 c 1
 1555 920 1700 1032 1887 1032 c 0
 2031 1032 2139 976 2202 887 c 1
 2265 969 2374 1024 2488 1024 c 0
 2685 1024 2834 863 2834 679 c 0
 2834 631 2824 581 2801 531 c 1
 2999 522 3161 376 3161 171 c 0
 3161 -153 2836 -248 2527 -251 c 1
 1826 -255 l 2
 1759 -255 1656 -261 1656 -322 c 0
 1656 -388 1779 -391 1864 -391 c 2
 3089 -393 l 2
 3128 -393 3159 -424 3159 -463 c 0
 3159 -501 3128 -533 3089 -533 c 0
 2675 -530 2260 -532 1846 -531 c 0
 1691 -531 1517 -485 1517 -322 c 0
 1517 -155 1688 -116 1849 -116 c 1
 2526 -111 l 2
 2760 -109 3022 -65 3022 169 c 0
 3022 298 2913 392 2783 392 c 0
 2772 392 2761 391 2750 390 c 1
 2801 353 2845 282 2845 207 c 0
 2845 87 2749 -17 2625 -17 c 0
 2505 -17 2402 79 2402 207 c 0
 2402 221 2403 236 2406 252 c 1
 2227 166 2042 -5 1788 -5 c 0
 1654 -5 1527 74 1527 211 c 0
 1527 361 1669 430 1813 430 c 0
 1983 430 2143 388 2291 388 c 0
 2487 388 2694 484 2694 681 c 0
 2694 799 2594 884 2481 884 c 0
 2366 884 2267 792 2267 683 c 2
 2267 682 l 1
1758 583 m 0
 1816 583 1858 633 1858 692 c 0
 1858 750 1812 799 1758 799 c 0
 1709 799 1656 757 1656 705 c 0
 1656 642 1695 583 1758 583 c 0
441 673 m 0
 441 729 396 777 338 777 c 0
 293 777 240 741 240 697 c 0
 240 634 280 576 344 576 c 0
 395 576 441 618 441 673 c 0
1668 212 m 0
 1668 158 1732 135 1790 135 c 0
 1923 135 2040 214 2144 271 c 1
 2031 282 1931 290 1822 290 c 0
 1754 290 1668 276 1668 212 c 0
2624 122 m 0
 2670 122 2705 161 2705 206 c 0
 2705 262 2659 297 2616 297 c 0
 2578 297 2543 271 2543 208 c 0
 2543 162 2578 122 2624 122 c 0
EndSplineSet
LCarets2: 1 0
EndChar

StartChar: ch3ch3u2
Encoding: 65629 -1 210
Width: 3377
GlyphClass: 3
LigCaretCntFixed: 1
Flags: HMW
LayerCount: 2
Fore
SplineSet
3189 -557 m 0
 2756 -557 2322 -555 1889 -555 c 0
 1733 -555 1560 -508 1560 -344 c 0
 1560 -179 1732 -140 1892 -140 c 0
 2230 -140 2582 -144 2910 -144 c 0
 3031 -144 3187 -105 3187 13 c 0
 3187 65 3147 106 3096 106 c 0
 3061 106 3045 82 3010 82 c 0
 2971 82 2940 113 2940 152 c 0
 2940 198 2984 222 3021 234 c 1
 3048 252 3069 282 3069 324 c 0
 3069 403 2992 452 2912 452 c 0
 2858 452 2799 428 2759 403 c 1
 2829 368 2893 290 2893 192 c 0
 2893 70 2796 -32 2672 -32 c 0
 2549 -32 2455 65 2455 192 c 0
 2455 213 2458 233 2462 252 c 1
 2277 169 2091 -18 1831 -18 c 0
 1697 -18 1571 81 1571 219 c 0
 1571 368 1712 437 1856 437 c 0
 2026 437 2187 398 2335 398 c 0
 2532 398 2738 480 2738 675 c 0
 2738 788 2646 878 2530 878 c 0
 2412 878 2310 791 2310 682 c 0
 2310 680 2310 678 2310 676 c 2
 2311 516 l 1
 2311 515 l 2
 2311 476 2280 445 2241 445 c 0
 2204 445 2173 474 2171 511 c 1
 2170 675 l 1
 2166 792 2103 854 2000 878 c 1
 2042 836 2071 773 2071 706 c 0
 2071 572 1958 462 1823 462 c 0
 1745 462 1680 495 1632 548 c 1
 1554 92 1143 -36 625 -36 c 2
 567 -36 l 2
 353 -36 112 -27 112 191 c 0
 112 347 265 408 413 408 c 0
 530 408 646 399 756 399 c 0
 992 399 1279 449 1279 682 c 0
 1279 792 1187 877 1074 877 c 0
 952 877 847 784 851 671 c 2
 857 516 l 1
 857 514 l 2
 857 475 826 444 787 444 c 0
 750 444 719 473 717 510 c 2
 711 671 l 2
 706 810 621 885 474 885 c 2
 460 885 l 1
 525 847 579 775 579 676 c 0
 579 541 478 437 345 437 c 0
 200 437 100 557 100 697 c 0
 100 899 273 1025 472 1025 c 0
 617 1025 724 969 787 879 c 1
 849 958 959 1017 1072 1017 c 0
 1266 1017 1419 872 1419 682 c 0
 1419 354 1070 258 752 258 c 0
 638 258 528 268 420 268 c 0
 348 268 252 257 252 191 c 0
 252 113 369 101 482 101 c 0
 532 101 581 104 618 104 c 0
 1126 104 1419 206 1506 641 c 0
 1520 710 1542 787 1595 851 c 1
 1649 956 1769 1028 1917 1028 c 0
 2066 1028 2178 971 2244 880 c 1
 2305 959 2415 1019 2528 1019 c 0
 2725 1019 2878 869 2878 675 c 0
 2878 645 2874 617 2867 589 c 1
 2882 591 2897 592 2912 592 c 0
 3069 592 3209 485 3209 323 c 0
 3209 290 3202 257 3189 226 c 1
 3265 192 3327 118 3327 13 c 0
 3327 -201 3113 -284 2908 -284 c 0
 2574 -284 2238 -280 1897 -280 c 2
 1894 -280 l 2
 1824 -280 1700 -280 1700 -343 c 0
 1700 -411 1816 -415 1902 -415 c 2
 1936 -415 l 1
 3188 -417 l 1
 3189 -417 l 2
 3228 -417 3259 -448 3259 -487 c 0
 3259 -526 3228 -557 3189 -557 c 0
1931 706 m 0
 1931 769 1879 815 1814 815 c 0
 1770 815 1739 798 1714 773 c 1
 1708 759 1704 744 1704 726 c 0
 1704 658 1757 602 1822 602 c 0
 1881 602 1931 648 1931 706 c 0
439 675 m 0
 439 734 396 778 337 778 c 0
 285 778 260 746 241 712 c 1
 241 699 l 2
 241 634 281 577 346 577 c 0
 399 577 439 620 439 675 c 0
2185 265 m 1
 2071 276 1970 297 1861 297 c 0
 1795 297 1711 281 1711 219 c 0
 1711 164 1775 122 1833 122 c 0
 1965 122 2081 208 2185 265 c 1
2671 108 m 0
 2717 108 2753 145 2753 191 c 0
 2753 255 2697 290 2635 294 c 1
 2614 267 2595 234 2595 192 c 0
 2595 145 2626 108 2671 108 c 0
EndSplineSet
LCarets2: 1 0
EndChar

StartChar: ch3ch3r1
Encoding: 65630 -1 211
Width: 3191
GlyphClass: 3
LigCaretCntFixed: 1
Flags: HMW
LayerCount: 2
Fore
SplineSet
2329 683 m 6
 2336 505 l 5
 2336 466 2305 435 2266 435 c 4
 2229 435 2198 464 2196 501 c 6
 2189 682 l 5
 2183 811 2095 888 1955 888 c 4
 1936 888 1916 886 1898 882 c 5
 1978 851 2057 769 2057 661 c 4
 2057 527 1949 428 1825 428 c 4
 1723 428 1645 495 1609 568 c 5
 1580 495 1557 409 1509 326 c 4
 1369 84 1086 -26 717 -26 c 4
 475 -26 112 -47 112 205 c 4
 112 346 246 416 383 416 c 4
 549 416 708 377 854 377 c 4
 1061 377 1279 470 1279 669 c 4
 1279 792 1174 882 1062 882 c 4
 951 882 846 789 850 682 c 6
 857 511 l 6
 859 472 826 441 787 441 c 4
 750 441 719 470 717 507 c 6
 710 683 l 6
 705 810 615 881 477 881 c 6
 460 881 l 5
 522 845 580 767 580 672 c 4
 580 537 469 433 343 433 c 4
 201 433 100 555 100 694 c 4
 100 895 278 1022 474 1022 c 4
 614 1022 719 967 782 882 c 5
 845 965 956 1021 1070 1021 c 4
 1267 1021 1419 862 1419 669 c 4
 1419 545 1358 441 1272 369 c 4
 1158 273 1026 237 846 237 c 4
 683 237 540 276 388 276 c 4
 329 276 252 261 252 205 c 4
 252 94 599 114 717 114 c 4
 1027 114 1273 197 1388 396 c 4
 1431 470 1452 567 1499 666 c 4
 1525 720 1560 777 1609 820 c 5
 1663 939 1790 1028 1953 1028 c 4
 2094 1028 2200 969 2262 882 c 5
 2326 965 2436 1021 2550 1021 c 4
 2745 1021 2898 866 2898 674 c 4
 2898 594 2868 518 2830 464 c 5
 3009 418 3141 255 3141 41 c 4
 3141 -320 2825 -522 2465 -522 c 4
 2290 -522 2100 -475 2100 -288 c 4
 2100 -118 2275 -48 2432 -48 c 4
 2595 -48 2780 -113 2780 -291 c 4
 2780 -298 2780 -305 2779 -312 c 5
 2892 -247 3001 -130 3001 39 c 4
 3001 144 2952 231 2889 281 c 5
 2901 252 2906 222 2906 194 c 4
 2906 74 2806 -26 2683 -26 c 4
 2553 -26 2456 85 2456 208 c 4
 2456 215 2455 222 2456 229 c 5
 2283 142 2101 -8 1852 -8 c 4
 1718 -8 1591 71 1591 208 c 4
 1591 358 1734 427 1878 427 c 4
 2044 427 2200 391 2345 391 c 4
 2546 391 2758 473 2758 674 c 4
 2758 794 2657 880 2543 880 c 4
 2430 880 2325 791 2329 683 c 6
440 671 m 4
 440 727 395 775 337 775 c 4
 292 775 241 741 241 696 c 4
 241 633 280 573 344 573 c 4
 395 573 440 617 440 671 c 4
1827 568 m 4
 1879 568 1917 608 1917 661 c 4
 1917 718 1864 760 1805 760 c 4
 1773 760 1751 750 1726 734 c 5
 1722 721 1721 707 1721 694 c 4
 1721 629 1761 568 1827 568 c 4
2765 198 m 4
 2765 263 2700 294 2630 289 c 5
 2609 267 2596 235 2596 204 c 4
 2596 157 2633 114 2683 114 c 4
 2729 114 2765 153 2765 198 c 4
1731 209 m 4
 1731 155 1796 132 1854 132 c 4
 1988 132 2108 199 2213 256 c 5
 2097 266 1994 287 1883 287 c 4
 1816 287 1731 271 1731 209 c 4
2448 -382 m 4
 2527 -382 2642 -369 2642 -295 c 4
 2642 -208 2527 -188 2435 -188 c 4
 2349 -188 2240 -207 2240 -289 c 4
 2240 -371 2359 -382 2448 -382 c 4
EndSplineSet
LCarets2: 1 0
EndChar

StartChar: ch3nj
Encoding: 65631 -1 212
Width: 3923
GlyphClass: 3
LigCaretCntFixed: 1
Flags: HMW
LayerCount: 2
Fore
SplineSet
781 889 m 1
 843 972 953 1030 1070 1030 c 0
 1268 1028 1419 873 1419 677 c 0
 1419 389 1135 245 846 245 c 0
 683 245 539 284 387 284 c 0
 328 284 252 269 252 214 c 0
 252 134 430 123 568 123 c 0
 615 123 658 124 687 124 c 0
 884 124 1038 152 1168 241 c 0
 1267 309 1367 434 1482 509 c 1
 1535 756 1712 1021 2006 1021 c 0
 2195 1021 2329 904 2396 774 c 1
 2473 917 2625 1030 2833 1030 c 0
 2916 1030 2994 1011 3067 978 c 1
 3136 1009 3211 1025 3287 1025 c 0
 3593 1025 3824 769 3824 466 c 0
 3824 287 3741 113 3601 1 c 0
 3590 -8 3571 -15 3557 -15 c 0
 3518 -15 3487 16 3487 55 c 0
 3487 74 3499 99 3514 111 c 0
 3619 195 3684 332 3684 467 c 0
 3684 691 3513 885 3289 885 c 0
 3265 885 3242 883 3218 879 c 1
 3342 766 3420 607 3420 416 c 0
 3420 199 3286 -18 3057 -18 c 4
 2836 -18 2705 185 2705 402 c 0
 2705 608 2787 765 2917 881 c 1
 2889 887 2862 890 2833 890 c 0
 2561 890 2466 684 2466 407 c 2
 2466 49 l 2
 2466 11 2435 -20 2397 -20 c 0
 2359 -20 2328 10 2327 48 c 2
 2325 398 l 2
 2323 653 2256 881 2006 881 c 0
 1827 881 1706 725 1651 584 c 1
 1684 592 1723 598 1760 598 c 0
 1953 598 2105 470 2105 276 c 0
 2105 106 1978 -25 1810 -25 c 0
 1613 -25 1488 143 1470 323 c 1
 1402 263 1336 187 1247 126 c 0
 1084 14 913 -16 685 -16 c 2
 602 -16 l 2
 378 -16 112 -4 112 214 c 0
 112 355 246 424 383 424 c 0
 549 424 708 386 854 386 c 0
 1062 386 1279 478 1279 677 c 0
 1279 794 1187 889 1068 889 c 0
 949 889 856 802 856 691 c 2
 856 517 l 2
 856 478 826 447 787 447 c 0
 750 447 714 476 714 513 c 2
 714 691 l 2
 714 819 613 888 474 888 c 2
 460 888 l 1
 525 850 579 778 579 679 c 0
 579 544 478 440 345 440 c 0
 200 440 100 560 100 700 c 0
 100 902 273 1028 472 1028 c 0
 612 1028 717 974 781 889 c 1
3066 819 m 1
 2939 739 2845 589 2845 403 c 0
 2845 265 2920 122 3057 122 c 4
 3205 122 3280 274 3280 418 c 0
 3280 594 3189 740 3066 819 c 1
439 678 m 0
 439 737 396 781 337 781 c 0
 291 781 241 747 241 702 c 0
 241 637 281 580 346 580 c 0
 399 580 439 623 439 678 c 0
1811 115 m 0
 1899 115 1965 187 1965 276 c 0
 1965 390 1874 458 1760 458 c 0
 1700 458 1654 442 1610 420 c 1
 1609 405 1608 391 1608 376 c 0
 1608 242 1680 115 1811 115 c 0
EndSplineSet
LCarets2: 2 0 0
EndChar

StartChar: ch3r3
Encoding: 65632 -1 213
Width: 2116
GlyphClass: 3
Flags: HMW
LayerCount: 2
Fore
SplineSet
1588 106 m 0
 1635 106 1670 146 1670 192 c 0
 1670 251 1612 286 1559 290 c 1
 1530 263 1508 226 1508 190 c 0
 1508 146 1544 106 1588 106 c 0
1105 258 m 1
 1048 263 840 291 775 291 c 0
 704 291 628 269 628 210 c 0
 628 164 689 127 744 127 c 0
 880 127 954 174 1105 258 c 1
715 771 m 0
 665 771 617 739 617 678 c 0
 617 618 671 571 725 571 c 0
 777 571 818 615 818 669 c 0
 818 732 769 771 715 771 c 0
1376 242 m 1
 1199 166 942 -14 753 -14 c 0
 616 -14 489 74 489 209 c 0
 489 214 490 219 490 224 c 0
 500 366 627 430 784 430 c 0
 949 430 1105 391 1271 391 c 0
 1464 391 1657 490 1657 667 c 2
 1657 672 l 1
 1656 791 1560 876 1441 876 c 0
 1306 876 1231 800 1231 679 c 2
 1231 508 l 2
 1231 469 1206 438 1161 438 c 0
 1127 438 1097 471 1095 504 c 1
 1095 662 l 1
 1089 801 1032 882 893 882 c 0
 876 882 858 880 838 878 c 1
 895 844 961 764 961 670 c 0
 961 523 841 431 722 431 c 0
 583 431 477 551 477 689 c 0
 477 884 643 1021 849 1021 c 0
 990 1021 1126 962 1164 856 c 1
 1206 944 1318 1018 1440 1018 c 0
 1632 1018 1797 870 1797 681 c 0
 1797 598 1775 525 1732 463 c 1
 1885 434 2016 286 2016 108 c 0
 2016 -274 1664 -390 1257 -391 c 1
 974 -391 l 2
 428 -391 100 -80 100 440 c 0
 100 631 162 840 274 997 c 0
 288 1017 306 1027 328 1027 c 0
 368 1027 402 998 402 960 c 0
 402 943 397 928 388 916 c 0
 293 784 240 604 240 442 c 0
 240 -6 526 -252 973 -252 c 2
 1255 -252 l 1
 1575 -251 1875 -182 1875 99 c 0
 1875 185 1812 294 1758 306 c 1
 1802 254 1810 221 1810 189 c 0
 1810 70 1714 -34 1589 -34 c 0
 1467 -34 1368 65 1368 184 c 0
 1368 203 1371 222 1376 242 c 1
EndSplineSet
EndChar

StartChar: njch1
Encoding: 65639 -1 220
Width: 2734
GlyphClass: 3
LigCaretCntFixed: 1
Flags: HMW
LayerCount: 2
Fore
SplineSet
1653 985 m 1
 1714 1019 1777 1031 1837 1031 c 0
 2082 1031 2297 784 2297 549 c 0
 2297 367 2195 222 2082 140 c 1
 2494 141 l 1
 2494 954 l 2
 2494 992 2525 1024 2564 1024 c 0
 2603 1024 2634 993 2634 954 c 2
 2634 72 l 2
 2634 34 2603 2 2565 2 c 2
 1447 -3 l 1
 1411 -1 1382 31 1382 67 c 0
 1382 105 1413 137 1451 137 c 2
 1604 138 l 2
 1882 140 2156 257 2156 549 c 0
 2156 731 2017 870 1855 895 c 1
 1913 834 1964 742 1964 632 c 0
 1964 461 1839 312 1668 312 c 0
 1495 312 1367 465 1367 639 c 0
 1367 744 1414 836 1467 896 c 1
 1244 875 1167 711 1167 465 c 2
 1167 45 l 2
 1167 7 1135 -24 1097 -24 c 0
 1059 -24 1028 6 1027 44 c 1
 1027 45 l 1
 1025 458 l 2
 1023 713 932 887 680 887 c 0
 436 887 240 686 240 441 c 0
 240 439 240 437 240 435 c 1
 288 542 401 627 539 627 c 0
 722 627 861 474 861 305 c 0
 861 116 702 -24 512 -24 c 0
 258 -24 100 200 100 438 c 0
 100 763 355 1025 681 1025 c 0
 869 1025 1018 930 1093 803 c 1
 1156 918 1316 1027 1483 1027 c 0
 1540 1027 1598 1015 1653 985 c 1
1668 452 m 0
 1763 452 1823 538 1823 633 c 0
 1823 752 1741 829 1655 867 c 1
 1580 831 1507 751 1507 644 c 0
 1507 544 1571 452 1668 452 c 0
515 114 m 0
 628 114 721 196 721 306 c 0
 721 401 644 487 539 487 c 0
 430 487 352 394 352 296 c 0
 352 210 429 114 515 114 c 0
EndSplineSet
LCarets2: 2 0 0
EndChar

StartChar: njch1r1
Encoding: 65642 -1 223
Width: 2743
GlyphClass: 3
Flags: HMW
LayerCount: 2
Fore
SplineSet
2211 -298 m 0
 2211 -221 2148 -185 2030 -185 c 0
 1891 -185 1813 -222 1813 -306 c 0
 1813 -370 1881 -399 2017 -399 c 0
 2142 -399 2211 -367 2211 -298 c 0
515 114 m 0
 628 114 721 196 721 306 c 0
 721 401 644 487 539 487 c 0
 430 487 352 394 352 296 c 0
 352 210 429 114 515 114 c 0
1668 452 m 0
 1763 452 1823 538 1823 633 c 0
 1823 752 1741 829 1655 867 c 1
 1580 831 1507 751 1507 644 c 0
 1507 544 1571 452 1668 452 c 0
1653 985 m 1
 1714 1019 1777 1031 1837 1031 c 0
 2082 1031 2297 784 2297 549 c 0
 2297 367 2195 222 2082 140 c 1
 2494 141 l 1
 2494 954 l 2
 2494 992 2525 1024 2564 1024 c 0
 2603 1024 2634 993 2634 954 c 2
 2634 72 l 2
 2634 -317 2410 -538 2008 -538 c 4
 1838 -538 1671 -470 1671 -302 c 0
 1671 -135 1838 -61 2007 -61 c 0
 2179 -61 2342 -131 2352 -293 c 1
 2430 -221 2467 -118 2485 2 c 1
 1447 -3 l 1
 1411 -1 1382 31 1382 67 c 0
 1382 105 1413 137 1451 137 c 2
 1604 138 l 2
 1882 140 2156 257 2156 549 c 0
 2156 731 2017 870 1855 895 c 1
 1913 834 1964 742 1964 632 c 0
 1964 461 1839 312 1668 312 c 0
 1495 312 1367 465 1367 639 c 0
 1367 744 1414 836 1467 896 c 1
 1244 875 1167 711 1167 465 c 2
 1167 45 l 2
 1167 7 1135 -24 1097 -24 c 0
 1059 -24 1028 6 1027 44 c 1
 1027 45 l 1
 1025 458 l 2
 1023 713 932 887 680 887 c 0
 436 887 240 686 240 441 c 0
 240 439 240 437 240 435 c 1
 288 542 401 627 539 627 c 0
 722 627 861 474 861 305 c 0
 861 116 702 -24 512 -24 c 0
 258 -24 100 200 100 438 c 0
 100 763 355 1025 681 1025 c 0
 869 1025 1018 930 1093 803 c 1
 1156 918 1316 1027 1483 1027 c 0
 1540 1027 1598 1015 1653 985 c 1
EndSplineSet
EndChar

StartChar: njch3
Encoding: 65643 -1 224
Width: 2807
GlyphClass: 3
LigCaretCntFixed: 1
Flags: HMW
LayerCount: 2
Fore
SplineSet
2496 -27 m 0
 2364 -27 2259 60 2259 178 c 0
 2259 187 2260 197 2261 206 c 1
 2099 117 1856 -46 1667 -46 c 0
 1526 -46 1381 34 1381 176 c 0
 1381 359 1557 401 1732 401 c 0
 1854 401 1997 379 2122 379 c 0
 2340 379 2561 454 2561 667 c 0
 2561 793 2468 888 2340 888 c 0
 2194 888 2138 799 2136 641 c 1
 2136 492 l 1
 2135 455 2102 424 2064 424 c 0
 2026 424 1994 456 1994 494 c 2
 1994 639 l 2
 1994 799 1956 889 1795 889 c 1
 1843 829 1869 755 1869 680 c 0
 1869 537 1767 404 1622 404 c 0
 1461 404 1370 546 1370 680 c 0
 1370 752 1393 826 1441 886 c 1
 1237 853 1162 676 1162 426 c 2
 1162 47 l 2
 1162 9 1130 -23 1092 -23 c 0
 1055 -23 1022 9 1022 46 c 2
 1022 422 l 1
 1020 693 920 887 667 887 c 0
 441 887 241 688 241 466 c 0
 241 465 241 464 241 463 c 1
 291 573 397 623 483 623 c 0
 664 623 812 469 812 293 c 0
 812 116 660 -28 492 -28 c 0
 259 -28 100 192 100 438 c 0
 100 757 330 1026 652 1026 c 0
 860 1026 1002 938 1088 784 c 1
 1088 785 l 1
 1149 910 1301 1028 1485 1028 c 0
 1529 1028 1580 1015 1621 992 c 1
 1658 1019 1715 1031 1760 1031 c 0
 1890 1031 2006 973 2068 890 c 1
 2123 969 2217 1030 2336 1030 c 0
 2542 1030 2703 871 2703 667 c 0
 2703 549 2657 463 2569 384 c 1
 2569 383 l 1
 2640 355 2707 275 2707 176 c 0
 2707 51 2619 -27 2496 -27 c 0
1614 543 m 0
 1683 543 1730 605 1730 674 c 0
 1730 757 1691 817 1620 857 c 1
 1569 829 1505 760 1505 685 c 0
 1505 612 1555 543 1614 543 c 0
673 290 m 0
 673 390 589 485 486 485 c 0
 372 485 291 383 291 289 c 0
 291 193 389 108 490 108 c 0
 583 108 673 191 673 290 c 0
2492 92 m 4
 2530 92 2580 122 2580 179 c 4
 2580 224 2537 265 2485 265 c 4
 2438 265 2399 232 2399 178 c 4
 2399 128 2447 92 2492 92 c 4
2062 243 m 1
 2014 246 1824 261 1705 261 c 0
 1613 261 1520 241 1520 174 c 0
 1520 122 1603 94 1670 94 c 0
 1803 94 1893 139 2062 243 c 1
EndSplineSet
LCarets2: 2 0 0
EndChar

StartChar: njch3u1
Encoding: 65644 -1 225
Width: 3139
GlyphClass: 3
LigCaretCntFixed: 1
Flags: HMW
LayerCount: 2
Fore
SplineSet
2510 60 m 0
 2548 60 2598 90 2598 147 c 0
 2598 192 2555 233 2503 233 c 0
 2456 233 2417 200 2417 146 c 0
 2417 96 2465 60 2510 60 c 0
1534 174 m 0
 1534 126 1596 91 1658 91 c 0
 1797 91 1864 132 2038 240 c 1
 1962 244 1767 263 1678 263 c 0
 1603 263 1534 237 1534 174 c 0
495 106 m 0
 606 106 674 210 674 289 c 0
 674 396 589 482 483 482 c 0
 382 482 292 400 292 302 c 0
 292 190 371 106 495 106 c 0
1616 542 m 0
 1675 542 1730 598 1730 669 c 0
 1730 755 1693 815 1620 856 c 1
 1564 825 1504 750 1504 674 c 0
 1504 612 1558 542 1616 542 c 0
483 622 m 0
 665 622 812 468 812 291 c 0
 812 112 665 -33 485 -33 c 0
 251 -33 101 192 101 440 c 0
 101 766 335 1026 659 1026 c 0
 863 1026 1003 933 1088 782 c 1
 1088 784 l 1
 1150 912 1299 1029 1488 1029 c 0
 1532 1029 1577 1023 1621 1008 c 1
 1668 1024 1715 1030 1760 1030 c 0
 1890 1030 2006 971 2068 888 c 1
 2123 967 2217 1029 2336 1029 c 0
 2535 1029 2704 875 2704 681 c 0
 2704 585 2674 508 2624 442 c 1
 2639 444 2653 444 2667 444 c 0
 2870 444 3039 299 3039 99 c 0
 3039 -215 2729 -294 2406 -294 c 2
 1713 -294 l 1
 1618 -295 1536 -315 1536 -364 c 0
 1536 -431 1653 -434 1728 -434 c 2
 2968 -434 l 2
 2995 -434 3039 -476 3039 -506 c 0
 3039 -536 3010 -576 2983 -576 c 2
 1717 -576 l 2
 1535 -576 1396 -509 1396 -360 c 0
 1396 -207 1549 -160 1741 -160 c 2
 2405 -160 l 1
 2668 -158 2898 -104 2898 100 c 0
 2898 217 2792 304 2675 304 c 1
 2675 302 l 1
 2711 260 2721 208 2721 157 c 0
 2721 38 2623 -75 2501 -75 c 0
 2388 -75 2286 19 2286 141 c 0
 2286 168 2291 195 2302 224 c 1
 2115 143 1877 -50 1666 -50 c 0
 1527 -50 1393 33 1393 173 c 0
 1393 323 1529 403 1694 403 c 0
 1788 403 1992 378 2121 378 c 0
 2341 378 2564 455 2564 671 c 0
 2564 793 2460 887 2339 887 c 0
 2212 887 2136 789 2136 648 c 2
 2136 490 l 1
 2135 456 2102 422 2068 422 c 0
 2023 422 1994 453 1994 492 c 2
 1994 665 l 2
 1994 788 1918 888 1795 888 c 1
 1843 828 1869 753 1869 678 c 0
 1869 535 1765 402 1621 402 c 0
 1472 402 1367 524 1367 673 c 0
 1367 763 1393 823 1441 884 c 1
 1287 860 1162 736 1162 582 c 2
 1162 46 l 2
 1162 11 1130 -24 1096 -24 c 0
 1052 -24 1022 6 1022 44 c 2
 1022 420 l 2
 1022 691 919 886 666 886 c 0
 440 886 288 727 249 526 c 1
 312 589 397 622 483 622 c 0
EndSplineSet
LCarets2: 1 0
EndChar

StartChar: njch3u2
Encoding: 65645 -1 226
Width: 3182
GlyphClass: 3
LigCaretCntFixed: 1
Flags: HMW
LayerCount: 2
Fore
SplineSet
2517 61 m 4
 2555 61 2605 91 2605 148 c 4
 2605 193 2562 234 2510 234 c 4
 2463 234 2424 201 2424 147 c 4
 2424 97 2472 61 2517 61 c 4
1534 176 m 0
 1534 126 1594 92 1658 92 c 0
 1795 92 1863 134 2036 241 c 1
 1961 245 1766 264 1678 264 c 0
 1604 264 1534 238 1534 176 c 0
495 108 m 0
 606 108 674 212 674 290 c 0
 674 397 589 483 483 483 c 0
 382 483 293 402 293 304 c 0
 293 191 369 108 495 108 c 0
1618 544 m 0
 1679 544 1730 606 1730 673 c 0
 1730 758 1692 817 1620 857 c 1
 1564 825 1505 751 1505 675 c 0
 1505 612 1556 544 1618 544 c 0
483 623 m 0
 665 623 812 470 812 293 c 0
 812 114 666 -32 486 -32 c 0
 252 -32 101 194 101 442 c 0
 101 768 334 1027 659 1027 c 0
 863 1027 1003 935 1088 784 c 1
 1157 923 1300 1029 1492 1029 c 0
 1537 1029 1579 1023 1621 1009 c 1
 1668 1025 1715 1032 1760 1032 c 0
 1890 1032 2006 973 2068 890 c 1
 2123 969 2217 1030 2336 1030 c 0
 2540 1030 2703 873 2703 672 c 0
 2703 599 2685 543 2652 485 c 1
 2688 494 2722 499 2754 499 c 0
 2899 499 3027 391 3027 250 c 0
 3027 212 3017 173 2994 135 c 1
 3054 91 3083 42 3083 -44 c 0
 3083 -221 2906 -293 2709 -293 c 2
 1713 -293 l 1
 1619 -294 1537 -313 1537 -361 c 0
 1537 -428 1650 -432 1727 -432 c 2
 2968 -432 l 2
 3006 -432 3039 -466 3039 -504 c 0
 3039 -534 3010 -574 2983 -574 c 2
 1717 -574 l 2
 1533 -574 1397 -508 1397 -358 c 0
 1397 -206 1550 -158 1741 -158 c 2
 2724 -158 l 2
 2832 -158 2944 -121 2944 -43 c 0
 2944 -3 2913 37 2872 37 c 0
 2859 37 2848 34 2833 34 c 0
 2809 34 2775 70 2775 96 c 0
 2775 186 2886 161 2886 253 c 0
 2886 318 2819 359 2753 359 c 0
 2719 359 2680 350 2638 331 c 1
 2697 281 2726 223 2726 155 c 0
 2726 26 2633 -82 2506 -82 c 0
 2384 -82 2294 4 2294 130 c 0
 2294 163 2301 197 2317 232 c 1
 2123 154 1878 -49 1664 -49 c 0
 1526 -49 1393 36 1393 174 c 0
 1393 328 1532 404 1702 404 c 0
 1793 404 2000 381 2145 381 c 0
 2369 381 2565 475 2565 675 c 0
 2565 795 2460 888 2340 888 c 0
 2213 888 2136 790 2136 649 c 2
 2136 492 l 1
 2135 455 2102 424 2064 424 c 0
 2026 424 1994 456 1994 494 c 2
 1994 666 l 2
 1994 797 1921 877 1795 889 c 1
 1843 829 1870 754 1870 679 c 0
 1870 536 1766 404 1622 404 c 0
 1469 404 1366 536 1366 679 c 0
 1366 766 1395 827 1441 886 c 1
 1287 862 1162 737 1162 583 c 2
 1162 47 l 2
 1162 9 1130 -23 1092 -23 c 0
 1055 -23 1022 9 1022 46 c 2
 1022 422 l 2
 1022 692 919 887 667 887 c 0
 440 887 288 728 249 527 c 1
 312 590 397 623 483 623 c 0
EndSplineSet
LCarets2: 1 0
EndChar

StartChar: njnj
Encoding: 65646 -1 227
Width: 3824
GlyphClass: 3
LigCaretCntFixed: 1
Flags: HMW
LayerCount: 2
Fore
SplineSet
650 291 m 0
 650 398 555 484 460 484 c 0
 352 484 263 401 263 293 c 0
 263 191 363 107 456 107 c 0
 559 107 650 185 650 291 c 0
2922 820 m 1
 2791 737 2692 589 2692 391 c 0
 2692 253 2774 106 2914 106 c 0
 3059 106 3144 247 3144 395 c 0
 3144 592 3060 732 2922 820 c 1
1668 831 m 1
 1539 754 1436 608 1436 406 c 0
 1436 260 1512 112 1659 112 c 0
 1802 112 1889 259 1889 399 c 0
 1889 601 1808 746 1668 831 c 1
647 1026 m 0
 833 1026 972 927 1044 792 c 1
 1123 932 1277 1027 1454 1027 c 0
 1523 1027 1595 1013 1668 981 c 1
 1742 1013 1816 1029 1887 1029 c 0
 2074 1029 2214 931 2287 804 c 1
 2359 936 2507 1026 2688 1026 c 0
 2765 1026 2843 1008 2922 971 c 1
 3004 1009 3087 1025 3166 1025 c 0
 3477 1025 3724 777 3724 466 c 0
 3724 235 3586 57 3425 -26 c 0
 3415 -31 3403 -34 3388 -34 c 0
 3360 -34 3326 -3 3326 24 c 0
 3326 62 3341 80 3372 96 c 0
 3485 154 3591 299 3591 470 c 0
 3591 706 3407 893 3170 893 c 0
 3135 893 3099 888 3063 879 c 1
 3194 763 3278 608 3278 401 c 0
 3278 180 3143 -27 2918 -27 c 0
 2694 -27 2561 174 2561 394 c 0
 2561 606 2644 761 2780 880 c 1
 2747 888 2715 892 2684 892 c 0
 2454 892 2359 742 2359 503 c 2
 2359 38 l 2
 2359 1 2336 -28 2300 -28 c 0
 2263 -28 2234 2 2233 38 c 1
 2233 464 l 6
 2233 715 2132 894 1894 894 c 0
 1869 894 1842 892 1815 887 c 1
 1934 782 2021 621 2021 415 c 0
 2021 188 1891 -21 1660 -21 c 0
 1433 -21 1302 185 1302 408 c 0
 1302 616 1384 771 1519 887 c 1
 1497 891 1475 893 1454 893 c 0
 1199 893 1110 711 1107 440 c 1
 1107 44 l 1
 1106 9 1071 -21 1035 -21 c 0
 999 -21 969 9 969 46 c 2
 969 475 l 2
 969 712 887 893 655 893 c 0
 443 892 306 720 256 549 c 1
 314 594 379 617 452 617 c 0
 628 617 780 476 780 294 c 0
 780 109 643 -26 451 -26 c 0
 237 -26 100 189 100 403 c 0
 100 724 336 1026 647 1026 c 0
EndSplineSet
LCarets2: 2 0 0
EndChar

StartChar: t1r1
Encoding: 65651 -1 232
Width: 1153
GlyphClass: 3
LigCaretCntFixed: 1
Flags: HMW
LayerCount: 2
Fore
SplineSet
576 1025 m 0
 772 1025 914 957 990 824 c 0
 995 815 1000 799 1000 788 c 0
 1000 749 969 718 930 718 c 0
 907 718 880 735 869 755 c 0
 817 846 715 885 577 885 c 0
 443 885 277 851 277 721 c 0
 277 655 341 601 394 579 c 0
 552 512 747 553 895 460 c 0
 975 410 1053 312 1053 186 c 0
 1053 -77 775 -152 529 -152 c 2
 413 -152 l 2
 262 -152 100 -94 100 68 c 0
 100 210 229 280 366 280 c 2
 509 280 l 1
 654 274 784 206 784 55 c 0
 784 44 783 32 781 20 c 1
 844 46 913 103 913 185 c 0
 913 254 868 313 821 342 c 0
 686 427 510 378 340 450 c 0
 242 491 137 584 137 720 c 0
 137 943 367 1025 576 1025 c 0
377 135 m 2
 316 135 240 128 240 70 c 0
 240 -3 337 -14 431 -14 c 2
 529 -14 l 2
 587 -14 644 -6 644 50 c 0
 644 120 573 132 503 135 c 1
 377 135 l 2
EndSplineSet
LCarets2: 1 0
EndChar

StartChar: t1t1
Encoding: 65652 -1 233
Width: 1161
GlyphClass: 3
LigCaretCntFixed: 1
Flags: HMW
LayerCount: 2
Fore
SplineSet
596 -358 m 0
 744 -358 922 -284 922 -148 c 0
 922 -36 801 4 663 4 c 2
 242 4 l 1
 204 6 174 47 174 92 c 0
 174 118 206 157 230 157 c 2
 694 157 l 2
 820 157 919 181 919 277 c 0
 919 383 809 429 634 433 c 0
 396 439 150 486 150 721 c 0
 150 907 350 1025 557 1025 c 0
 771 1025 918 941 1014 830 c 0
 1026 817 1031 802 1031 783 c 0
 1031 745 999 714 960 714 c 0
 939 714 922 722 908 739 c 0
 825 835 710 885 562 885 c 0
 437 885 291 832 291 724 c 2
 291 723 l 2
 291 583 468 576 635 573 c 0
 872 568 1058 480 1058 277 c 0
 1058 183 1003 109 946 68 c 1
 1004 24 1062 -54 1062 -152 c 0
 1062 -370 821 -498 599 -498 c 0
 373 -498 213 -399 115 -272 c 0
 105 -259 100 -244 100 -226 c 0
 100 -188 133 -159 173 -159 c 0
 194 -159 212 -168 226 -187 c 0
 312 -299 435 -358 596 -358 c 0
EndSplineSet
LCarets2: 2 0 0
EndChar

StartChar: t1r3
Encoding: 65655 -1 236
Width: 1444
GlyphClass: 3
Flags: HMW
LayerCount: 2
Fore
SplineSet
855 885 m 0
 713 885 563 834 563 728 c 0
 563 599 721 580 870 579 c 0
 1144 575 1345 500 1345 278 c 0
 1345 45 1107 -26 863 -26 c 0
 432 -26 100 185 100 600 c 0
 100 766 164 902 246 1000 c 0
 260 1017 277 1025 298 1025 c 0
 337 1025 370 994 370 956 c 0
 370 938 364 922 353 909 c 0
 291 834 240 728 240 600 c 0
 240 276 516 113 848 113 c 0
 1025 113 1205 142 1205 276 c 0
 1205 389 1090 438 884 438 c 0
 639 439 423 498 423 729 c 0
 423 913 621 1025 858 1025 c 0
 1045 1025 1186 965 1285 836 c 0
 1295 823 1300 808 1300 790 c 0
 1300 752 1266 723 1227 723 c 0
 1206 723 1188 732 1174 751 c 0
 1103 843 997 885 855 885 c 0
EndSplineSet
LCarets2: 1 0
EndChar

StartChar: t3r1
Encoding: 65662 -1 243
Width: 2477
GlyphClass: 3
Flags: HMW
LayerCount: 2
Fore
SplineSet
1491 179 m 1
 1439 75 1340 -23 1198 -23 c 0
 962 -23 874 201 874 438 c 2
 874 529 l 2
 874 740 788 889 588 889 c 0
 374 889 242 695 242 511 c 0
 242 285 430 126 622 117 c 0
 659 116 690 84 690 47 c 0
 690 8 659 -23 620 -23 c 1
 355 -11 100 205 100 517 c 0
 100 769 293 1031 592 1031 c 0
 850 1031 1019 813 1019 541 c 0
 1019 487 1015 435 1015 387 c 0
 1015 258 1071 117 1198 117 c 0
 1381 117 1407 347 1407 533 c 2
 1407 963 l 1
 1408 1001 1442 1032 1480 1032 c 0
 1518 1032 1549 1000 1549 962 c 2
 1549 521 l 2
 1549 288 1652 115 1873 115 c 0
 2094 115 2236 314 2236 503 c 0
 2236 735 2036 891 1836 891 c 0
 1814 891 1792 885 1770 885 c 0
 1731 885 1700 916 1700 955 c 0
 1700 1022 1771 1031 1839 1031 c 0
 2113 1031 2377 817 2377 497 c 0
 2377 -125 2372 -585 1748 -585 c 0
 1578 -585 1411 -518 1411 -350 c 0
 1411 -183 1578 -108 1747 -108 c 0
 1919 -108 2082 -178 2092 -340 c 1
 2208 -233 2234 -61 2240 140 c 1
 2151 40 2021 -27 1866 -27 c 0
 1712 -27 1569 50 1491 179 c 1
1951 -345 m 0
 1951 -268 1888 -232 1770 -232 c 0
 1631 -232 1553 -269 1553 -353 c 0
 1553 -417 1621 -446 1757 -446 c 0
 1882 -446 1951 -414 1951 -345 c 0
EndSplineSet
EndChar

StartChar: t3t3
Encoding: 65663 -1 244
Width: 2488
GlyphClass: 3
LigCaretCntFixed: 1
Flags: HMW
LayerCount: 2
Fore
SplineSet
1033 -133 m 0
 901 -133 799 -252 799 -376 c 0
 799 -479 896 -605 990 -607 c 0
 1050 -608 1085 -620 1085 -668 c 0
 1085 -694 1060 -728 1037 -728 c 0
 849 -728 678 -574 678 -393 c 0
 678 -183 828 -12 1037 -12 c 0
 1217 -12 1323 -144 1323 -317 c 0
 1323 -344 1320 -376 1320 -403 c 0
 1320 -536 1364 -616 1498 -616 c 0
 1640 -616 1678 -483 1678 -347 c 2
 1678 -76 l 2
 1678 -45 1703 -17 1733 -17 c 0
 1775 -17 1796 -37 1797 -76 c 1
 1797 -392 l 6
 1797 -510 1900 -611 2035 -611 c 0
 2161 -611 2273 -510 2273 -380 c 0
 2273 -229 2159 -137 2010 -137 c 0
 1987 -137 1961 -103 1961 -78 c 0
 1961 -38 2002 -15 2074 -15 c 0
 2239 -15 2389 -206 2389 -375 c 0
 2389 -580 2226 -732 2012 -732 c 0
 1908 -732 1821 -684 1749 -588 c 1
 1694 -682 1598 -735 1496 -735 c 0
 1332 -735 1198 -616 1198 -441 c 0
 1198 -378 1206 -363 1206 -287 c 0
 1206 -199 1121 -133 1033 -133 c 0
EndSplineSet
Refer: 69 3361 N 1 0 0 1 0 -1 2
LCarets2: 2 0 0
EndChar

StartChar: t3t4
Encoding: 65666 -1 247
Width: 2441
GlyphClass: 3
LigCaretCntFixed: 1
Flags: HMW
LayerCount: 2
Fore
SplineSet
1857 -423 m 0
 1926 -423 1986 -361 1986 -295 c 0
 1986 -227 1933 -160 1856 -160 c 0
 1851 -160 1847 -161 1842 -161 c 0
 1783 -161 1723 -226 1723 -291 c 0
 1723 -368 1788 -423 1857 -423 c 0
1071 -479 m 0
 1071 -557 1109 -650 1189 -650 c 0
 1286 -649 1336 -550 1336 -352 c 2
 1336 -97 l 1
 1337 -67 1367 -39 1396 -39 c 0
 1439 -39 1460 -59 1460 -99 c 2
 1460 -402 l 2
 1460 -547 1538 -654 1690 -654 c 0
 1808 -654 1889 -610 1954 -523 c 1
 1920 -537 1886 -544 1853 -544 c 0
 1718 -544 1603 -433 1603 -293 c 0
 1603 -160 1712 -38 1843 -38 c 0
 2012 -38 2135 -164 2135 -350 c 0
 2135 -595 1929 -775 1686 -775 c 4
 1564 -775 1470 -727 1403 -633 c 1
 1364 -703 1296 -771 1183 -771 c 0
 1029 -771 952 -615 952 -454 c 0
 952 -414 956 -392 956 -344 c 0
 956 -233 867 -149 753 -149 c 0
 610 -149 497 -256 497 -398 c 0
 497 -559 611 -650 768 -650 c 0
 791 -650 817 -684 817 -710 c 0
 817 -743 790 -770 757 -770 c 0
 553 -770 377 -609 377 -403 c 0
 377 -197 538 -30 749 -30 c 0
 944 -30 1075 -160 1075 -362 c 0
 1075 -400 1071 -449 1071 -479 c 0
EndSplineSet
Refer: 69 3361 N 1 0 0 1 -0 0 2
LCarets2: 2 0 0
EndChar

StartChar: t3r3
Encoding: 65669 -1 250
Width: 3078
GlyphClass: 3
Flags: HMW
LayerCount: 2
Fore
SplineSet
1719 -8 m 0
 1458 -8 1340 213 1340 465 c 0
 1340 491 1341 522 1341 547 c 0
 1341 773 1252 898 1047 898 c 0
 845 898 680 727 680 528 c 0
 680 329 842 154 1048 154 c 2
 1082 154 l 2
 1109 154 1138 115 1138 85 c 0
 1138 35 1098 14 1047 14 c 0
 762 14 539 245 539 531 c 0
 539 793 751 1038 1029 1038 c 0
 1323 1038 1480 863 1480 578 c 0
 1480 542 1478 502 1478 470 c 0
 1478 302 1536 133 1703 133 c 0
 1902 133 1944 334 1944 560 c 2
 1944 948 l 1
 1945 987 1979 1018 2016 1018 c 0
 2051 1018 2084 986 2084 950 c 2
 2084 498 l 2
 2084 287 2251 126 2462 126 c 0
 2678 126 2839 289 2839 504 c 0
 2839 726 2653 879 2460 879 c 0
 2452 879 2443 879 2435 878 c 1
 2410 878 2359 915 2359 942 c 0
 2359 1006 2404 1018 2464 1018 c 0
 2756 1018 2978 797 2978 505 c 0
 2978 -120 2638 -478 2034 -478 c 2
 1373 -478 l 2
 743 -478 363 -334 175 92 c 0
 127 200 100 320 100 444 c 0
 100 658 193 865 291 998 c 0
 304 1016 322 1024 340 1024 c 0
 374 1024 409 997 409 961 c 0
 409 944 404 931 395 920 c 0
 313 810 230 623 230 444 c 0
 230 222 324 48 440 -72 c 0
 599 -236 823 -352 1112 -352 c 2
 2033 -352 l 1
 2445 -351 2659 -199 2784 98 c 1
 2690 23 2583 -14 2463 -14 c 0
 2262 -14 2115 92 2030 220 c 1
 1980 111 1861 -8 1719 -8 c 0
EndSplineSet
LCarets2: 1 0
EndChar

StartChar: t4r1
Encoding: 65674 -1 255
Width: 2705
GlyphClass: 3
LigCaretCntFixed: 1
Flags: HMW
LayerCount: 2
Fore
SplineSet
100 500 m 0
 100 784 330 1024 627 1024 c 0
 909 1024 1102 837 1102 552 c 0
 1102 499 1097 441 1097 391 c 0
 1097 253 1154 116 1285 116 c 0
 1476 116 1498 365 1501 558 c 2
 1508 956 l 2
 1509 993 1540 1024 1578 1024 c 0
 1617 1024 1648 993 1648 954 c 0
 1646 814 1641 655 1641 514 c 0
 1641 272 1747 110 1987 110 c 0
 2182 110 2333 223 2408 358 c 1
 2350 318 2280 297 2209 297 c 0
 2016 297 1855 456 1855 651 c 0
 1855 846 2014 1023 2212 1023 c 0
 2449 1023 2605 805 2605 570 c 0
 2605 -108 2373 -615 1685 -615 c 0
 1475 -615 1272 -554 1272 -345 c 0
 1272 -147 1473 -64 1656 -64 c 0
 1844 -64 2055 -142 2055 -348 c 0
 2055 -378 2049 -404 2041 -427 c 1
 2249 -344 2376 -77 2432 158 c 1
 2326 50 2169 -30 1986 -30 c 0
 1795 -30 1658 59 1580 183 c 1
 1531 81 1427 -24 1284 -24 c 0
 1071 -24 957 178 957 392 c 0
 957 447 961 495 961 548 c 0
 961 756 834 884 628 884 c 0
 410 884 240 709 240 501 c 0
 240 290 415 114 628 114 c 0
 641 114 655 116 668 116 c 0
 707 116 738 85 738 46 c 0
 738 10 709 -21 673 -24 c 0
 657 -25 642 -26 626 -26 c 0
 338 -26 100 214 100 500 c 0
2208 880 m 0
 2087 880 1995 770 1995 652 c 0
 1995 534 2092 437 2208 437 c 0
 2350 437 2419 545 2419 655 c 0
 2419 767 2347 880 2208 880 c 0
1915 -349 m 0
 1915 -234 1773 -204 1657 -204 c 0
 1545 -204 1412 -235 1412 -346 c 0
 1412 -472 1593 -472 1719 -474 c 1
 1809 -469 1915 -440 1915 -349 c 0
EndSplineSet
LCarets2: 1 0
EndChar

StartChar: nhu1
Encoding: 65675 -1 256
Width: 2896
GlyphClass: 3
LigCaretCntFixed: 1
Flags: HMW
LayerCount: 2
Fore
SplineSet
2244 1020 m 4
 2556 1018 2796 759 2796 450 c 0
 2796 218 2643 -18 2386 -18 c 0
 2188 -18 2039 134 2039 329 c 0
 2039 526 2195 681 2394 681 c 0
 2496 681 2576 641 2634 589 c 1
 2582 746 2438 880 2246 880 c 0
 1984 880 1851 760 1851 497 c 2
 1850 45 l 2
 1849 7 1818 -24 1780 -24 c 0
 1742 -24 1711 7 1710 45 c 1
 1710 487 l 2
 1710 707 1663 883 1448 883 c 0
 1233 883 1185 705 1185 487 c 2
 1186 49 l 1
 1185 11 1154 -21 1116 -21 c 0
 1078 -21 1046 11 1046 49 c 2
 1045 487 l 2
 1045 740 905 880 650 880 c 0
 459 880 318 749 265 594 c 1
 324 644 398 680 498 680 c 0
 700 680 855 524 855 325 c 0
 855 131 706 -21 510 -21 c 0
 252 -21 100 216 100 448 c 0
 100 758 339 1020 652 1020 c 0
 838 1020 1012 915 1102 775 c 1
 1157 897 1276 1023 1447 1023 c 0
 1617 1023 1738 896 1793 774 c 5
 1823 886 1981 1022 2244 1020 c 4
2394 541 m 0
 2274 541 2179 447 2179 329 c 0
 2179 213 2268 122 2386 122 c 0
 2505 122 2611 201 2611 325 c 0
 2611 449 2518 541 2394 541 c 0
715 326 m 0
 715 446 619 539 498 539 c 0
 371 539 278 445 278 319 c 0
 278 201 396 119 510 119 c 0
 627 119 715 210 715 326 c 0
EndSplineSet
LCarets2: 1 0
EndChar

StartChar: nhu2
Encoding: 65676 -1 257
Width: 3091
GlyphClass: 3
LigCaretCntFixed: 1
Flags: HMW
LayerCount: 2
Fore
SplineSet
2484 717 m 1
 2413 811 2299 880 2167 880 c 0
 1964 880 1788 713 1788 509 c 2
 1789 49 l 1
 1788 11 1757 -20 1719 -20 c 0
 1681 -20 1650 11 1649 49 c 2
 1648 508 l 2
 1648 685 1592 879 1416 879 c 0
 1243 879 1185 690 1184 519 c 2
 1182 53 l 2
 1181 15 1150 -16 1112 -16 c 0
 1074 -16 1042 15 1042 53 c 2
 1043 444 l 2
 1043 696 894 882 649 882 c 0
 458 882 315 748 263 592 c 1
 319 642 404 683 502 683 c 0
 702 683 857 528 857 330 c 0
 857 136 707 -17 509 -17 c 0
 255 -17 100 221 100 449 c 0
 100 759 338 1022 651 1022 c 0
 832 1022 1004 921 1094 787 c 1
 1144 903 1254 1020 1416 1020 c 0
 1573 1020 1686 906 1737 793 c 1
 1826 925 1991 1020 2166 1020 c 0
 2398 1020 2577 871 2661 694 c 1
 2874 628 3041 436 3041 166 c 0
 3041 -150 2793 -398 2477 -398 c 0
 2336 -398 2200 -347 2101 -260 c 0
 2087 -248 2077 -224 2077 -206 c 0
 2077 -167 2108 -136 2147 -136 c 0
 2162 -136 2182 -144 2193 -154 c 0
 2268 -219 2370 -259 2476 -259 c 0
 2714 -259 2901 -72 2901 167 c 0
 2901 329 2819 449 2715 516 c 1
 2720 485 2721 454 2721 425 c 0
 2721 187 2577 -25 2341 -25 c 4
 2164 -25 2034 119 2034 296 c 0
 2034 545 2252 707 2484 717 c 1
2174 296 m 0
 2174 195 2243 116 2343 116 c 0
 2503 116 2581 274 2581 428 c 0
 2581 476 2573 526 2558 574 c 1
 2540 576 2522 578 2505 578 c 0
 2338 578 2174 467 2174 296 c 0
507 123 m 0
 626 123 719 216 719 330 c 0
 719 443 620 543 502 543 c 0
 379 543 283 447 283 327 c 0
 283 211 391 123 507 123 c 0
EndSplineSet
LCarets2: 1 3
EndChar

StartChar: nht1
Encoding: 65677 -1 258
Width: 2639
GlyphClass: 3
LigCaretCntFixed: 1
Flags: HMW
LayerCount: 2
Fore
SplineSet
472 109 m 0
 577 109 650 182 650 290 c 0
 650 390 565 469 479 469 c 0
 361 469 287 378 287 286 c 0
 287 205 368 109 472 109 c 0
2396 756 m 0
 2396 853 2294 889 2190 889 c 0
 1948 889 1767 735 1767 495 c 2
 1767 41 l 2
 1767 3 1737 -28 1699 -28 c 0
 1662 -28 1629 3 1629 40 c 2
 1629 488 l 1
 1628 689 1549 884 1359 884 c 0
 1171 884 1102 680 1102 478 c 2
 1102 44 l 2
 1102 11 1073 -29 1032 -29 c 0
 997 -29 965 18 965 43 c 2
 965 474 l 1
 963 719 845 887 618 887 c 0
 407 887 272 713 244 518 c 1
 305 577 381 609 476 609 c 0
 644 609 788 455 788 287 c 0
 788 116 652 -30 472 -30 c 0
 238 -30 100 197 100 448 c 0
 100 750 306 1027 618 1027 c 0
 811 1027 948 926 1023 796 c 1
 1079 911 1195 1025 1361 1025 c 0
 1532 1025 1650 905 1707 781 c 1
 1707 780 l 1
 1805 944 1966 1029 2194 1029 c 0
 2390 1029 2535 920 2535 764 c 0
 2535 618 2430 547 2269 541 c 1
 2243 541 l 1
 2176 539 2142 526 2142 479 c 0
 2142 420 2205 404 2268 404 c 2
 2305 404 l 2
 2436 404 2539 339 2539 215 c 0
 2539 46 2387 -36 2216 -36 c 0
 2135 -36 2058 -16 1984 25 c 0
 1959 38 1947 56 1947 80 c 0
 1947 121 1974 157 2012 157 c 0
 2028 157 2041 154 2052 147 c 0
 2105 118 2160 104 2217 104 c 0
 2314 104 2400 138 2400 214 c 0
 2400 256 2355 264 2304 264 c 2
 2267 264 l 2
 2105 264 2000 342 2000 488 c 0
 2000 609 2105 674 2241 680 c 1
 2266 680 l 1
 2353 683 2396 709 2396 756 c 0
EndSplineSet
LCarets2: 2 0 0
EndChar

StartChar: nht2
Encoding: 65680 -1 261
Width: 2764
GlyphClass: 3
LigCaretCntFixed: 1
Flags: HMW
LayerCount: 2
Fore
SplineSet
2122 -650 m 0
 2269 -650 2372 -535 2372 -401 c 0
 2372 -282 2282 -151 2127 -151 c 0
 1987 -151 1872 -255 1872 -399 c 0
 1872 -543 1982 -650 2122 -650 c 0
1753 -411 m 0
 1753 -198 1914 -33 2124 -33 c 0
 2125 -33 2126 -33 2127 -33 c 0
 2326 -33 2492 -202 2492 -401 c 0
 2492 -605 2325 -770 2119 -770 c 0
 1928 -770 1753 -605 1753 -411 c 0
EndSplineSet
Refer: 71 3363 N 1 0 0 1 0 0 2
LCarets2: 2 0 0
EndChar

StartChar: nht3
Encoding: 65681 -1 262
Width: 3824
GlyphClass: 3
LigCaretCntFixed: 1
Flags: HMW
LayerCount: 2
Fore
SplineSet
475 111 m 0
 579 111 651 188 651 292 c 0
 651 397 558 471 471 471 c 0
 363 471 287 388 287 277 c 0
 287 188 385 111 475 111 c 0
2822 165 m 1
 2772 58 2675 -38 2537 -38 c 0
 2302 -38 2223 168 2218 405 c 1
 2218 521 l 1
 2213 722 2160 885 2004 885 c 4
 1806 885 1768 655 1768 432 c 2
 1768 37 l 2
 1768 -1 1738 -32 1700 -32 c 0
 1663 -32 1630 -1 1630 36 c 2
 1630 392 l 2
 1630 666 1565 887 1361 887 c 4
 1180 887 1104 701 1104 502 c 2
 1104 38 l 2
 1104 0 1075 -31 1037 -31 c 0
 1000 -31 966 0 966 37 c 2
 966 506 l 2
 966 720 842 884 624 884 c 4
 409 884 273 718 245 520 c 1
 307 580 388 610 469 610 c 0
 642 610 790 461 790 289 c 0
 790 122 651 -29 478 -29 c 0
 237 -29 101 207 101 451 c 0
 101 770 310 1024 625 1024 c 4
 811 1024 951 920 1024 794 c 5
 1080 909 1196 1027 1362 1027 c 4
 1523 1027 1636 917 1693 809 c 5
 1745 914 1861 1024 1995 1024 c 4
 2268 1024 2347 791 2354 524 c 1
 2354 409 l 1
 2358 254 2390 102 2539 102 c 0
 2715 102 2738 321 2738 528 c 2
 2738 961 l 2
 2738 996 2770 1030 2804 1030 c 0
 2849 1030 2878 999 2878 960 c 2
 2878 518 l 2
 2878 283 2967 101 3199 101 c 0
 3422 101 3586 282 3586 493 c 0
 3586 720 3414 891 3186 891 c 0
 3154 891 3127 884 3092 884 c 0
 3064 884 3033 922 3033 952 c 0
 3033 1019 3094 1031 3183 1031 c 0
 3481 1031 3725 802 3725 494 c 0
 3725 197 3493 -38 3197 -38 c 0
 3025 -38 2895 52 2822 165 c 1
EndSplineSet
LCarets2: 2 0 0
EndChar

StartChar: nhm1
Encoding: 65687 -1 268
Width: 2912
GlyphClass: 3
LigCaretCntFixed: 1
Flags: HMW
LayerCount: 2
Fore
SplineSet
481 121 m 0
 568 121 651 191 651 287 c 0
 651 377 576 460 476 460 c 0
 379 460 305 375 305 284 c 0
 305 189 392 121 481 121 c 0
2468 825 m 1
 2490 776 2501 724 2501 670 c 0
 2501 437 2340 243 2192 133 c 1
 2665 133 l 1
 2668 205 2670 269 2670 326 c 0
 2670 566 2634 729 2468 825 c 1
2186 873 m 0
 2018 873 1848 682 1848 516 c 2
 1848 133 l 1
 2096 133 2360 434 2360 675 c 4
 2360 776 2293 873 2186 873 c 0
1806 789 m 1
 1896 916 2061 1025 2254 1025 c 0
 2625 1025 2812 745 2812 362 c 0
 2812 292 2807 116 2806 67 c 0
 2805 26 2776 -7 2735 -7 c 2
 1777 -7 l 2
 1739 -7 1707 25 1707 63 c 2
 1707 533 l 2
 1707 731 1636 884 1457 884 c 0
 1270 884 1176 698 1175 511 c 1
 1175 43 l 2
 1175 5 1140 -26 1102 -26 c 0
 1064 -26 1032 5 1032 43 c 2
 1032 484 l 2
 1032 713 890 886 657 886 c 0
 434 886 276 694 246 498 c 1
 294 550 377 600 477 600 c 0
 656 600 791 462 791 286 c 0
 791 117 654 -20 481 -20 c 0
 245 -20 100 199 100 419 c 0
 100 743 323 1025 656 1025 c 0
 847 1025 992 943 1094 788 c 1
 1157 915 1282 1024 1459 1024 c 0
 1632 1024 1751 916 1806 789 c 1
EndSplineSet
LCarets2: 2 0 0
EndChar

StartChar: th1u1
Encoding: 65690 -1 271
Width: 1810
GlyphClass: 3
LigCaretCntFixed: 1
Flags: HMW
LayerCount: 2
Fore
SplineSet
453 -246 m 2
 367 -246 240 -249 240 -330 c 0
 240 -416 385 -420 475 -420 c 2
 1640 -420 l 2
 1679 -420 1710 -453 1710 -492 c 0
 1710 -531 1679 -562 1640 -562 c 2
 315 -562 l 2
 217 -562 100 -454 100 -331 c 0
 100 -152 290 -103 463 -103 c 2
 965 -103 l 2
 1305 -103 1555 93 1555 429 c 0
 1555 697 1368 884 1105 884 c 0
 1086 884 1066 882 1046 879 c 1
 1174 767 1255 604 1255 419 c 0
 1255 202 1129 -5 902 -5 c 0
 666 -5 534 218 534 436 c 0
 534 606 611 773 729 879 c 1
 708 882 688 885 667 885 c 0
 442 885 253 705 253 480 c 0
 253 315 355 181 476 124 c 0
 498 114 516 85 516 60 c 0
 516 21 485 -10 446 -10 c 0
 437 -10 423 -6 415 -2 c 0
 251 77 112 249 112 481 c 0
 112 785 367 1025 664 1025 c 0
 736 1025 812 1010 886 979 c 1
 957 1009 1029 1024 1099 1024 c 0
 1444 1024 1695 776 1695 431 c 0
 1695 16 1389 -246 971 -246 c 2
 453 -246 l 2
887 822 m 1
 766 748 674 598 674 434 c 0
 674 290 749 136 901 136 c 0
 1042 136 1115 275 1115 416 c 0
 1115 592 1017 746 887 822 c 1
EndSplineSet
LCarets2: 1 0
EndChar

StartChar: th1u2
Encoding: 65691 -1 272
Width: 1825
GlyphClass: 3
LigCaretCntFixed: 1
Flags: HMW
LayerCount: 2
Fore
SplineSet
886 816 m 1
 758 736 661 592 661 402 c 0
 661 267 746 132 877 132 c 0
 1006 132 1094 274 1094 406 c 0
 1094 593 1012 732 886 816 c 1
523 409 m 0
 523 613 621 779 738 880 c 1
 707 887 677 890 647 890 c 0
 405 890 246 694 246 464 c 0
 246 309 362 173 475 117 c 0
 502 104 515 82 515 49 c 0
 515 18 481 -16 451 -16 c 0
 436 -16 423 -13 413 -8 c 0
 248 73 107 251 107 483 c 0
 107 783 351 1030 649 1030 c 0
 727 1030 808 1013 888 976 c 1
 972 1013 1054 1032 1134 1032 c 0
 1381 1032 1615 894 1615 653 c 0
 1615 577 1572 510 1522 450 c 1
 1620 390 1685 296 1685 156 c 0
 1685 -94 1463 -203 1206 -203 c 2
 457 -203 l 2
 342 -203 241 -222 241 -290 c 0
 241 -371 383 -373 472 -373 c 6
 1655 -373 l 6
 1679 -373 1726 -409 1726 -435 c 0
 1726 -481 1696 -510 1656 -510 c 6
 445 -510 l 6
 257 -510 100 -450 100 -289 c 0
 100 -125 260 -63 452 -63 c 2
 1206 -63 l 2
 1407 -63 1544 -8 1544 160 c 0
 1544 265 1464 347 1370 359 c 0
 1333 364 1309 394 1309 430 c 0
 1309 457 1332 483 1351 492 c 0
 1409 518 1474 577 1474 657 c 0
 1474 811 1300 890 1142 890 c 0
 1106 890 1070 885 1035 877 c 1
 1137 783 1231 615 1231 419 c 0
 1231 198 1101 -8 876 -8 c 0
 653 -8 523 191 523 409 c 0
EndSplineSet
LCarets2: 1 0
EndChar

StartChar: th1r1
Encoding: 65692 -1 273
Width: 1783
GlyphClass: 3
LigCaretCntFixed: 1
Flags: HMW
LayerCount: 2
Fore
SplineSet
817 -234 m 0
 710 -234 614 -258 614 -336 c 0
 614 -418 727 -428 849 -428 c 1
 933 -426 1014 -405 1014 -338 c 0
 1014 -260 920 -234 817 -234 c 0
873 817 m 1
 751 740 658 592 658 409 c 0
 658 266 734 120 878 120 c 0
 1018 120 1100 258 1100 400 c 0
 1100 596 1010 733 873 817 c 1
807 -94 m 0
 993 -94 1154 -165 1154 -338 c 2
 1154 -352 l 1
 1364 -236 1543 6 1543 321 c 0
 1543 611 1377 883 1096 883 c 0
 1073 883 1050 880 1027 876 c 1
 1156 762 1239 612 1239 404 c 0
 1239 184 1105 -20 880 -20 c 0
 652 -20 518 187 518 410 c 0
 518 612 595 762 720 876 c 1
 695 881 669 883 644 883 c 0
 410 883 241 710 241 469 c 0
 241 299 355 166 483 111 c 0
 512 99 527 80 527 55 c 0
 527 13 501 -24 464 -24 c 0
 449 -24 437 -22 428 -18 c 0
 250 58 100 238 100 481 c 0
 100 785 349 1024 643 1024 c 0
 718 1024 795 1008 872 975 c 1
 947 1008 1021 1023 1092 1023 c 0
 1454 1023 1683 692 1683 320 c 0
 1683 -166 1331 -569 856 -569 c 0
 635 -569 474 -515 474 -332 c 0
 474 -168 629 -94 807 -94 c 0
EndSplineSet
LCarets2: 1 0
EndChar

StartChar: th1th1
Encoding: 65693 -1 274
Width: 3044
GlyphClass: 3
LigCaretCntFixed: 1
Flags: HMW
LayerCount: 2
Fore
SplineSet
2163 809 m 1
 2045 732 1944 585 1944 396 c 0
 1944 261 2020 119 2157 119 c 0
 2295 119 2373 258 2373 399 c 0
 2373 589 2293 724 2163 809 c 1
876 123 m 0
 1012 123 1100 262 1100 396 c 0
 1100 589 1001 734 876 812 c 1
 753 734 659 590 659 407 c 0
 659 266 734 123 876 123 c 0
506 45 m 2
 506 15 473 -19 443 -19 c 0
 412 -19 366 4 307 50 c 0
 194 138 100 296 100 478 c 0
 100 783 349 1022 642 1022 c 0
 717 1022 796 1005 876 970 c 1
 949 1002 1023 1022 1098 1022 c 0
 1301 1022 1438 928 1520 782 c 1
 1598 920 1757 1022 1940 1022 c 0
 2012 1022 2087 1003 2163 969 c 1
 2239 1003 2321 1022 2402 1022 c 0
 2710 1022 2944 786 2944 481 c 0
 2944 242 2793 61 2617 -14 c 0
 2608 -18 2596 -20 2581 -20 c 0
 2553 -20 2518 14 2518 42 c 0
 2518 79 2533 103 2562 115 c 0
 2693 170 2804 305 2804 483 c 0
 2804 703 2632 882 2407 882 c 0
 2376 882 2344 878 2311 871 c 1
 2436 756 2513 606 2513 403 c 0
 2513 184 2382 -21 2159 -21 c 0
 1938 -21 1804 176 1804 395 c 0
 1804 601 1881 752 2014 871 c 1
 1986 877 1959 880 1933 880 c 0
 1681 880 1588 687 1588 428 c 2
 1588 49 l 1
 1587 12 1553 -20 1515 -20 c 0
 1477 -20 1445 12 1445 50 c 2
 1445 448 l 2
 1445 700 1350 879 1102 879 c 0
 1078 879 1054 876 1029 872 c 1
 1157 758 1237 610 1237 406 c 0
 1237 187 1103 -17 879 -17 c 0
 656 -17 519 183 519 404 c 0
 519 609 596 757 724 872 c 1
 697 877 670 880 644 880 c 0
 413 880 240 701 240 471 c 0
 240 313 345 173 467 114 c 0
 493 102 506 79 506 47 c 2
 506 45 l 2
EndSplineSet
LCarets2: 2 0 0
EndChar

StartChar: th1th1u1
Encoding: 65694 -1 275
Width: 3058
GlyphClass: 3
Flags: HMW
LayerCount: 2
Fore
SplineSet
2158 817 m 1
 2031 734 1942 592 1942 402 c 0
 1942 269 2020 124 2156 124 c 0
 2290 124 2374 263 2374 396 c 0
 2374 591 2283 737 2158 817 c 1
876 121 m 0
 1012 121 1099 267 1099 401 c 0
 1099 593 1000 738 875 817 c 1
 752 740 658 594 658 412 c 0
 658 271 734 121 876 121 c 0
450 -533 m 2
 277 -533 102 -480 102 -312 c 0
 102 -98 347 -96 575 -96 c 2
 2097 -96 l 2
 2503 -96 2817 39 2817 432 c 0
 2817 677 2645 890 2401 890 c 0
 2370 890 2338 886 2306 879 c 1
 2433 763 2512 613 2512 408 c 0
 2512 189 2382 -16 2159 -16 c 0
 1936 -16 1804 183 1804 403 c 0
 1804 609 1879 759 2008 877 c 1
 1982 882 1957 884 1933 884 c 0
 1680 884 1590 694 1587 434 c 1
 1587 54 l 1
 1586 17 1552 -15 1514 -15 c 0
 1476 -15 1444 17 1444 55 c 2
 1444 460 l 2
 1444 708 1347 884 1102 884 c 0
 1078 884 1053 881 1028 877 c 1
 1155 763 1236 615 1236 411 c 0
 1236 193 1102 -19 879 -19 c 0
 656 -19 518 187 518 409 c 0
 518 614 595 762 723 877 c 1
 696 882 669 885 643 885 c 0
 414 885 240 708 240 479 c 0
 240 310 345 178 466 119 c 0
 486 110 506 83 506 56 c 0
 506 20 474 -14 448 -14 c 0
 429 -14 414 -12 404 -7 c 0
 241 73 100 251 100 479 c 0
 100 786 346 1027 641 1027 c 0
 716 1027 795 1011 875 975 c 1
 948 1007 1023 1024 1098 1024 c 0
 1300 1024 1437 932 1519 787 c 1
 1592 917 1744 1026 1936 1026 c 0
 2008 1026 2082 1010 2157 976 c 1
 2236 1013 2317 1029 2395 1029 c 0
 2724 1029 2958 760 2958 438 c 0
 2958 -38 2585 -235 2097 -235 c 2
 490 -235 l 2
 370 -235 242 -243 242 -314 c 0
 242 -381 356 -386 442 -386 c 2
 2886 -386 l 6
 2924 -386 2957 -425 2957 -463 c 4
 2957 -493 2928 -533 2901 -533 c 6
 450 -533 l 2
EndSplineSet
LCarets2: 1 0
EndChar

StartChar: th1th1u2
Encoding: 65695 -1 276
Width: 3059
GlyphClass: 3
LigCaretCntFixed: 1
Flags: HMW
LayerCount: 2
Fore
SplineSet
2177 802 m 1
 2042 718 1941 578 1941 388 c 0
 1941 258 2022 119 2155 119 c 0
 2291 119 2374 266 2374 400 c 0
 2374 580 2290 721 2177 802 c 1
875 815 m 1
 752 738 658 592 658 410 c 0
 658 269 734 126 876 126 c 0
 1017 126 1096 265 1096 406 c 0
 1096 596 989 743 875 815 c 1
477 -238 m 2
 340 -238 240 -252 240 -321 c 0
 240 -385 416 -389 484 -389 c 2
 2888 -389 l 2
 2926 -389 2959 -427 2959 -465 c 0
 2959 -495 2930 -535 2903 -535 c 2
 450 -535 l 2
 264 -535 102 -472 102 -314 c 0
 102 -157 256 -99 436 -99 c 2
 2184 -99 l 2
 2482 -99 2788 -71 2788 168 c 0
 2788 267 2720 336 2643 357 c 0
 2617 364 2592 393 2592 426 c 0
 2592 468 2624 489 2666 496 c 0
 2727 507 2787 580 2787 654 c 0
 2787 803 2627 884 2472 885 c 0
 2421 885 2371 878 2320 865 c 1
 2438 750 2512 603 2512 409 c 0
 2512 188 2381 -18 2154 -18 c 0
 1935 -18 1802 179 1802 393 c 0
 1802 606 1909 768 2032 869 c 1
 1997 878 1965 882 1933 882 c 0
 1685 882 1587 688 1587 431 c 2
 1587 51 l 1
 1586 14 1556 -17 1514 -17 c 0
 1472 -17 1444 15 1444 52 c 2
 1444 450 l 2
 1444 701 1351 881 1104 881 c 0
 1080 881 1054 879 1028 874 c 1
 1156 760 1236 612 1236 409 c 0
 1236 189 1102 -14 877 -14 c 0
 656 -14 517 187 517 404 c 0
 517 610 605 768 723 874 c 1
 695 880 668 882 641 882 c 0
 412 882 239 691 239 478 c 0
 239 309 345 176 466 116 c 0
 493 103 506 81 506 48 c 0
 506 17 472 -17 442 -17 c 0
 427 -17 414 -14 404 -9 c 0
 241 71 100 248 100 476 c 0
 100 783 347 1024 642 1024 c 0
 717 1024 795 1008 875 973 c 1
 948 1005 1023 1022 1098 1022 c 0
 1300 1022 1437 930 1519 784 c 1
 1595 919 1739 1023 1940 1023 c 0
 2022 1023 2102 1003 2181 963 c 1
 2272 1004 2373 1025 2482 1025 c 0
 2722 1025 2925 870 2925 643 c 0
 2925 546 2892 481 2814 419 c 1
 2889 353 2926 270 2926 170 c 0
 2926 -172 2579 -238 2188 -238 c 2
 477 -238 l 2
EndSplineSet
LCarets2: 1 0
EndChar

StartChar: th1th1r1
Encoding: 65696 -1 277
Width: 3035
GlyphClass: 3
LigCaretCntFixed: 1
Flags: HMW
LayerCount: 2
Fore
SplineSet
643 1018 m 0
 723 1018 802 1000 875 968 c 1
 945 999 1022 1016 1099 1016 c 0
 1299 1016 1444 914 1519 780 c 1
 1599 922 1742 1017 1935 1017 c 0
 2010 1017 2085 1001 2154 971 c 1
 2219 1000 2290 1016 2363 1016 c 0
 2712 1016 2935 701 2935 349 c 0
 2935 -252 2425 -627 1827 -627 c 0
 1616 -627 1414 -565 1414 -356 c 0
 1414 -158 1614 -75 1797 -75 c 0
 1985 -75 2197 -154 2197 -360 c 0
 2197 -388 2192 -412 2184 -434 c 1
 2495 -334 2795 -57 2795 349 c 0
 2795 623 2631 876 2364 876 c 0
 2345 876 2326 874 2307 871 c 1
 2435 754 2512 594 2512 398 c 0
 2512 183 2381 -23 2159 -23 c 0
 1933 -23 1804 187 1804 404 c 0
 1804 594 1877 756 2002 871 c 1
 1979 875 1957 877 1934 877 c 0
 1683 877 1589 687 1587 426 c 2
 1584 47 l 2
 1583 9 1552 -22 1514 -22 c 0
 1476 -22 1446 10 1446 48 c 2
 1446 453 l 2
 1446 701 1346 876 1101 876 c 0
 1077 876 1052 873 1028 869 c 1
 1155 755 1236 601 1236 402 c 0
 1236 186 1101 -19 878 -19 c 0
 653 -19 518 187 518 405 c 0
 518 600 597 756 723 870 c 1
 696 875 668 878 641 878 c 0
 415 878 240 700 240 475 c 0
 240 301 343 172 465 112 c 0
 487 102 505 73 505 49 c 0
 505 10 474 -21 435 -21 c 0
 426 -21 412 -18 404 -14 c 0
 240 67 100 241 100 475 c 0
 100 780 337 1018 643 1018 c 0
2154 812 m 1
 2030 733 1944 581 1944 405 c 0
 1944 264 2016 117 2159 117 c 0
 2300 117 2372 260 2372 400 c 0
 2372 579 2282 732 2154 812 c 1
875 810 m 1
 749 731 658 583 658 406 c 0
 658 264 735 121 878 121 c 0
 1020 121 1096 261 1096 403 c 0
 1096 582 1003 730 875 810 c 1
1799 -215 m 4
 1687 -215 1554 -246 1554 -357 c 0
 1554 -476 1717 -485 1839 -485 c 0
 1940 -485 2057 -457 2057 -361 c 0
 2057 -246 1915 -215 1799 -215 c 4
EndSplineSet
LCarets2: 1 0
EndChar

StartChar: th1th1r3
Encoding: 65697 -1 278
Width: 3330
GlyphClass: 3
LigCaretCntFixed: 1
Flags: HMW
LayerCount: 2
Fore
SplineSet
1226 128 m 0
 1365 128 1449 272 1449 408 c 0
 1449 602 1350 748 1223 826 c 1
 1097 748 1003 601 1003 416 c 0
 1003 272 1082 128 1226 128 c 0
2506 125 m 0
 2646 125 2724 266 2724 408 c 0
 2724 599 2632 749 2498 830 c 1
 2373 752 2288 607 2288 410 c 0
 2288 274 2367 125 2506 125 c 0
2509 -8 m 0
 2283 -8 2156 199 2156 422 c 0
 2156 622 2227 773 2351 886 c 1
 2327 890 2303 892 2280 892 c 0
 2025 892 1932 730 1932 467 c 2
 1932 59 l 1
 1931 24 1898 -7 1862 -7 c 0
 1826 -7 1796 23 1796 59 c 2
 1796 458 l 2
 1796 713 1704 892 1452 892 c 0
 1425 892 1397 889 1369 883 c 1
 1498 769 1581 621 1581 414 c 0
 1581 197 1448 -4 1226 -4 c 0
 1004 -4 870 194 870 413 c 0
 870 620 948 769 1078 883 c 1
 1048 889 1018 893 989 893 c 0
 760 893 584 713 584 484 c 0
 584 313 691 180 812 120 c 0
 837 108 850 86 850 55 c 0
 850 26 818 -6 789 -6 c 0
 758 -6 714 16 656 62 c 0
 545 150 451 306 451 487 c 0
 451 789 699 1028 989 1028 c 0
 1064 1028 1143 1012 1223 976 c 1
 1296 1008 1370 1025 1445 1025 c 0
 1649 1025 1786 933 1867 784 c 1
 1943 923 2102 1026 2286 1026 c 0
 2354 1026 2426 1012 2498 980 c 1
 2561 1007 2622 1020 2680 1020 c 0
 3030 1020 3231 686 3231 323 c 0
 3231 -184 2859 -399 2350 -399 c 2
 1058 -399 l 2
 491 -399 100 -112 100 454 c 0
 100 668 164 839 288 995 c 0
 301 1012 318 1021 338 1021 c 0
 376 1021 407 992 407 956 c 0
 407 939 402 924 392 912 c 0
 289 782 234 619 234 453 c 0
 234 56 548 -275 961 -275 c 2
 2349 -275 l 2
 2788 -275 3098 -106 3098 324 c 0
 3098 609 2954 886 2686 886 c 0
 2674 886 2661 885 2649 884 c 1
 2779 769 2856 617 2856 410 c 0
 2856 195 2728 -8 2509 -8 c 0
EndSplineSet
LCarets2: 1 0
EndChar

StartChar: th1th2
Encoding: 65700 -1 281
Width: 2802
GlyphClass: 3
LigCaretCntFixed: 1
Flags: HMW
LayerCount: 2
Fore
SplineSet
893 816 m 1
 778 742 673 603 673 408 c 0
 673 266 754 122 895 122 c 24
 1035 122 1115 235 1115 407 c 0
 1115 603 1009 741 893 816 c 1
2561 439 m 2
 2561 690 2473 885 2240 885 c 0
 1997 885 1912 685 1912 432 c 2
 1912 126 l 1
 2561 126 l 1
 2561 439 l 2
1691 482 m 0
 1691 327 1648 228 1558 124 c 1
 1774 124 l 1
 1774 431 l 2
 1774 758 1911 1024 2236 1024 c 0
 2556 1024 2702 777 2702 438 c 2
 2702 59 l 2
 2702 21 2669 -11 2631 -11 c 2
 1354 -11 l 2
 1319 -11 1284 15 1284 48 c 0
 1284 81 1297 104 1323 117 c 0
 1439 174 1554 319 1554 472 c 0
 1554 715 1364 890 1144 890 c 0
 1111 890 1077 887 1042 879 c 1
 1172 764 1254 614 1254 407 c 0
 1254 187 1120 -16 895 -16 c 0
 672 -16 532 189 532 407 c 0
 532 612 618 767 744 878 c 1
 710 885 676 889 644 889 c 0
 416 889 239 712 239 482 c 0
 239 307 359 165 496 112 c 0
 527 101 542 76 542 38 c 0
 542 10 508 -24 480 -24 c 0
 466 -24 454 -22 446 -19 c 0
 258 55 100 235 100 490 c 0
 100 799 346 1027 656 1027 c 0
 736 1027 817 1012 892 976 c 1
 971 1012 1054 1028 1135 1028 c 0
 1450 1028 1691 796 1691 482 c 0
EndSplineSet
LCarets2: 2 0 0
EndChar

StartChar: th1p4
Encoding: 65705 -1 286
Width: 2614
GlyphClass: 3
LigCaretCntFixed: 1
Flags: HMW
LayerCount: 2
Fore
SplineSet
637 1024 m 0
 720 1024 801 1006 876 972 c 1
 950 1005 1030 1023 1111 1023 c 0
 1327 1023 1482 907 1560 759 c 1
 1644 912 1807 1022 2027 1022 c 0
 2241 1022 2511 949 2511 719 c 0
 2511 588 2403 511 2277 511 c 0
 2186 511 2082 552 2020 552 c 0
 1970 552 1917 528 1917 480 c 0
 1917 420 1996 402 2059 402 c 0
 2113 402 2168 413 2233 413 c 0
 2371 413 2514 338 2514 192 c 0
 2514 37 2370 -20 2223 -20 c 1
 1869 -17 l 2
 1830 -17 1799 14 1799 53 c 0
 1799 93 1830 123 1870 123 c 6
 2224 120 l 2
 2295 120 2374 129 2374 192 c 0
 2374 253 2296 273 2232 273 c 0
 2179 273 2122 262 2057 262 c 0
 1919 262 1777 334 1777 480 c 0
 1777 615 1899 692 2025 692 c 0
 2130 692 2189 651 2277 651 c 0
 2330 651 2370 672 2370 721 c 0
 2370 845 2155 882 2026 882 c 0
 1761 882 1629 705 1626 444 c 2
 1621 44 l 2
 1621 6 1589 -24 1551 -24 c 0
 1512 -24 1481 7 1481 46 c 2
 1486 444 l 2
 1489 699 1365 883 1113 883 c 0
 1084 883 1055 880 1027 874 c 1
 1154 761 1239 605 1239 401 c 0
 1239 183 1102 -19 879 -19 c 0
 653 -19 517 188 517 406 c 0
 517 605 597 760 726 874 c 1
 696 880 665 884 635 884 c 0
 410 884 225 702 225 478 c 0
 225 306 332 175 455 117 c 0
 478 107 496 78 496 53 c 0
 496 14 465 -17 426 -17 c 0
 417 -17 403 -14 395 -10 c 0
 196 83 100 278 100 474 c 0
 100 748 287 1024 637 1024 c 0
876 813 m 1
 750 733 657 586 657 407 c 0
 657 264 734 121 879 121 c 0
 1022 121 1099 260 1099 403 c 0
 1099 587 1002 732 876 813 c 1
EndSplineSet
LCarets2: 2 0 0
EndChar

